<?xml version="1.0" standalone="no"?>
<!DOCTYPE svg PUBLIC "-//W3C//DTD SVG 1.1//EN" "http://www.w3.org/Graphics/SVG/1.1/DTD/svg11.dtd" >
<svg xmlns="http://www.w3.org/2000/svg">
<metadata></metadata>
<defs>
<font id="eb_garamondregular" horiz-adv-x="1183" >
<font-face units-per-em="2048" ascent="1454" descent="-594" />
<missing-glyph horiz-adv-x="409" />
<glyph horiz-adv-x="2048" />
<glyph horiz-adv-x="2048" />
<glyph unicode="&#xd;" horiz-adv-x="2048" />
<glyph unicode=" "  horiz-adv-x="409" />
<glyph unicode="&#x09;" horiz-adv-x="409" />
<glyph unicode="&#xa0;" horiz-adv-x="409" />
<glyph unicode="!" horiz-adv-x="552" d="M174 94q0 51 36 87t87 36t87 -36t36 -87t-36 -87t-87 -36t-87 36t-36 87zM190 1174q0 65 27.5 110t81.5 45q50 0 77 -44.5t27 -106.5q0 -51 -4 -112.5t-13 -140.5t-16 -133t-21 -153.5t-19 -138.5q-11 -80 -37 -80q-29 0 -37 80q-6 60 -20 181.5t-22.5 198.5t-16 163 t-7.5 131z" />
<glyph unicode="&#x22;" horiz-adv-x="632" d="M127 1268q-1 20 11 40.5t28 32.5q23 17 31.5 23.5t24.5 13t32 6.5q21 0 26.5 -37t-1.5 -69q-23 -159 -93 -317q-8 -19 -20 -35.5t-19 -16.5q-14 0 -14 47q6 161 -6 312zM395 1268q-1 20 11 40.5t28 32.5q23 17 31.5 23.5t24.5 13t32 6.5q21 0 26.5 -37t-1.5 -69 q-23 -162 -92 -317q-8 -19 -20 -35.5t-19 -16.5t-11 15.5t-4 31.5q6 161 -6 312z" />
<glyph unicode="#" horiz-adv-x="958" d="M35 436q0 10 2 23.5t6.5 31.5t15 30.5t25.5 13.5l137 6l70 282l-131 -6q-10 0 -19.5 8t-9.5 17q0 10 2 23.5t6.5 31t15 30t25.5 13.5l142 6l86 350q7 35 67 35q10 0 13.5 -11.5t0.5 -23.5l-83 -346l231 13l88 356q7 35 68 35q10 0 13.5 -11.5t0.5 -23.5l-86 -352l121 6 q11 0 20 -9.5t6 -19.5q-1 -4 -5.5 -21t-6.5 -22.5t-7 -18t-10.5 -17.5t-14 -10t-19.5 -5l-115 -6l-69 -283l124 6q11 0 20.5 -9t6.5 -19q-1 -5 -5.5 -21.5t-6.5 -22.5t-7 -18.5t-10.5 -17.5t-14 -10t-19.5 -5l-119 -6l-88 -360q-7 -31 -62 -31q-10 0 -16.5 10t-3.5 21 l88 356l-234 -12l-90 -367q-7 -30 -61 -30q-10 0 -17 9.5t-4 20.5l91 363l-130 -6q-11 0 -19.5 7.5t-8.5 16.5zM305 545l234 12l67 283l-231 -13z" />
<glyph unicode="$" horiz-adv-x="937" d="M109 324q0 12 12 22t29 10q4 0 16 -24t30.5 -61.5t43 -78.5t61.5 -79.5t78 -59.5q16 -5 16 4l68 551q0 17 -25 35q-60 41 -102.5 78t-83 83.5t-61.5 100.5t-21 113q0 47 22 100t64.5 104t115.5 86.5t163 41.5q20 3 20 12l8 53q5 35 60 35q12 0 20 -11.5t6 -23.5l-8 -53 q0 -12 12 -14q37 -3 68.5 -8.5t59.5 -12.5t34 -8q29 -5 37 -45q2 -9 9.5 -51t10 -60.5t6 -50.5t3.5 -57q0 -15 -7 -33t-14 -18q-10 0 -29 15t-24 36q-43 160 -168 211q-4 1 -7 -3t-3 -8l-58 -464q-4 -10 -1 -16.5t3.5 -7.5t9 -5.5t15.5 -9.5q6 -4 42 -29t51 -36t49 -39 t51.5 -47t43 -51t38 -60t22.5 -65t10 -75q0 -51 -14 -103.5t-46.5 -104.5t-80 -91.5t-120.5 -64.5t-161 -25q-16 0 -18 -12l-19 -156q-3 -31 -51 -31q-14 0 -24 9.5t-9 21.5l21 162q0 5 -4 9.5t-8 4.5q-43 7 -100.5 25.5t-69.5 21.5q-10 2 -16 5.5t-7.5 5t-3.5 7.5t-2 7 q-17 35 -38.5 131t-24.5 152zM328 1059q0 -107 145 -217q8 -4 10 -4q9 0 9 8l53 422q0 16 -15 16q-87 -7 -144.5 -75t-57.5 -150zM479 53q-2 -20 17 -20q119 8 172 68.5t53 201.5q0 68 -60 146t-112 114q-5 4 -7 -7q-1 -2 -1 -3z" />
<glyph unicode="%" horiz-adv-x="1505" d="M100 918q0 90 34.5 174t104 141t158.5 57q120 0 188 -104.5t68 -245.5q0 -100 -31.5 -187t-100 -145.5t-161.5 -58.5q-84 0 -144.5 54t-88 135.5t-27.5 179.5zM244 940q1 -56 10 -114t25.5 -110t43.5 -85t60 -33t59 30.5t40.5 78.5t21.5 102t6 106q-2 113 -40 216.5 t-95 103.5q-39 0 -70.5 -48t-46.5 -115t-14 -132zM279 -23l843 1330q21 34 80 34q12 0 22.5 -12t4.5 -22l-844 -1330q-18 -30 -74 -30q-15 0 -27 10t-5 20zM852 340q0 90 34.5 174.5t104 141.5t158.5 57q81 0 141 -52.5t87.5 -130.5t27.5 -168q0 -100 -31.5 -187 t-100 -145.5t-161.5 -58.5q-84 0 -144.5 54t-88 135.5t-27.5 179.5zM995 362q1 -77 16 -152.5t48 -132.5t76 -57t73.5 53t42.5 123t11 142q-2 113 -40.5 216t-95.5 103q-39 0 -70.5 -48t-46.5 -115t-14 -132z" />
<glyph unicode="&#x26;" horiz-adv-x="1613" d="M76 244q-5 295 344 456l41 19l-31 33q-2 2 -22.5 25t-29 33.5t-26.5 36.5t-27 46.5t-16.5 49.5t-7.5 58q0 102 84.5 164t196.5 62q101 0 176.5 -59t75.5 -152q0 -96 -52.5 -169t-146.5 -108l-29 -10l19 -20q27 -31 122.5 -129.5t143.5 -167.5l24 -37l33 35 q187 199 217 292q9 28 -8 54t-49 37q-12 4 -15 21q-2 13 9 13q39 0 99 -4t99 -4q41 0 116 13.5t85 13.5q22 0 20 -14q-1 -17 -24 -28q-7 -4 -14 -5q-128 -17 -221 -117l-322 -344l35 -49q73 -106 103 -138q84 -79 194 -81q32 0 75 23.5t62 29.5q22 7 31 -2t13 -20t-3 -19 q-19 -12 -59 -40t-59.5 -39.5t-55.5 -22.5t-76 -11q-57 0 -98.5 12.5t-79 46.5t-65 71t-72.5 108l-27 43l-12 -12q-15 -16 -46.5 -51t-46 -50.5t-43.5 -44t-47.5 -42t-48 -32.5t-55 -27.5t-58 -15t-67.5 -6.5q-90 0 -170 31.5t-133.5 96t-54.5 147.5zM240 322q0 -92 70 -156 t165 -64q105 0 182.5 40.5t157.5 125.5l19 19l-25 39q-31 47 -72 94.5t-116.5 126t-104.5 110.5l-24 27l-43 -16q-55 -21 -94.5 -53t-61 -65t-34 -76t-16 -76.5t-3.5 -75.5zM424 1051q0 -103 112 -240q4 -4 5 -6l30 -35l27 12q113 52 113 228q0 59 -41.5 109t-102.5 50 q-57 0 -100 -33t-43 -85z" />
<glyph unicode="'" horiz-adv-x="399" d="M127 1268q-1 20 11 40.5t28 32.5q23 17 31.5 23.5t24.5 13t32 6.5q21 0 26.5 -37t-1.5 -69q-23 -159 -93 -317q-8 -19 -20 -35.5t-19 -16.5q-14 0 -14 47q6 161 -6 312z" />
<glyph unicode="(" horiz-adv-x="645" d="M82 551q0 163 61.5 345.5t141 314.5t157.5 210q23 23 56 23q18 0 37 -15t2 -32q-78 -78 -150.5 -198t-127 -290t-54.5 -334q0 -249 108 -544.5t224 -411.5q12 -12 -5 -37q-17 -20 -47 -20q-20 0 -34 14q-55 55 -119 165.5t-120 244.5t-93 287.5t-37 277.5z" />
<glyph unicode=")" horiz-adv-x="647" d="M81.5 1417q0.5 4 3.5 7.5t7 6.5t9.5 5t12 3.5t12 2t11.5 0.5q28 0 49 -21q58 -58 118 -146t115.5 -199t90.5 -244t35 -257q0 -164 -64 -377t-150.5 -380.5t-160.5 -241.5q-12 -12 -35 -12q-31 0 -51 17.5t0 37.5q118 118 228 400t110 528q0 164 -53.5 340.5t-126.5 304.5 t-150 205q-6 6 -8.5 11t-2 9z" />
<glyph unicode="*" horiz-adv-x="696" d="M72 1194q6 12 21 15.5t28 -1.5q35 -15 94.5 -38t83.5 -33q-9 87 -12 190q0 42 32 45h3q13 0 22.5 -11.5t11.5 -25.5l27 -188q39 27 162 102q12 10 28 8t27 -14q13 -22 -14 -49l-150 -119q110 -52 168 -86q14 -6 21.5 -21t1.5 -28q-6 -12 -21 -15.5t-28 1.5q-35 15 -95 38 t-84 33q10 -100 13 -190q0 -42 -33 -45h-2q-13 0 -23 11.5t-12 25.5l-27 188q-45 -32 -161 -102q-12 -10 -28.5 -8t-27.5 14q-13 21 15 49l149 119q-110 52 -168 86q-14 6 -21 21t-1 28z" />
<glyph unicode="+" horiz-adv-x="1208" d="M102 479q0 21 13 49.5t37 28.5h387q9 0 11.5 3.5t2.5 12.5v351q0 29 37 46t57 17q11 0 20 -8t9 -18v-392q0 -7 1 -9.5t1.5 -2.5h5.5h416q11 0 20.5 -9.5t5.5 -19.5q-8 -25 -13 -36.5t-18.5 -24t-31.5 -12.5h-379q-8 0 -8 -9v-413q0 -15 -12.5 -25.5t-30.5 -15t-31.5 -6.5 t-23.5 -2q-9 0 -17 9t-8 19v432q0 11 -8 11h-414q-11 0 -20 7.5t-9 16.5z" />
<glyph unicode="," horiz-adv-x="466" d="M39.5 -269.5q6.5 11.5 26.5 15.5q79 16 137.5 71t58.5 152q0 27 -24 57t-56 33q-44 4 -70 28t-26 58q0 40 34 67.5t79 27.5q74 0 122 -56.5t48 -142.5q0 -59 -20 -114t-52.5 -95t-71.5 -70t-77 -46t-70 -17h-4q-21 0 -31 10t-3.5 21.5z" />
<glyph unicode="-" horiz-adv-x="561" d="M59 360q10 109 33 111q295 40 393 51q17 0 17 -12q-8 -107 -43 -111q-266 -39 -379 -51h-8q-13 0 -13 12z" />
<glyph unicode="." horiz-adv-x="471" d="M123 84q0 46 33.5 79.5t79.5 33.5t79 -33.5t33 -79.5t-33 -79.5t-79 -33.5t-79.5 33.5t-33.5 79.5z" />
<glyph unicode="/" horiz-adv-x="817" d="M61 -96l609 1423q16 35 80 35q12 0 21 -11.5t5 -23.5l-608 -1423q-13 -31 -74 -31q-14 0 -25.5 10t-7.5 21z" />
<glyph unicode="0" horiz-adv-x="1038" d="M82 418q0 178 127.5 303t306.5 125q182 0 311 -125.5t129 -304.5q0 -120 -58 -223t-158.5 -163.5t-219.5 -60.5q-183 0 -310.5 132.5t-127.5 316.5zM242 418q0 -90 30 -172t92 -137.5t142 -55.5q133 0 212 89.5t79 273.5q0 88 -30 165.5t-92.5 129t-144.5 51.5 q-126 0 -207 -97t-81 -247z" />
<glyph unicode="1" horiz-adv-x="591" d="M53 31.5q5 12.5 21 13.5q24 2 37.5 3.5t38 7.5t38 15t24.5 26.5t11 41.5v543q0 18 -4 32t-8 23.5t-15 17.5l-16.5 12t-21 8t-20.5 5t-23 3.5t-21 2.5q-9 1 -12.5 12t0 22t12.5 11q67 0 118.5 -3t86.5 -3q34 0 84 3t115 3q18 0 17 -21t-17 -24q-7 -1 -28.5 -5t-30 -6 t-24 -9.5t-22.5 -17t-13.5 -26.5t-6.5 -40q-6 -264 0 -543q1 -27 8.5 -44t28.5 -26.5t37.5 -13t55.5 -8.5q10 -1 15 -2q17 -2 23 -14.5t-0.5 -24.5t-22.5 -12q-63 0 -122 5t-97 5q-41 0 -104 -5t-121 -5q-12 0 -19 12.5t-2 25z" />
<glyph unicode="2" horiz-adv-x="880" d="M49 17.5q2 9.5 10 17.5q81 81 125 117q25 20 47 39.5t68 66t78 88t58.5 95.5t27.5 100q1 73 -36 119.5t-97 46.5q-74 0 -131 -22t-107 -77l-4.5 -4.5t-4.5 -5t-4.5 -3.5t-5 -1.5t-5.5 0.5q-17 6 -17 29q0 7 11.5 30t38.5 56t64 63.5t96.5 52t127.5 21.5q95 0 154 -75.5 t59 -176.5q0 -48 -23 -103t-61 -100q-40 -49 -133.5 -138t-114.5 -103q-12 -8 7 -15l12 -2h334q58 0 109.5 35t80.5 94q5 9 16.5 15.5t22.5 5.5q7 0 8.5 -8.5t-2.5 -16.5q-52 -145 -67 -233q-6 -33 -27 -33h-4q-131 8 -367 8q-203 0 -334 -6q-6 0 -9 7t-1 16.5z" />
<glyph unicode="3" horiz-adv-x="761" d="M78 645q37 71 120 136t173 65q100 0 160.5 -58t60.5 -155q0 -29 -8 -61.5t-27.5 -73t-60 -82.5t-97.5 -74q-4 -2 -5.5 -5t0.5 -5t7 -2q67 -1 118 -23t79 -56t41.5 -70t13.5 -72q0 -89 -28.5 -163t-80 -128.5t-105 -92t-122.5 -71.5q-35 -18 -78 -30.5t-63 -12.5 q-18 0 -36.5 9.5t-18.5 19.5q0 16 18.5 38.5t36.5 22.5q98 0 137 20q45 24 73.5 45.5t56.5 57t41.5 88t13.5 123.5q0 23 -3.5 46t-15 50.5t-29.5 48.5t-51.5 35t-76.5 14q-56 0 -127 -41q-11 -6 -24.5 1.5t-10.5 17.5q14 42 63 69q82 49 144 105q33 29 57.5 85.5t24.5 131.5 q0 59 -36.5 97t-95.5 38q-22 0 -43 -5t-35 -9.5t-33.5 -18t-27.5 -19.5t-30.5 -25.5t-28.5 -24.5l-7 -7t-9.5 -7.5t-8.5 -0.5q-10 3 -15 11.5t-1 17.5z" />
<glyph unicode="4" horiz-adv-x="1007" d="M51 115q60 72 128 147.5t157 172t131 143.5l170 194q11 12 30 36.5t31.5 38.5t18.5 15h2q5 0 6.5 -3t0.5 -11t-1 -10q0 -120 -4 -307.5t-4 -307.5q0 -12 10 -12q31 -2 82 -2q31 0 121 4q9 0 16 -5.5t6 -12.5q-6 -30 -19.5 -58t-23.5 -28q-15 0 -49 1t-51 1q-24 0 -64 -5 q-7 -1 -16.5 -5.5t-9.5 -6.5v-366q0 -33 -50.5 -66t-68.5 -33q-31 0 -31 27v428q0 8 -12.5 13t-17.5 5q-83 0 -222 -6.5t-247 -7.5q-9 0 -16.5 10.5t-2.5 16.5zM238 213h307q8 0 16 5t8 11v346q0 5 -7.5 6t-12.5 -3q-37 -38 -68 -71t-64 -70t-53 -60t-62 -72t-64 -74 q-12 -18 0 -18z" />
<glyph unicode="5" horiz-adv-x="768" d="M119 465q12 135 63 246q21 46 74 67q123 48 299 72h2q10 0 16.5 -9t6.5 -20q0 -42 -33 -95t-72 -60q-119 -23 -250 -27q-13 0 -21 -14t-16 -47q-9 -36 39 -62q94 -52 182.5 -110.5t129.5 -98.5q48 -46 87.5 -122.5t39.5 -149.5q0 -95 -42.5 -176.5t-109.5 -134t-147 -82 t-158 -29.5q-27 0 -48.5 6.5t-21.5 18.5q0 23 68 34q295 52 295 328q0 61 -24 114.5t-67 95.5t-88 72.5t-102 59.5q-109 55 -102 123z" />
<glyph unicode="6" horiz-adv-x="954" d="M84 389q-1 88 17.5 172.5t42.5 142.5t62 119.5t59.5 89t53.5 64.5q85 98 233 192t322 140h11q9 0 15 -3t3 -8q-11 -23 -53 -41q-141 -61 -239.5 -137t-174.5 -186q-43 -62 -79.5 -131.5t-69.5 -184.5t-33 -229q0 -142 70 -227q34 -42 93 -79.5t118 -37.5q82 0 135 43 q38 29 63 81t25 122q0 96 -56.5 168.5t-136.5 72.5q-108 0 -164 -30q-18 -9 -21.5 0.5t7.5 21.5q24 27 55 49q30 22 90 45t111 23q107 0 181.5 -71.5t74.5 -180.5q0 -82 -26.5 -156t-77.5 -133t-133.5 -94t-186.5 -35q-193 0 -291 114t-100 304z" />
<glyph unicode="7" horiz-adv-x="942" d="M57 637q25 105 25 172q0 22 20 22q2 0 23.5 -1.5t52.5 -3.5t53 -3q59 -2 220 -2q358 0 421 13q6 0 11.5 -12.5t3.5 -18.5q-20 -42 -78 -141l-573 -1002q-29 -55 -39 -55q-24 0 -41 15t-17 38q0 5 43 84l523 899q6 7 3 13.5t-24 7.5q-240 6 -422 6h-26q-87 0 -123 -47 q-38 -46 -54 -46t-2 62z" />
<glyph unicode="8" horiz-adv-x="925" d="M125 270q0 48 17.5 92t41 73.5t62 60t64.5 46t65 36.5q11 8 10 11.5t-12 11.5q-3 2 -4 3q-54 44 -86 74.5t-67.5 75t-52 94.5t-16.5 108q0 75 53 133.5t131.5 87.5t164.5 29q119 0 210 -71.5t91 -182.5q0 -61 -27.5 -104.5t-71.5 -81.5q-33 -29 -102 -80 q-24 -18 -25 -24.5t15 -16.5q62 -41 99 -69.5t72.5 -68t51.5 -84.5t16 -101q0 -96 -53.5 -177.5t-138 -126.5t-178.5 -45q-134 0 -232 84.5t-98 212.5zM268 301q0 -101 60.5 -176.5t154.5 -75.5q86 0 142.5 55.5t56.5 137.5q0 56 -35.5 111.5t-79.5 93.5t-110 83 q-24 17 -31 17q-8 0 -23 -12q-38 -31 -57 -48.5t-40 -46t-29.5 -61.5t-8.5 -78zM291 995q0 -36 8.5 -66.5t19.5 -51.5t36.5 -46.5t43.5 -40t57.5 -45.5t61.5 -49q12 -9 25 0q63 51 86.5 115t23.5 156q0 74 -49 132t-119 58q-76 0 -135 -47t-59 -115z" />
<glyph unicode="9" horiz-adv-x="954" d="M84 -371q0 19 29 27q85 27 229.5 141t210.5 203q70 93 113 201.5t43 263.5q0 129 -75.5 219t-187.5 90q-92 0 -144 -71t-52 -156q0 -96 60.5 -176t140.5 -80q30 0 55 5.5t37.5 11t36.5 18.5t34 18q7 3 12.5 -6.5t2.5 -15.5q-20 -39 -68 -72q-32 -24 -85 -46t-103 -22 q-107 0 -185.5 74.5t-78.5 183.5q0 70 29 142t80 131.5t129 97t167 37.5q151 0 254.5 -119t103.5 -299q0 -273 -258 -526q-90 -89 -245 -180t-256 -105h-11q-18 0 -18 10z" />
<glyph unicode=":" horiz-adv-x="507" d="M143 84q0 46 33.5 79.5t79.5 33.5t79.5 -33.5t33.5 -79.5t-33.5 -79.5t-79.5 -33.5t-79.5 33.5t-33.5 79.5zM143 651q0 46 33.5 79.5t79.5 33.5t79.5 -33.5t33.5 -79.5t-33.5 -79t-79.5 -33t-79.5 33t-33.5 79z" />
<glyph unicode=";" horiz-adv-x="466" d="M39.5 -269.5q6.5 11.5 26.5 15.5q79 16 137.5 71t58.5 152q0 27 -24 57t-56 33q-44 4 -70 28t-26 58q0 40 34 67.5t79 27.5q74 0 122 -56.5t48 -142.5q0 -59 -20 -114t-52.5 -95t-71.5 -70t-77 -46t-70 -17h-4q-21 0 -31 10t-3.5 21.5zM104 651q0 46 33.5 79.5t79.5 33.5 t79.5 -33.5t33.5 -79.5t-33.5 -79t-79.5 -33t-79.5 33t-33.5 79z" />
<glyph unicode="&#x3c;" horiz-adv-x="1208" d="M109 455q0 17 19.5 49.5t47.5 44.5l895 409q1 0 3 1.5t3 1.5q9 0 16.5 -11t4.5 -20q-7 -26 -13 -40.5t-19 -29.5t-32 -24l-764 -357q-4 -2 -3.5 -5t5.5 -5l779 -356q25 -12 37 -44.5t12 -54.5q0 -8 -7 -17t-16 -9q-1 0 -3 1t-3 1l-878 409q-30 14 -57 31t-27 25z" />
<glyph unicode="=" horiz-adv-x="1208" d="M102 317q0 21 13 49.5t37 28.5h927q11 0 21 -9t6 -19q-6 -18 -10 -27t-11.5 -22t-18 -19t-24.5 -6h-911q-11 0 -20 7.5t-9 16.5zM102 668q0 21 13 49t37 28h927q11 0 21 -9t6 -19q-6 -18 -10 -27t-11.5 -22t-18 -19t-24.5 -6h-911q-10 0 -19.5 8t-9.5 17z" />
<glyph unicode="&#x3e;" horiz-adv-x="1208" d="M109 934q0 8 7 17.5t15 9.5q1 0 3 -1.5t3 -1.5l879 -409q84 -38 84 -55t-20 -50t-48 -45l-895 -409q-1 0 -3 -1t-3 -1q-9 0 -16 10.5t-4 19.5q8 27 13 41t18 30t32 24l764 356q4 2 3.5 5t-5.5 5l-778 357q-25 12 -37 44t-12 54z" />
<glyph unicode="?" horiz-adv-x="727" d="M139 1280q0 28 27 51t55 23q53 0 112.5 -27t108.5 -76q83 -83 137 -198.5t54 -196.5q0 -124 -86 -172q-100 -54 -176 -104q-39 -25 -51.5 -63.5t-14.5 -98.5q0 -17 -8.5 -32t-22.5 -15q-11 0 -25 17.5t-20 41.5q-1 5 -8.5 31.5t-9.5 38t-6.5 39.5t-7.5 61q-4 52 45 94 t161 99q49 25 87 64.5t38 80.5q0 105 -52.5 170t-153.5 66q-20 0 -49 -4.5t-48 -4.5q-32 0 -59 36.5t-27 78.5zM180 94q0 51 36 87t87 36t87 -36t36 -87t-36 -87t-87 -36t-87 36t-36 87z" />
<glyph unicode="@" horiz-adv-x="1875" d="M102 287q0 188 71 364.5t192 309t293 212.5t362 80q146 0 281.5 -44t240.5 -122.5t168.5 -197.5t63.5 -260q0 -130 -58.5 -240t-156.5 -183t-227.5 -113t-270.5 -38q-32 0 -51 37t-11 76q27 128 62 223q12 32 0 32q-6 0 -14 -9q-272 -365 -512 -365q-72 0 -72 88 q0 101 75 239t179 254t219.5 197.5t191.5 81.5q22 0 37.5 -7t36.5 -25q25 -22 31 -5q9 34 24.5 56t30.5 22q26 0 48 -13t22 -28q0 -8 -15 -51l-200 -625q-13 -38 2 -63t47 -27q206 0 346.5 137t140.5 336q0 126 -55.5 234t-148 180.5t-212 113t-247.5 40.5 q-169 0 -317 -76.5t-248 -202.5t-157.5 -288.5t-57.5 -333.5q0 -128 56 -248.5t148.5 -208.5t219 -141.5t262.5 -53.5q113 0 207.5 19t165.5 54.5t121.5 74.5t96.5 90q15 18 37 18q11 0 16 -6t1 -16q-6 -16 -34.5 -50t-86.5 -83t-130.5 -91.5t-178.5 -73t-219 -30.5 q-122 0 -242 36t-222.5 104t-182 159t-124.5 208t-45 243zM623 254q0 -40 17.5 -61t47.5 -21q51 0 137 77.5t162 177t132.5 192.5t56.5 124q0 27 -32.5 46.5t-70.5 19.5q-50 0 -126.5 -51.5t-148.5 -129t-123.5 -180.5t-51.5 -194z" />
<glyph unicode="A" horiz-adv-x="1400" d="M-4 16q0 26 67 47q59 17 102.5 52t74.5 106q196 444 383 963q19 57 20 61q3 10 4 24.5t1.5 23.5t2.5 10q54 17 74 30q12 8 21 21t13.5 21.5t8.5 8.5q11 0 20 -28q154 -488 365 -1094q39 -112 86.5 -152.5t120.5 -52.5q33 -6 50 -19t17 -28q0 -20 -59 -20q-24 0 -129.5 6 t-155.5 6q-44 0 -112.5 -1t-89.5 -1q-60 0 -60 23q0 22 68 40q54 14 77.5 33.5t25.5 47.5v10q0 26 -7 61q-33 164 -59 262q-4 15 -15 19t-43 4h-391q-15 0 -22 -7.5t-13 -29.5l-77 -254q-5 -17 -5 -33q0 -34 24 -60q34 -40 95 -55q68 -17 68 -41q0 -22 -60 -22 q-14 0 -78.5 2t-107.5 2q-48 0 -131.5 -6t-114.5 -6q-59 0 -59 26zM498 618q-3 -9 -3 -15q1 -7 5 -10q8 -5 37 -5h317q24 0 28 4q1 1 1 5q0 7 -4 21l-162 490q-12 37 -19 37q-4 0 -16 -35z" />
<glyph unicode="B" d="M39 12q0 26 67 37q81 14 120.5 49t39.5 105v921q0 73 -30 104.5t-107 45.5q-68 12 -68 41q0 22 60 22q59 0 116.5 -1t96.5 -1q34 0 98 5.5t129 5.5q231 0 343 -71.5t112 -234.5q0 -63 -21.5 -116t-48.5 -80q-35 -33 -62 -51t-75 -37q-8 -3 -8.5 -10.5t8.5 -10.5 q39 -12 65 -22.5t64 -29.5t63.5 -43t50 -57.5t36.5 -81t12 -104.5q0 -64 -15 -117.5t-34.5 -85.5t-53.5 -61t-54.5 -41.5t-55.5 -30.5q-138 -69 -328 -69q-13 0 -80 4t-114 4q-51 0 -128.5 -5t-138.5 -5q-59 0 -59 22zM425 1020v-87q0 -74 1 -97q0 -26 3.5 -41t15 -21.5 t17 -8t25.5 -3.5q3 0 14 -1t19 -1q129 0 228 59q32 18 62 67.5t30 127.5q0 49 -12 92.5t-40.5 85.5t-86.5 67t-140 25q-80 0 -107.5 -21.5t-27.5 -70.5q0 -22 -1 -172zM426 629q-2 -48 -2 -117q0 -115 6 -291q4 -75 35 -106q39 -39 123 -39q80 0 153 40.5t119.5 113 t46.5 157.5q0 179 -151 264q-94 51 -213 51q-61 0 -94 -22q-20 -13 -23 -51z" />
<glyph unicode="C" horiz-adv-x="1310" d="M94 662q0 145 61 275.5t163 222t238.5 145t283.5 53.5q50 0 119.5 -8t97.5 -17q80 -26 155 -37q23 -3 27 -61q14 -109 16 -223q2 -17 -3.5 -32.5t-18.5 -14.5q-18 2 -32.5 21.5t-20.5 53.5q-12 94 -72 150q-12 12 -30.5 25.5t-55.5 33.5t-93.5 32.5t-121.5 12.5 q-110 0 -206 -49t-161.5 -129.5t-103 -186.5t-37.5 -218q0 -100 23 -198.5t68.5 -184.5t107.5 -152t145 -104.5t176 -38.5q81 0 147 23t111 63.5t72 77.5t51 84q5 10 15.5 17.5t21.5 13t14 7.5q3 3 4 3q8 0 12 -20q2 -11 2 -22q0 -8 -1 -14q-7 -47 -27 -114t-41 -99 q-4 -7 -17.5 -12.5t-38.5 -13.5t-44 -17q-87 -41 -344 -41q-182 0 -335 95t-240 254t-87 344z" />
<glyph unicode="D" horiz-adv-x="1544" d="M59 12q0 25 68 37q77 14 107 47.5t30 106.5v921q0 73 -30 104.5t-107 45.5q-68 12 -68 41q0 22 60 22q59 0 116.5 -2t96.5 -2h14q48 0 187.5 8.5t162.5 8.5q164 0 290.5 -31t212 -87.5t140.5 -140t79 -183t24 -222.5q0 -141 -52 -269.5t-142 -223.5t-217 -151t-271 -56 q-5 0 -167.5 7t-258.5 7q-38 0 -97.5 -5t-117.5 -5q-60 0 -60 22zM430 248q0 -58 17 -87.5t55 -58.5q60 -45 147 -45q17 0 57 2t64 2q113 0 206 57t150.5 150t89 207t31.5 234q0 160 -67 291.5t-191 208.5t-282 77q-47 0 -72 -0.5t-60 -3t-52.5 -7t-38.5 -13.5t-31 -22.5 t-16.5 -33t-6.5 -45.5v-913z" />
<glyph unicode="E" horiz-adv-x="1095" d="M47 12q0 25 68 37q79 14 115 48.5t36 105.5v921q0 73 -30 104.5t-107 45.5q-68 12 -68 41q0 22 60 22q78 0 185 -3t177 -3q108 0 267.5 3t177.5 3h18q34 0 37 -18q23 -126 25 -211q0 -8 -9.5 -13t-19.5 -5q-17 0 -23 20q-23 73 -47 100q-51 56 -137 56h-268 q-19 0 -41 -19.5t-25 -42.5q-2 -14 -5 -189t-3 -249q0 -45 21 -45h213q43 0 76 22t48 58q3 8 16.5 21.5t20.5 13.5q9 0 18.5 -10.5t8.5 -22.5q-6 -99 -6 -127t6 -125q0 -35 -18 -35t-31 16t-17 31q-23 71 -96 80q-74 12 -125 12q-28 0 -44.5 -1t-42 -6t-37.5 -18t-11 -34 q0 -14 6 -365q2 -80 32 -119.5t97 -39.5h213q16 0 77.5 12t78.5 25q42 33 86 129q10 20 29 20q11 -2 19 -8q7 -6 7 -15q0 -64 -35 -210q-3 -12 -5 -17t-8 -11.5t-15 -6.5q-138 0 -356.5 6t-313.5 6q-44 0 -111 -6t-125 -6q-59 0 -59 22z" />
<glyph unicode="F" horiz-adv-x="1048" d="M61 12q0 25 68 37q77 14 107 47.5t30 108.5v864q0 98 -26 145t-99 60q-67 11 -67 41q0 22 59 22q76 0 179.5 -3t172.5 -3q108 0 266.5 3t176.5 3h18q34 0 37 -18q6 -35 8 -72q2 -30 2 -54q-1 -5 -1 -11v-21q0 -21 1 -47q0 -12 -5 -27.5t-13 -15.5q-24 0 -31 25 q-23 73 -47 100q-50 55 -137 55h-260q-30 0 -46 -16t-19.5 -34.5t-4.5 -51.5q-2 -51 -2 -193q0 -141 2 -190q0 -45 21 -45q48 0 132.5 3t104.5 3q43 0 76.5 22t48.5 58q3 8 16.5 21.5t20.5 13.5q9 0 18.5 -10.5t8.5 -22.5q-6 -99 -6 -127t6 -125q0 -35 -19 -35 q-18 0 -30.5 16t-16.5 31q-25 80 -96 80q-18 0 -52.5 1t-50.5 1q-47 0 -133 -4q-49 -4 -49 -51q0 -254 6 -389q3 -70 32.5 -107.5t102.5 -50.5q68 -12 68 -37q0 -22 -59 -22q-60 0 -113 7t-88 7q-49 0 -125 -7t-133 -7q-60 0 -60 22z" />
<glyph unicode="G" horiz-adv-x="1492" d="M92 674q0 144 62 272.5t165.5 218t241 141.5t285.5 52q86 0 254.5 -29t171.5 -51q22 -158 22 -229q0 -15 -9 -28t-21 -13q-13 0 -23 9.5t-14.5 19t-9.5 26.5q-21 58 -64 108q-30 37 -114 73t-212 36q-150 0 -272 -74.5t-191 -205.5t-69 -291q0 -99 22.5 -195t67 -180 t106 -148.5t145.5 -101.5t179 -37q157 0 279 76q49 33 49 158q0 16 3 64q1 30 1 52q0 14 -1 25q-1 28 -9 39q-23 30 -90 46.5t-111 16.5q-10 0 -25.5 11t-15.5 24t15.5 24t25.5 11q48 0 124 -4t134 -4q36 0 90.5 4t91.5 4q13 0 28 -7.5t15 -25.5q0 -12 -16 -23.5t-27 -13.5 q-43 -12 -61.5 -34.5t-24.5 -65.5q-10 -67 -10 -209q0 -9 12 -33q3 -6 15 -18t12 -17q0 -8 -8.5 -19t-20.5 -17q-273 -140 -473 -140q-194 0 -360.5 93t-265.5 255t-99 355z" />
<glyph unicode="H" horiz-adv-x="1658" d="M76 12q0 26 67 37q74 13 98.5 45.5t24.5 108.5v925q0 77 -18 105t-90 41q-68 12 -68 41q0 22 60 22q59 0 116 -3t94 -3q39 0 99 3t119 3t59 -22q0 -29 -68 -41q-75 -13 -107 -48.5t-32 -97.5v-393q0 -18 29 -18h760q14 0 14 24v389q0 59 -31 95t-104 49q-68 12 -68 41 q0 22 60 22q58 0 125.5 -3t111.5 -3q32 0 79 3t107 3t60 -22q0 -29 -68 -41q-70 -12 -89 -44t-19 -100v-925q0 -81 19.5 -112t92.5 -44q68 -12 68 -37q0 -22 -59 -22t-116.5 5t-96.5 5q-40 0 -100.5 -5t-119.5 -5t-59 22q0 25 68 37q139 26 139 150v389v5q0 25 -10 25h-783 q-7 0 -8.5 -4t-1.5 -18v-379q0 -64 45.5 -110t116.5 -58q67 -11 67 -37q0 -22 -59 -22q-58 0 -126.5 5t-113.5 5q-41 0 -104 -5t-121 -5q-59 0 -59 22z" />
<glyph unicode="I" horiz-adv-x="696" d="M39 12q0 26 67 37q81 14 120.5 48.5t39.5 103.5v925q0 71 -30 102.5t-107 45.5q-68 12 -68 41q0 22 60 22q58 0 126 -3t113 -3q41 0 103.5 3t120.5 3q59 0 59 -22q0 -29 -68 -41q-79 -14 -112 -46t-33 -102v-925q0 -69 40.5 -103.5t121.5 -48.5q67 -11 67 -37 q0 -22 -59 -22q-58 0 -126.5 5t-113.5 5q-50 0 -127.5 -5t-134.5 -5q-59 0 -59 22z" />
<glyph unicode="J" horiz-adv-x="614" d="M-141 -324q0 42 22.5 77.5t50.5 35.5q39 0 61.5 -12t41.5 -41q40 -60 96 -60q135 0 135 324v1128q1 70 -28.5 101t-106.5 45q-68 12 -68 41q0 22 60 22q58 0 126 -3t113 -3q34 0 83.5 3t109.5 3q59 0 59 -22q0 -30 -67 -41q-73 -13 -94 -42t-23 -104v-837 q0 -125 -7 -217.5t-13.5 -142t-26 -96.5t-27 -59t-34.5 -50q-94 -136 -252 -136q-95 0 -153 26t-58 60z" />
<glyph unicode="K" horiz-adv-x="1394" d="M63 12q0 25 68 37q77 14 107 48t30 110v921q0 70 -30 101t-107 45q-68 12 -68 41q0 22 60 22q58 0 122.5 -2t106.5 -2q35 0 87 2t112 2q59 0 59 -22q0 -30 -67 -41q-71 -12 -91 -45t-20 -101v-383q0 -38 10 -38t27.5 11.5t28.5 24.5l409 418q31 32 31 62q0 37 -39 47 q-35 9 -49 18t-14 23q0 22 59 22h111q229 0 317 8h14q45 0 45 -22q0 -30 -67 -41q-192 -34 -311 -135q-206 -175 -394 -383q-13 -13 11 -37l495 -528q71 -80 106.5 -104t118.5 -42q68 -14 68 -37q0 -22 -59 -22q-62 0 -146 5t-139 5q-20 0 -67.5 -1t-98.5 -1q-59 0 -59 22 q0 24 55 35q29 6 43 16t13.5 22.5t-7.5 24.5t-22 29l-435 480q-35 35 -47 35q-8 0 -8 -44q0 -120 10 -393q3 -74 31.5 -118.5t99.5 -57.5q68 -12 68 -37q0 -22 -59 -22q-60 0 -113 7t-88 7q-49 0 -125 -7t-133 -7q-60 0 -60 22z" />
<glyph unicode="L" horiz-adv-x="1175" d="M55 14q0 24 45 35q84 16 125 49.5t41 98.5v950q0 71 -22.5 92t-102.5 35q-67 11 -67 41q0 22 59 22q58 0 122.5 -3t106.5 -3q49 0 125.5 3t133.5 3q59 0 59 -22q0 -29 -68 -41q-39 -7 -59 -11t-48 -13t-41.5 -20t-23.5 -28.5t-10 -40.5v-964q0 -68 31 -96.5t127 -28.5 h299q12 0 51 15.5t63 37.5q41 36 61 63.5t46 81.5q7 20 20 41t25 21q15 0 21 -17q4 -11 4 -20q0 -6 -2 -10q-48 -176 -56 -260q-4 -35 -28 -35q-146 0 -377.5 5t-325.5 5q-45 0 -114 -2.5t-115 -5.5l-47 -2q-58 0 -58 24z" />
<glyph unicode="M" horiz-adv-x="1845" d="M39 12q0 26 67 37q35 6 61.5 27.5t39.5 50.5t18 47t8 35q84 633 84 893q0 11 -1 26.5t-1 20.5q0 30 -30 65q-12 13 -27.5 23.5t-37 18t-35 11.5t-39.5 10t-31 7q-29 10 -29 35q0 22 47 22q41 0 178.5 -8t161.5 -8q16 0 29.5 -33t26 -87t18.5 -70l323 -822q12 -30 25 -30 q11 0 23 24l403 840q12 26 20.5 73.5t16 77t20.5 29.5h74q50 0 131 8t96 8h7q43 0 43 -20q0 -15 -19.5 -28.5t-34.5 -18.5q-31 -9 -45.5 -13.5t-43.5 -16t-43 -21.5t-26 -26.5t-12 -35.5q0 -171 7 -331t20 -354.5t18 -282.5q3 -63 40 -97.5t114 -48.5q68 -12 68 -37 q0 -22 -60 -22q-58 0 -126 5t-113 5q-39 0 -98 -5t-118 -5t-59 22q0 28 68 37q59 7 81.5 40.5t22.5 107.5q0 105 -2.5 212t-4.5 163.5t-8.5 193t-8.5 184.5q0 33 -11 33q-5 0 -22 -33l-455 -921q-22 -49 -35 -49q-11 0 -28 53q-73 220 -153 421t-214 511q-9 22 -16.5 22.5 t-10.5 -22.5q-48 -359 -65 -752q-1 -30 10 -62.5t43.5 -63t79.5 -38.5q68 -12 68 -37q0 -22 -60 -22t-109 5t-83 5q-32 0 -79.5 -5t-107.5 -5q-59 0 -59 22z" />
<glyph unicode="N" horiz-adv-x="1576" d="M4 1319q0 29 47 29q67 -2 151 -6.5t165 -4.5q12 0 22 -6t13 -10t14 -18q27 -37 385 -488.5t395 -495.5q33 -40 51 -40t21 43q2 64 4 412q1 149 1 248q0 132 -1 173q-1 37 -41.5 71.5t-77.5 41.5q-68 12 -68 41q0 22 60 22h117q46 0 107.5 3t127.5 3q59 0 59 -22 q0 -30 -67 -41q-75 -13 -101 -36t-28 -75q-4 -98 -4 -1147q0 -51 -43 -51q-24 0 -72.5 34t-93.5 95q-24 33 -337.5 417.5t-391.5 479.5q-26 33 -43 33q-19 0 -19 -43q-10 -508 -10 -768q0 -141 131 -164q68 -12 68 -37q0 -22 -60 -22t-109 5t-83 5q-32 0 -79.5 -5t-107.5 -5 q-59 0 -59 22q0 25 68 37q27 5 50.5 28t37 52.5t21 52.5t9.5 37q30 261 37 813v8q0 50 -12 86q-14 40 -43 67t-62.5 44t-84.5 33q-10 3 -22.5 8.5t-27 17.5t-14.5 23z" />
<glyph unicode="O" horiz-adv-x="1562" d="M92 655q0 112 29 215.5t88 193t142.5 155.5t198.5 103.5t249 37.5q133 0 255 -49.5t214 -136t147 -214t55 -274.5q0 -140 -45.5 -267.5t-129.5 -228t-217 -160t-296 -59.5q-134 0 -260 53t-221 142.5t-152 218t-57 270.5zM291 717q0 -175 65.5 -327t185.5 -245.5 t267 -93.5q226 0 344.5 153t118.5 421q0 196 -57 342.5t-171.5 229.5t-275.5 83q-88 0 -165.5 -31t-133.5 -84.5t-97 -125t-61 -154t-20 -168.5z" />
<glyph unicode="P" horiz-adv-x="1130" d="M49 12q0 25 68 37q79 14 114 48.5t35 107.5v864q0 98 -26 145t-99 60q-67 11 -67 41q0 22 59 22t110.5 -1t90.5 -1q44 0 123 5.5t104 5.5q114 0 210.5 -24.5t170.5 -72.5t116 -126.5t42 -180.5q0 -74 -44 -171.5t-108 -147.5q-65 -51 -151 -77t-166 -26q-36 0 -66 6 q-38 8 -36 26q0 14 19 20q5 1 9 1h4q14 -2 41 -2q53 0 104.5 16.5t84.5 41.5q66 51 96.5 142.5t32.5 193.5v6q0 63 -21 115q-22 56 -58.5 92.5t-84.5 62.5t-97.5 37.5t-97.5 11.5q-131 0 -131 -86v-977q0 -77 31.5 -121t105.5 -57q68 -12 68 -37q0 -22 -60 -22t-112.5 7 t-87.5 7q-51 0 -130.5 -7t-135.5 -7q-60 0 -60 22z" />
<glyph unicode="Q" horiz-adv-x="1650" d="M92 629q0 201 93 367t261 263t377 97q109 0 214 -26t199.5 -79.5t166.5 -128.5t114 -179.5t42 -225.5q0 -100 -19.5 -188.5t-48.5 -152.5t-75 -121.5t-86.5 -94t-96 -71t-89.5 -51.5t-81 -38q-40 -17 -40 -37q0 -10 9 -20q55 -59 105 -100t141 -107q107 -77 177.5 -103 t186.5 -26q84 0 115 14q24 8 39 8q23 0 23 -16q0 -19 -7 -29.5t-30 -23.5q-118 -68 -240 -68q-139 0 -243 38.5t-212 115.5q-156 112 -323 243q-31 25 -120 75t-114 56q-49 13 -105.5 46t-116 88.5t-107.5 124.5t-78.5 161t-30.5 189zM332 464q46 -126 123.5 -223 t189.5 -156.5t236 -59.5q90 0 169 39t135.5 103.5t97.5 147.5t61 172.5t20 176.5q0 117 -44 229t-120 198t-185 138.5t-231 52.5q-146 0 -262.5 -81t-177.5 -208q-59 -125 -59 -267q0 -133 47 -262z" />
<glyph unicode="R" horiz-adv-x="1411" d="M49 12q0 25 68 37q79 14 114 48.5t35 107.5v864q0 98 -26 145t-99 60q-67 11 -67 41q0 22 59 22t110.5 -1t90.5 -1q34 0 102 5.5t133 5.5q224 0 341.5 -88.5t117.5 -256.5q0 -62 -30.5 -129t-59.5 -96q-33 -32 -82.5 -71t-67.5 -48q-5 -2 -6 -4t0 -4.5t6 -9.5t36.5 -55.5 t37.5 -57t34.5 -50.5t37.5 -54.5t35.5 -48.5t41 -52.5t41 -48t47.5 -52.5t48.5 -48t56.5 -53q50 -45 100 -56.5t136 -11.5q30 0 30 -22q0 -21 -18 -36t-46 -22.5t-53 -10.5t-48 -3q-95 0 -163.5 24.5t-119.5 86.5q-12 14 -55 66.5t-59.5 74t-52.5 69t-69.5 99t-74.5 117.5 q-32 52 -88 79q-72 35 -162 45q-31 3 -31 -40v-353q0 -152 137 -176q68 -12 68 -37q0 -22 -60 -22t-112.5 7t-87.5 7q-51 0 -130.5 -7t-135.5 -7q-60 0 -60 22zM430 746q0 -47 24 -59q24 -13 85 -13q76 0 123 20.5t90 59.5q92 89 92 247q0 39 -6 74.5t-24.5 75t-47.5 68 t-80 47t-117 18.5q-77 0 -103 -28t-28 -82q-8 -195 -8 -428z" />
<glyph unicode="S" horiz-adv-x="952" d="M84 285q-2 14 12.5 37.5t30.5 23.5q20 0 61 -135q28 -89 100.5 -132.5t168.5 -43.5q111 0 173 74.5t62 187.5q0 93 -75.5 174.5t-221.5 179.5q-124 83 -192 168.5t-68 198.5q0 138 116.5 240t295.5 102q58 0 114 -10t90.5 -20.5t39.5 -10.5q12 0 21 -14.5t13 -32.5 q2 -11 6.5 -40.5t9.5 -73.5q3 -29 3 -54v-22q-2 -32 -15 -33q-28 0 -47 16.5t-24 40.5q-15 87 -78.5 136.5t-151.5 49.5q-99 0 -167 -60.5t-68 -160.5q0 -46 25.5 -92t74 -89t83.5 -69t89 -61l54 -36t56 -41t57.5 -49.5t50 -55.5t43.5 -65.5t27 -74t11 -84.5 q0 -51 -14.5 -103t-47.5 -104t-81 -91.5t-121.5 -64t-161.5 -24.5q-167 0 -274 49q-35 16 -43 35q-32 66 -37 234z" />
<glyph unicode="T" horiz-adv-x="1372" d="M56 1107q0 22 10 40q44 94 63 227q6 47 35 47q7 0 24 -22.5t27 -42.5q11 -20 53 -30.5t90 -10.5h781q78 0 118 28q15 10 36.5 30.5t37 32t29.5 11.5q8 0 12 -24q2 -13 1 -24q0 -9 -1 -17q-34 -140 -34 -206q0 -9 1 -16q2 -21 -7 -46t-25 -25q-14 0 -22.5 20t-16.5 64 q-16 94 -189 94q-202 0 -276 -8q-33 -5 -33 -88v-932q0 -71 41 -108.5t121 -51.5q67 -11 67 -37q0 -22 -59 -22q-58 0 -126.5 5t-113.5 5q-50 0 -127.5 -5t-134.5 -5q-59 0 -59 22q0 26 67 37q80 14 120 51.5t40 108.5v932q0 81 -37 88q-39 8 -151 8h-96q-53 0 -100 -21 t-68 -59q-12 -24 -37.5 -51t-46.5 -27q-14 0 -14 28z" />
<glyph unicode="U" horiz-adv-x="1511" d="M49 1315q0 22 60 22q29 0 92.5 -3t103.5 -3q34 0 89.5 2t74.5 2q59 0 59 -22q0 -13 -15 -21t-52 -20q-29 -9 -57.5 -50.5t-28.5 -97.5v-522q0 -136 55 -256t160 -196t235 -76q189 0 288 146.5t99 393.5q0 117 -8 433q-2 85 -23 148.5t-61 74.5q-67 18 -67 41q0 22 59 22 q31 0 78 -1t76 -1q35 0 90 3t76 3q59 0 59 -22q0 -27 -68 -41q-95 -19 -102 -154q-6 -106 -10 -205.5t-6.5 -221t-4.5 -173.5q-8 -238 -154.5 -393.5t-367.5 -155.5q-116 0 -210 33.5t-160 94t-110.5 146.5t-65.5 189.5t-21 224.5v461q0 67 -27 103t-67 47q-68 17 -68 45z " />
<glyph unicode="V" horiz-adv-x="1376" d="M0 1315q0 22 59 22q28 0 113.5 -3t136.5 -3q46 0 120 2t89 2q60 0 60 -22q0 -24 -68 -41q-62 -15 -90 -80q-14 -31 -14 -69q0 -41 16 -91l237 -629q20 -57 37 -57q14 0 37 57l268 664q8 23 8 45q-1 20 -7 40q-14 42 -43 76t-58 42q-67 18 -67 41q0 22 59 22q23 0 92 -1 t111 -1q43 0 126.5 3t106.5 3q60 0 60 -22q0 -27 -68 -41q-68 -16 -126.5 -79.5t-86.5 -129.5l-389 -942q-5 -13 -15.5 -39t-17 -42.5t-15 -35t-14.5 -28t-10 -9.5t-13.5 22t-25 64t-22.5 60l-357 954q-65 173 -161 201q-68 21 -68 45z" />
<glyph unicode="W" horiz-adv-x="1875" d="M0 1315q0 22 59 22q31 0 89 -3t94 -3q42 0 108 2t82 2q60 0 60 -22q0 -24 -68 -41q-34 -8 -40 -47q-2 -15 -2 -29q0 -23 6 -45l11 -35q159 -406 336 -805q18 -40 31 -2l160 396q13 36 11.5 51.5t-15.5 54.5l-117 291q-25 62 -81 106.5t-114 61.5q-67 21 -67 45 q0 22 59 22q30 0 92.5 -3t100.5 -3q33 0 86 2t71 2q60 0 60 -22q0 -13 -15.5 -24t-33 -18.5t-28.5 -23.5t-3 -37q6 -20 42.5 -111.5t49.5 -119.5q12 -27 18 -27q7 0 19 27q45 100 82 231q5 21 -5 37t-26 23.5t-29.5 18.5t-13.5 24q0 22 59 22q32 0 61 -2t46 -2q23 0 59.5 3 t61.5 3q59 0 59 -22q0 -27 -67 -41q-62 -14 -86.5 -32.5t-53.5 -65.5q-37 -63 -108 -252q-15 -41 -15 -64q0 -9 2 -14l211 -543q9 -20 23 12q76 202 250 793q12 42 12 73q0 72 -61 89q-68 19 -68 41t59 22q27 0 74.5 -1t73.5 -1q36 0 98.5 3t85.5 3q60 0 60 -22 q0 -27 -68 -41q-107 -25 -168 -180l-330 -975q-51 -144 -65 -144q-7 0 -18 12.5t-17 26.5q-48 108 -88 208t-85 220t-79 205q-8 17 -14 7l-8 -19q-119 -281 -234 -604q-9 -25 -21.5 -44.5t-23.5 -19.5q-8 0 -29 58l-442 1110q-51 107 -147 135q-68 21 -68 45z" />
<glyph unicode="X" horiz-adv-x="1447" d="M-10 12q0 24 67 45q63 18 148.5 71.5t144.5 125.5l256 319q37 53 37 79q0 9 -4 14l-297 417q-51 70 -117.5 123t-120.5 68q-67 21 -67 45q0 22 59 22q30 0 134 -5t159 -5q47 0 118.5 2t84.5 2q59 0 59 -22q0 -13 -14.5 -21.5t-52.5 -19.5q-90 -26 -97 -62q-1 -3 -1 -8 q0 -38 61 -121l186 -262q22 -31 33 -31q10 0 29 25l219 289q28 36 40.5 60.5t12.5 46.5t-22.5 37t-69.5 24q-25 5 -46.5 17t-21.5 24q0 22 60 22q23 0 78.5 -1t87.5 -1q43 0 126 6t107 6q59 0 59 -22q0 -24 -67 -41q-52 -13 -116 -74t-150 -162l-236 -278q-27 -30 -33 -45.5 t4 -36.5l318 -457q46 -68 103.5 -113.5t115.5 -60.5q68 -17 68 -41q0 -22 -60 -22q-24 0 -132 6t-161 6q-46 0 -118.5 -1t-92.5 -1q-59 0 -59 23q0 21 68 40q23 7 43 20t34.5 33t12 49t-24.5 62l-213 310q-14 21 -24.5 22.5t-20.5 -12.5l-276 -357q-18 -26 -18 -49 q0 -16 9 -31q22 -35 82 -49q68 -17 68 -41q0 -22 -60 -22q-14 0 -77 2t-105 2q-49 0 -138 -6t-120 -6q-59 0 -59 22z" />
<glyph unicode="Y" d="M0 1315q0 22 59 22q26 0 107.5 -3t132.5 -3q34 0 89.5 2t74.5 2q59 0 59 -22q0 -13 -15 -21t-52 -20q-15 -4 -27 -12.5t-22.5 -22.5t-8.5 -37.5t19 -52.5l188 -338l9 -15q33 -57 44 -62q2 -1 5 -1q5 0 9.5 3t10.5 10.5t11.5 15.5t16 22.5t19.5 26.5q42 58 65 91.5 t52.5 85.5t54.5 108q16 34 16 69q0 20 -5 40q-15 55 -58 67q-68 19 -68 41t60 22q31 0 77.5 -1t75.5 -1q42 0 109.5 3t87.5 3q59 0 59 -22q0 -27 -67 -41q-81 -16 -205 -197q-111 -167 -227 -368q-36 -62 -43.5 -92t-7.5 -93v-303q0 -69 42 -113.5t119 -58.5q68 -12 68 -37 q0 -22 -60 -22q-58 0 -126 5t-113 5q-50 0 -127.5 -5t-134.5 -5q-60 0 -60 22q0 25 68 37q160 28 160 172v303q0 23 -4 45t-11.5 39.5t-13.5 29t-14 24t-9 14.5l-239 393q-115 182 -182 201q-68 21 -68 45z" />
<glyph unicode="Z" horiz-adv-x="1234" d="M57 23q0 14 39 74.5t80 115.5q33 44 111 150.5t107 146.5t91 125.5t97 136t88.5 127t102.5 149.5t104 156q6 9 7.5 15t-7 11.5t-31.5 6.5q-148 4 -299 4q-158 0 -209 -4q-57 -3 -109.5 -37.5t-78.5 -103.5q-26 -66 -58 -66q-17 0 -17 22q0 19 13 56q47 146 55 227 q2 35 31 35q15 0 51 -29q21 -16 150 -16q106 -2 297 -2q245 0 473 6q9 0 18.5 -15t3.5 -22l-125 -166q-173 -233 -256.5 -347t-198.5 -280.5t-237 -355.5q-10 -15 -5 -36.5t22 -22.5q98 -10 231 -10q129 0 289 10q78 6 145.5 58t108.5 149q5 15 18 29t27 14q18 0 18 -27 q0 -19 -30 -133.5t-46 -148.5q-15 -29 -27 -34q-4 -1 -9 -1q-123 0 -328.5 3t-290.5 3q-41 0 -123 -1t-121 -1h-157q-5 0 -9 7t-5 15z" />
<glyph unicode="[" horiz-adv-x="763" d="M229 1377q1 12 5 29t16 24.5t31 7.5h26l338 -2q15 0 27.5 -9t9.5 -22q-4 -11 -14 -16.5t-15.5 -6t-23.5 -2.5q-37 -4 -99 -4q-20 0 -65 1t-74 1q-22 0 -35.5 -17.5t-13.5 -41.5q-12 -305 -12 -782q0 -96 -1.5 -253t-1 -273.5t4.5 -252.5q1 -67 12.5 -83.5t46.5 -16.5 q121 0 238 -10q53 -4 53 -37q0 -27 -53 -27l-336 6q-39 0 -51 12t-11 50l9 1458q0 36 -5 98t-4 103q0 7 -1.5 30.5t-0.5 35.5z" />
<glyph unicode="\" horiz-adv-x="817" d="M59 1327q-4 12 5.5 23.5t21.5 11.5q64 0 80 -35l608 -1423q4 -11 -7.5 -21t-25.5 -10q-60 0 -73 31z" />
<glyph unicode="]" horiz-adv-x="757" d="M82 -389q0 33 53 37q118 10 238 10q35 0 46.5 16.5t12.5 83.5q3 137 3.5 251.5t-0.5 276.5t-1 251q0 416 -12 782q-2 25 -14.5 42t-34.5 17q-29 0 -75 -1t-67 -1q-59 0 -96 4q-1 0 -6.5 0.5t-7.5 0.5t-6.5 1t-6.5 1.5l-6 1.5t-5.5 2l-4.5 3t-4.5 4t-3 5t-2.5 6 q-4 13 9 22t28 9l338 2h26q16 0 26.5 -6.5t15.5 -15t7 -24t2 -26.5t-1 -29t-1 -26q0 -39 -4 -100.5t-4 -100.5l8 -1458q0 -38 -11.5 -50t-49.5 -12l-336 -6q-53 0 -53 27z" />
<glyph unicode="^" horiz-adv-x="1024" d="M100 596q-5 14 4 29q52 87 200 306t208 304q315 -452 408 -610q9 -15 4 -29t-17 -14h-4q-57 14 -76 36q-26 28 -73 92.5t-83 117.5t-90 134t-61 91q-8 9 -11 9t-9 -9q-8 -11 -63 -94t-93 -138t-83 -118.5t-64 -84.5q-23 -23 -76 -36h-4q-12 0 -17 14z" />
<glyph unicode="_" horiz-adv-x="1024" d="M0 -348q0 22 12.5 50t36.5 28h948q11 0 21 -9.5t6 -19.5q-9 -25 -13.5 -36.5t-18 -24.5t-31.5 -13h-932q-10 0 -19.5 8t-9.5 17z" />
<glyph unicode="`" horiz-adv-x="571" d="M82 1303q0 22 22 39.5t50 17.5q68 0 102 -55q46 -75 118 -207t72 -152q0 -26 -26 -26q-23 0 -55 45q-69 96 -142.5 175t-107 113t-33.5 50z" />
<glyph unicode="a" horiz-adv-x="817" d="M72 133q0 123 149 184l209 86q39 17 47 28.5t10 53.5l5 127v6q0 52 -32 90q-34 40 -89 40q-35 0 -73.5 -21.5t-51.5 -44.5q-7 -13 -7 -42l1 -27q0 -34 -142 -72q-6 -2 -11 4t-6 16.5t3 22.5q14 41 29 63.5t51 54.5q59 54 145 100t160 46q72 0 121 -54q47 -52 47 -122v-6 l-10 -443v-13q0 -54 15 -96q17 -48 58 -48q50 0 82 28q10 10 23 0q9 -7 9 -16q0 -4 -1 -8q-6 -18 -59 -58.5t-103 -40.5q-33 0 -59 11t-40.5 26.5t-24.5 31.5t-16.5 27t-10.5 11q-8 0 -28 -16.5t-45 -36.5t-73.5 -36.5t-105.5 -17.5q-63 0 -119.5 51t-56.5 111zM236 178 q0 -53 32.5 -82.5t67.5 -29.5q60 0 123 55q24 21 24 82l4 100v8q0 33 -22 33q-5 0 -25 -4q-107 -31 -155.5 -75.5t-48.5 -86.5z" />
<glyph unicode="b" horiz-adv-x="1054" d="M41 1336q0 21 14 24q47 11 86 24.5t85.5 33t60.5 24.5q1 0 2 1t2 1q4 0 8 -4.5t4 -9.5q0 -1 -1.5 -32t-3 -82t-1.5 -102v-419q0 -20 0.5 -29t2 -19.5t5 -14.5t10.5 -5q43 48 104.5 77t106 36.5t88.5 7.5q158 0 263.5 -118t105.5 -286q0 -92 -28.5 -175.5t-83.5 -150.5 t-144 -107t-201 -40q-56 0 -119 14t-107.5 28t-53.5 14q-24 0 -58 -27q-12 -8 -32 0t-17 20q15 111 15 195v944q0 58 -24 99t-73 51q-16 3 -16 27zM297 270q0 -103 84.5 -169t196.5 -66q115 0 182 100t69 258v7q-1 59 -17 118q-18 63 -51 119t-90.5 91.5t-127.5 35.5 q-50 0 -111 -19t-92 -53q-23 -25 -33 -61t-10 -113v-248z" />
<glyph unicode="c" horiz-adv-x="772" d="M72 369q0 126 54.5 235t155 175.5t222.5 66.5q167 0 246 -98q10 -12 10 -25q0 -29 -51 -61q-12 -9 -29 -9q-28 0 -49 21q-55 60 -88 78t-105 18q-71 0 -124 -46.5t-77 -114.5t-24 -146q0 -99 39.5 -186.5t115.5 -143t171 -55.5q62 0 100 23t80 79q10 10 18 10 q11 0 19 -10q6 -7 7 -16q0 -3 -1 -6q-18 -63 -114.5 -125t-225.5 -62q-101 0 -182 55.5t-124.5 146t-43.5 196.5z" />
<glyph unicode="d" horiz-adv-x="1036" d="M72 389q0 90 32 172.5t90 146.5t146 102t192 38q40 0 95 -16t65 -27q18 -21 22 -18q7 5 7 49v323q0 79 -24 109t-81 41q-15 3 -16 25.5t14 25.5q64 15 121.5 36t87.5 33.5t41 12.5q12 0 15 -12q0 -6 -3.5 -38.5t-7.5 -96t-4 -144.5v-926q0 -68 9.5 -100.5t33.5 -32.5 q64 0 94 6q10 2 20.5 -3.5t10.5 -22.5q0 -15 -9 -22t-19 -7q-109 -14 -240 -70q-24 -12 -49 -12q-6 0 -6 6q-1 16 5 71q5 49 5 69v10q-38 -58 -107 -102t-161 -44q-112 0 -200.5 62t-133.5 156.5t-45 199.5zM223 436q0 -64 12 -118t32 -91.5t47 -67t55 -47t58 -29t54 -16 t45 -4.5q84 0 139.5 54t55.5 129v276q0 44 -17.5 88.5t-48.5 81.5t-79.5 60.5t-106.5 23.5q-27 0 -56.5 -8.5t-64.5 -32.5t-62 -60.5t-45 -98.5t-18 -140z" />
<glyph unicode="e" horiz-adv-x="794" d="M68 377q0 119 47.5 226t136.5 176t197 69q147 0 215.5 -52t67.5 -134q0 -92 -42 -113q-48 -23 -115 -23h-335q-28 0 -40 -13.5t-12 -61.5q0 -150 87.5 -251.5t222.5 -101.5q122 0 184 82q10 10 18 10q11 0 19.5 -10t5.5 -22q-8 -29 -32.5 -60t-63 -60t-97.5 -48t-126 -19 q-91 0 -169.5 57.5t-123.5 151t-45 197.5zM229 610q6 -20 37 -20h168q96 0 150 10q6 1 10 8t5.5 19t1.5 21t-0.5 21t-0.5 13q-4 49 -47 75.5t-117 26.5q-126 0 -200 -133q-9 -14 -9 -28q0 -7 2 -13z" />
<glyph unicode="f" horiz-adv-x="628" d="M49 12q0 21 47 37q88 26 88 90v578q-63 0 -106 4q-6 1 -13 12.5t-8 22.5t6 14q28 7 46.5 15t41.5 20.5t33 17.5q0 136 30 246t77 178.5t108.5 115t120 65t115.5 18.5q72 0 109 -9t83 -42q25 -19 31 -51q2 -11 2 -22q0 -19 -6 -36q-15 -45 -63 -45q-17 0 -39 19t-43 41.5 t-63.5 41.5t-96.5 19q-100 0 -158.5 -95.5t-58.5 -293.5v-109q0 -45 51 -45h242q9 -4 8.5 -25.5t-9.5 -47t-18 -25.5h-192q-17 0 -30.5 -1t-22 -2.5t-14.5 -5.5l-9 -6t-4.5 -8t-2 -8.5t0 -10.5t0.5 -11v-529q2 -65 88 -90q47 -16 47 -37q0 -18 -41 -18h-6q-41 0 -83 5t-77 5 t-79 -5t-85 -5h-6q-41 0 -41 18z" />
<glyph unicode="g" horiz-adv-x="890" d="M23 -360q0 64 32 110t68 66q39 25 57.5 38t45 36.5t40.5 46.5q-30 6 -59 17t-58.5 28.5t-48 45.5t-18.5 62q0 39 47 76q12 9 39.5 25t47.5 32t34 37q-10 2 -35.5 20t-59 49.5t-58.5 85t-25 113.5q0 98 54.5 174t136.5 113t173 37q50 0 120.5 -23t98.5 -28q67 -13 109 -13 q15 0 34.5 1.5t30.5 1.5q16 0 43 -3q20 -2 20 -39q0 -34 -20 -34q-40 0 -63 -2t-28 -5t-11 -6t-14 -4q-8 -23 -8 -94q0 -154 -98.5 -270.5t-246.5 -116.5q-64 0 -110 25q-90 -69 -90 -101q0 -20 20.5 -36t53.5 -25.5t62.5 -14.5t59.5 -8q221 -21 299 -44q132 -38 153 -128 q5 -20 5 -43q0 -108 -71 -211t-177 -164t-209 -61q-55 0 -105.5 7t-101 24t-87 43t-59.5 67t-23 93zM168 -274q0 -104 70.5 -171t189.5 -67q123 0 213 82t90 207q0 35 -28 64.5t-63 45t-73 23.5q-75 15 -200 20q-4 0 -15 1t-19.5 1t-13.5 -2q-22 -14 -102 -94 q-49 -57 -49 -110zM231 553q0 -101 54.5 -182.5t138.5 -81.5q75 0 127.5 76t52.5 178q0 97 -55.5 172.5t-138.5 75.5q-55 0 -97.5 -40t-62 -93t-19.5 -105z" />
<glyph unicode="h" horiz-adv-x="1054" d="M39 12q0 21 47 37q26 8 42 15t30.5 25t15.5 44v1026q0 132 -92 150q-15 3 -15.5 25.5t13.5 25.5q36 9 72.5 20.5t59 20t56.5 22t49 19.5l5 2q4 0 6 -1.5t5 -6.5l3 -6q0 -5 -5 -30.5t-9.5 -88.5t-4.5 -160v-356q0 -56 17 -76q173 129 309 129q104 0 171 -65t67 -181v-463 q0 -65 84 -90q47 -16 47 -37q0 -18 -41 -18h-6q-41 0 -82 5t-76 5t-74 -5t-80 -5h-6q-41 0 -41 18q0 21 47 37q80 23 80 90v418q0 74 -60.5 129t-129.5 55q-43 0 -93 -11.5t-77 -33.5q-33 -27 -44.5 -56t-11.5 -91v-416q1 -38 21 -55.5t57 -28.5q47 -16 47 -37 q0 -18 -41 -18h-6q-41 0 -77.5 5t-71.5 5t-77 -5t-83 -5h-6q-41 0 -41 18z" />
<glyph unicode="i" horiz-adv-x="501" d="M49 12q0 21 47 37q55 16 71 32q17 18 17 46v444q0 131 -96 150q-15 3 -16 25.5t14 25.5q30 7 57 16.5t53 23t41.5 22.5t44.5 27.5t40 25.5q4 2 10 2q14 0 14 -10q-18 -189 -18 -277v-475q0 -16 6 -28.5t12 -19t22 -14t22 -9t26 -7.5q47 -16 47 -37q0 -18 -41 -18h-6 q-41 0 -83 5t-77 5t-77 -5t-83 -5h-6q-41 0 -41 18zM139 1153q0 44 30 74t73 30q44 0 74 -30t30 -74q0 -43 -30 -72.5t-74 -29.5q-43 0 -73 29.5t-30 72.5z" />
<glyph unicode="j" horiz-adv-x="434" d="M-72 -567q0 10 9 21t14 14q83 20 135 129q59 125 59 544v430q0 131 -94 150q-15 3 -15.5 25.5t13.5 25.5q30 7 56.5 16.5t54 23.5t42.5 22.5t46 27.5t41 25q2 2 8 2q14 0 14 -10q-16 -188 -16 -316v-377q0 -325 -62 -497q-37 -100 -118 -182t-144 -95h-10 q-12 0 -22.5 5.5t-10.5 15.5zM104 1153q0 44 30 74t73 30q44 0 74 -30t30 -74q0 -43 -30 -72.5t-74 -29.5q-43 0 -73 29.5t-30 72.5z" />
<glyph unicode="k" horiz-adv-x="960" d="M39 12q0 21 47 37q26 8 42 15t31 25t15 44v1026q0 72 -21.5 105.5t-72.5 44.5q-15 3 -15.5 25.5t13.5 25.5q36 9 74 20.5t59 19.5t59 23t49 19q1 0 2.5 1t2.5 1q7 0 12 -14q1 -8 -3.5 -39.5t-10 -96t-5.5 -143.5v-678q0 -10 3 -13t10 -1q29 6 71 43q79 68 147 136t87 95 q8 11 -8.5 24t-42.5 17q-25 8 -25 17q0 11 10.5 18t19 9t15.5 1h101q44 0 116 12t80 13q5 0 11 -4.5t6 -10.5q0 -12 -13.5 -26t-27.5 -17q-62 -12 -144 -63q-45 -27 -262 -217q-8 -6 -10 -17.5t4 -17.5q73 -89 168 -191.5t133 -136.5q32 -30 83 -59t85 -39q47 -16 47 -37 q0 -18 -41 -18h-6q-38 0 -117 5t-131 5h-119q-47 0 -47 18q0 25 47 37q32 9 40 26.5t-11 41.5l-258 297q-4 5 -12.5 2t-8.5 -14q-2 -39 -2 -132q0 -96 2 -143q0 -38 18 -56t54 -28q47 -16 47 -37q0 -18 -47 -18q-41 0 -74.5 5t-68.5 5t-77 -5t-83 -5q-47 0 -47 18z" />
<glyph unicode="l" horiz-adv-x="493" d="M39 12q0 21 47 37q55 16 71 32q17 18 17 46v1032q0 131 -94 150q-15 3 -15.5 25.5t13.5 25.5q36 9 72.5 20.5t59 20t56.5 22t49 19.5q1 0 2 1t2 1q4 0 8.5 -4.5t4.5 -9.5q0 -6 -3 -38.5t-6.5 -96t-3.5 -144.5q0 -171 -1 -493t-1 -531q0 -19 6 -32t22 -22t24 -12t31 -10 q4 -1 6 -2q47 -16 47 -37q0 -18 -41 -18h-6q-41 0 -83 5t-77 5t-77 -5t-83 -5h-6q-41 0 -41 18z" />
<glyph unicode="m" horiz-adv-x="1593" d="M49 12q0 21 47 37q19 6 25.5 8t22 9t21.5 13.5t12 19t7 28.5v440q0 65 -16 101.5t-64 46.5q-15 3 -15.5 25.5t13.5 25.5q19 5 37.5 11t31.5 10.5t30.5 13.5t25.5 13t26.5 16t23 14.5t25.5 17.5t24 17l4 2q4 0 14 -15q0 -8 -4 -48.5t-5 -66.5t3 -40q148 137 324 137 q74 0 119.5 -29.5t70.5 -93.5q10 -23 20 -23q11 0 39 31q38 45 121 80t174 35q101 0 157 -62.5t56 -181.5v-477q0 -16 6 -28.5t12 -19t22 -14t22 -9t26 -7.5q47 -16 47 -37q0 -18 -41 -18h-6q-41 0 -85 5t-79 5t-78.5 -5t-84.5 -5h-6q-41 0 -41 18q0 21 47 37q55 16 71 32 q17 18 17 46v430q0 75 -49.5 135t-114.5 60q-108 0 -178 -56q-23 -16 -40.5 -53.5t-17.5 -93.5v-422q0 -24 14.5 -40t30 -22.5t40.5 -13.5q5 -1 8 -2q47 -16 47 -37q0 -18 -41 -18h-6q-41 0 -84 5t-78 5t-79 -5t-85 -5h-6q-41 0 -41 18q0 21 47 37q56 16 72 32q18 18 18 46 v430q0 75 -49.5 135t-114.5 60q-108 0 -178 -56q-55 -40 -55 -147v-422q1 -16 7 -28.5t12 -19t21.5 -13.5t22 -9t25.5 -8q47 -16 47 -37q0 -18 -41 -18h-6q-41 0 -83 5t-77 5t-77 -5t-83 -5h-6q-41 0 -41 18z" />
<glyph unicode="n" horiz-adv-x="1079" d="M49 12q0 21 47 37q19 6 25.5 8t22 9t21.5 13.5t12 19t7 28.5v440q0 63 -17.5 100.5t-66.5 47.5q-15 3 -16 25.5t14 25.5q109 26 226 113q2 2 4 2q8 0 14 -19q0 -9 -5.5 -47t-8 -63.5t1.5 -38.5q56 47 153.5 91t184.5 44q104 0 170.5 -64t66.5 -180v-477q0 -16 6 -28.5 t12 -19t22 -14t22 -9t26 -7.5q47 -16 47 -37q0 -18 -41 -18h-6q-41 0 -85 5t-79 5t-77.5 -5t-83.5 -5h-6q-41 0 -41 18q0 21 47 37q55 16 71 32q17 18 17 46v430q0 88 -51 139.5t-134 51.5q-55 0 -96.5 -8.5t-76 -30t-52.5 -61.5t-18 -99v-422q1 -16 7 -28.5t12 -19 t21.5 -13.5t22 -9t25.5 -8q47 -16 47 -37q0 -18 -41 -18h-6q-41 0 -83 5t-77 5t-77 -5t-83 -5h-6q-41 0 -41 18z" />
<glyph unicode="o" horiz-adv-x="1013" d="M72 383q0 113 58.5 220t163 176t226.5 69q87 0 166 -33.5t134.5 -89.5t88.5 -131.5t33 -157.5q0 -92 -30 -174.5t-86 -148t-146 -104t-201 -38.5q-173 0 -290 116.5t-117 295.5zM240 430q0 -102 35.5 -192.5t101.5 -147.5t145 -57q154 0 211 112q41 78 41 242 q0 99 -35 189t-102.5 149t-151.5 59q-59 0 -102 -18.5t-78 -63.5q-65 -83 -65 -272z" />
<glyph unicode="p" horiz-adv-x="1062" d="M39 -565q0 21 47 37q55 16 70 31q18 18 18 46v1039q0 19 -8.5 49t-31.5 62t-54 38q-15 3 -15.5 25.5t13.5 25.5q89 21 237 82q1 0 2 1t2 1q8 0 13 -14q1 -9 -3.5 -46t-6.5 -62t2 -37q39 39 142 87t189 48q77 0 142 -33.5t107 -89t65 -125.5q22 -66 22 -137v-6 q-1 -120 -62 -231.5t-168 -183t-231 -71.5q-46 0 -110.5 20t-93.5 46q-4 0 -6.5 -42.5t-2.5 -62.5v-383q0 -16 7.5 -28t24 -20t27 -12t33.5 -10t27 -7q47 -16 47 -37q0 -19 -45 -19q-41 0 -99 5.5t-93 5.5t-79 -5.5t-85 -5.5q-43 0 -43 19zM319 551q-1 -66 -1 -125 q0 -105 4 -190q6 -109 49 -150q55 -51 190 -51q26 0 58.5 10.5t69.5 37.5t67.5 66.5t50.5 103.5t20 142q0 90 -21 158t-51 105.5t-70.5 60.5t-72.5 30t-63 7q-98 0 -176 -60q-49 -36 -54 -145z" />
<glyph unicode="q" horiz-adv-x="1069" d="M72 365q0 216 140 349.5t366 133.5q44 0 107.5 -7t90.5 -16q18 -6 32.5 -11.5t20.5 -8t11 -2.5q13 0 21.5 6.5t20 25t17.5 25.5q2 2 8 2q11 0 23.5 -7t9.5 -15q-25 -109 -25 -236v-1055q0 -13 6 -24t12 -17.5t21 -13t21.5 -9t25 -7.5t21.5 -6q47 -16 47 -37 q0 -19 -41 -19h-6q-41 0 -92 5.5t-86 5.5t-77 -5.5t-83 -5.5h-6q-41 0 -41 19q0 21 47 37q55 16 70 31q18 18 18 46v441q0 61 -12 61q-9 0 -19 -10q-30 -27 -100.5 -48.5t-159.5 -21.5q-109 0 -200.5 44.5t-150 136t-58.5 213.5zM240 420q0 -78 21.5 -142.5t55 -106t76 -70 t84 -40.5t80.5 -12q115 0 176 47q21 16 29 57.5t12 116.5v80q0 162 -2 213q-3 92 -74 155.5t-172 63.5q-118 0 -202 -96.5t-84 -265.5z" />
<glyph unicode="r" horiz-adv-x="684" d="M59 12q0 21 47 37q20 6 30 10t23 12.5t18.5 22t6.5 33.5v440q0 131 -84 148q-15 3 -15.5 25.5t13.5 25.5q36 9 73 25t58 27.5t54.5 33.5t42.5 27q1 0 2 1t2 1q7 0 12 -15q0 -54 -6 -153q0 -4 2 -4q3 0 12 10t20.5 23t16.5 18q45 41 97 64.5t91 23.5q42 0 70.5 -19 t28.5 -47q0 -33 -25.5 -69.5t-54.5 -36.5q-17 0 -59.5 18.5t-63.5 18.5q-59 0 -101 -39.5t-42 -132.5v-404q1 -19 11.5 -34.5t30 -26t33.5 -16t35 -11.5q47 -16 47 -37q0 -18 -41 -18h-6q-41 0 -89 5t-83 5t-77 -5t-83 -5h-6q-41 0 -41 18z" />
<glyph unicode="s" horiz-adv-x="661" d="M61 170q0 18 35 18q28 0 31 -14q11 -53 66 -100t108 -47q152 0 152 145q0 51 -35 90t-113 94q-90 64 -144.5 127t-54.5 131q0 93 72 163.5t211 70.5q56 0 100 -14.5t62 -32.5q35 -43 35 -160q0 -8 -13 -8q-16 0 -42 15t-27 28q-3 40 -43 79.5t-88 39.5q-76 0 -109 -43 t-33 -97q0 -25 16.5 -51.5t48 -52.5t54 -41.5t56.5 -36.5q37 -24 58.5 -39.5t59 -50.5t57 -77t19.5 -89q0 -116 -67.5 -181t-227.5 -65q-77 0 -142 25.5t-75 48.5q-24 49 -27 125z" />
<glyph unicode="t" horiz-adv-x="643" d="M76 759q0 9 6 11q50 14 79.5 34t67.5 58q7 7 20.5 32t26 44.5t19.5 19.5q29 0 29 -20v-90q0 -29 45 -29h233q16 0 16 -49t-16 -49h-203h-28t-20.5 -1t-15 -1.5t-9.5 -3.5t-6 -4.5t-2.5 -7.5t-1 -9.5t0.5 -13.5v-16v-388q0 -104 40 -148t96 -44q102 0 153 39q12 9 18 -14 q2 -8 2 -14q0 -8 -3 -13q-17 -30 -92 -70.5t-146 -40.5q-98 0 -154.5 60.5t-56.5 183.5v475q0 11 -3.5 17.5t-12 9t-16 3t-22 0.5t-24.5 1q-6 1 -12 13q-8 14 -8 25z" />
<glyph unicode="u" horiz-adv-x="1079" d="M59 778q0 29 31 35q39 1 69.5 5t46 7t46 11t49.5 12q32 3 29 -29q-13 -102 -13 -157v-400q0 -73 53 -129.5t119 -56.5q63 0 100.5 7t72.5 34q92 68 92 153v375q0 29 -14.5 50.5t-37.5 32t-42.5 15t-38.5 5.5q-14 0 -31 7.5t-17 26.5q0 16 18 23.5t30 7.5q61 3 99 5.5 t63.5 6.5t35.5 6t31 8.5t35 10.5h4q14 0 22.5 -12.5t1.5 -24.5q-5 -10 -10.5 -63t-5.5 -82v-435q0 -72 7 -106.5t30 -34.5q64 0 94 6q10 2 20.5 -3.5t10.5 -22.5q0 -15 -9.5 -22t-19.5 -7q-107 -14 -239 -70q-24 -12 -50 -12q-6 0 -6 6q-1 16 5 71q5 49 5 69v10 q-78 -77 -159 -111.5t-178 -34.5q-104 0 -169 64t-65 180v416q0 44 -21 71t-67 46q-27 9 -27 30z" />
<glyph unicode="v" horiz-adv-x="897" d="M10 811q0 18 41 18h6q41 0 75 -5t69 -5t70.5 5t76.5 5h6q41 0 41 -18q0 -21 -47 -37q-28 -8 -38 -54q-4 -18 -4 -35q0 -26 9 -50l152 -408q5 -15 8.5 -20t7.5 -1t9 19l147 379q14 41 14 75q0 19 -5 37q-13 48 -46 58q-47 16 -47 37q0 18 41 18h6q10 0 56 -5t87 -5 q40 0 70 5t45 5h6q41 0 41 -18q0 -21 -47 -37q-32 -9 -69 -48t-58 -89l-160 -385l-75 -205q-46 -92 -56 -92q-7 0 -20.5 29.5t-20.5 50.5l-249 639q-33 82 -95 100q-47 16 -47 37z" />
<glyph unicode="w" horiz-adv-x="1402" d="M10 811q0 18 41 18h6q41 0 75 -5t69 -5t79 5t85 5h6q41 0 41 -18q0 -21 -47 -37q-29 -9 -39 -53q-4 -16 -4 -32q0 -26 10 -50l155 -401q14 -40 31 2l135 329q14 34 14 64q0 35 -19 67q-35 58 -85 74q-47 12 -47 37q0 18 41 18h6q10 0 58.5 -5t89.5 -5q40 0 95.5 5t70.5 5 h6q41 0 41 -18q0 -21 -47 -37q-15 -4 -25.5 -9t-22.5 -15t-17 -23.5t-3.5 -36t12.5 -51.5l154 -395q6 -15 11 -20t10.5 -1t11.5 19l155 362q15 33 15 62q0 12 -2 22q-8 36 -27.5 57.5t-42.5 28.5q-47 16 -47 37q0 18 41 18h6q25 0 67 -5t80 -5q40 0 69 5t44 5h6q41 0 41 -18 q0 -21 -47 -37q-57 -17 -109 -135l-280 -672q-7 -14 -19 -14q-9 0 -16 14l-213 529q-7 17 -12 17.5t-15 -19.5l-223 -527q-7 -14 -16 -14q-11 0 -14 14l-285 707q-14 38 -44 64t-63 36q-47 16 -47 37z" />
<glyph unicode="x" horiz-adv-x="880" d="M20 10q0 24 48 37q30 9 59.5 34t77.5 83l174 217q13 16 13 24.5t-9 22.5l-166 258q-26 41 -45 59t-49 27q-47 12 -47 37q0 18 47 18q37 0 73 -4t89 -4q25 0 53 2t51 2q47 0 47 -18q0 -26 -43 -37q-21 -6 -29 -16.5t-3.5 -29t22.5 -46.5l82 -127q11 -18 16 -10l101 153 q7 11 11.5 22t5 22.5t-6 20.5t-21.5 13q-47 16 -47 37q0 18 47 18q8 0 46.5 -3t56.5 -3q41 0 77.5 5t45.5 5h6q41 0 41 -18q0 -21 -47 -37q-98 -29 -146 -96l-133 -189q-8 -12 2 -26l199 -330q26 -41 45 -59t49 -27q47 -12 47 -37q0 -18 -41 -18h-6q-37 0 -75.5 4t-90.5 4 q-25 0 -75.5 -1t-73.5 -1q-47 0 -47 18q0 21 47 37q15 4 25 8t21.5 11.5t16.5 16.5t3.5 23t-11.5 31l-111 189q-9 16 -16 6l-137 -201q-5 -8 -8.5 -24.5t2 -35.5t24.5 -24q47 -16 47 -37q0 -18 -47 -18q-10 0 -50 2t-58 2q-41 0 -81 -5t-50 -5h-7q-41 0 -41 18z" />
<glyph unicode="y" horiz-adv-x="897" d="M10 811q0 18 41 18h6q41 0 75 -5t69 -5t71.5 5t77.5 5h6q41 0 41 -18q0 -21 -47 -37q-30 -9 -42 -53q-4 -18 -4 -36q0 -24 9 -46l162 -401q17 -40 31 2l137 364q11 28 11 60q0 21 -4 44q-13 57 -44 66q-47 16 -47 37q0 18 41 18h6q10 0 54 -5t85 -5q40 0 70 5t45 5h6 q41 0 41 -18q0 -21 -47 -37q-31 -9 -66 -48.5t-55 -88.5l-278 -664q-2 -6 -33.5 -81.5t-79 -190.5t-84.5 -201q-38 -84 -133 -84q-39 0 -71.5 21t-32.5 53q0 61 55 61q16 0 43.5 -6t38.5 -6q25 0 39 23q36 62 90.5 178.5t95.5 226.5q7 21 6.5 53t-8.5 54l-237 600 q-34 83 -93 100q-47 16 -47 37z" />
<glyph unicode="z" horiz-adv-x="772" d="M51 25q0 16 76 118q151 218 381 582q15 20 -19 20h-239q-11 0 -21 -5.5t-21 -18t-19.5 -23t-22.5 -30t-23 -31.5q-1 -1 -9.5 -12.5t-14.5 -18t-15 -13.5t-16 -7q-13 0 -16 16.5t4 28.5q12 30 23.5 88.5t11.5 95.5q0 14 11.5 25.5t18.5 11.5q9 0 31 -18q16 -13 88 -13 q17 0 44 1t34 1q194 0 381 6q8 0 13 -9t1 -15q-35 -42 -78 -103l-395 -600q-7 -11 3.5 -20.5t21.5 -9.5h239q42 0 82 39.5t94 117.5q1 1 6 11.5t9.5 17.5t12.5 14t17 7q17 0 17 -48q0 -25 -57 -213q-2 -8 -11.5 -18t-17.5 -10q-9 0 -154.5 5t-277.5 5q-31 0 -90 -5t-74 -5 q-7 0 -18 13.5t-11 21.5z" />
<glyph unicode="{" horiz-adv-x="763" d="M51 578q0 5 3 7t10 3t10 2q89 33 141.5 92.5t52.5 144.5q0 61 -13 176t-13 189q0 69 36.5 123t97.5 85.5t132 47.5t147 16q14 0 25.5 -8.5t11.5 -21.5q0 -25 -53 -25q-51 0 -96.5 -11.5t-84 -35.5t-61 -65t-22.5 -95q0 -72 13 -184.5t13 -169.5q0 -63 -39 -121t-86 -92.5 t-96 -54.5q-9 -5 4 -9q64 -17 140.5 -98t76.5 -172q0 -57 -13 -169.5t-13 -184.5q0 -54 22.5 -95t61 -65t84 -35.5t96.5 -11.5q53 0 53 -25q0 -13 -11.5 -21.5t-25.5 -8.5q-76 0 -147 16t-132 47.5t-97.5 85.5t-36.5 123q0 73 13 188t13 177q0 85 -52.5 144.5t-141.5 92.5 q-23 9 -23 19z" />
<glyph unicode="|" horiz-adv-x="532" d="M205 -563v1947q0 29 37.5 46.5t56.5 17.5q11 0 20 -8.5t9 -18.5v-1964q0 -15 -12.5 -25.5t-31 -15t-32 -6.5t-23.5 -2q-9 0 -16.5 9t-7.5 20z" />
<glyph unicode="}" horiz-adv-x="763" d="M72 -285q0 25 53 25q51 0 96.5 11.5t84 35.5t61 65t22.5 95q0 72 -13.5 184.5t-13.5 169.5q0 91 77 172t141 98q10 5 4 9q-35 14 -71.5 38t-71.5 57.5t-57 79t-22 93.5q0 57 13.5 169.5t13.5 184.5q0 54 -22.5 95t-61 65t-84 35.5t-96.5 11.5q-53 0 -53 25 q0 13 11.5 21.5t25.5 8.5q76 0 146.5 -16t131.5 -47t98 -85.5t37 -123.5q0 -74 -13 -189t-13 -176q0 -85 52 -144.5t142 -92.5q2 -1 6.5 -2t8 -1t6 -2.5t2.5 -6.5q0 -10 -23 -19q-90 -33 -142 -92.5t-52 -144.5q0 -62 13 -177t13 -188q0 -69 -37 -123.5t-98 -85.5 t-131.5 -47t-146.5 -16q-14 0 -25.5 8.5t-11.5 21.5z" />
<glyph unicode="~" horiz-adv-x="1024" d="M102 571q38 70 115.5 139.5t140.5 69.5q38 0 93 -24.5t118.5 -49t120.5 -24.5q42 0 110.5 31.5t94.5 64.5q4 4 6 4q8 0 16.5 -17t4.5 -24q-31 -58 -110.5 -133.5t-145.5 -75.5q-47 0 -166 49.5t-176 49.5q-34 0 -99.5 -33.5t-91.5 -62.5q-5 -5 -13.5 2t-14.5 17.5 t-3 16.5z" />
<glyph unicode="&#xa2;" horiz-adv-x="843" d="M72 385q0 176 117.5 309t297.5 150l11 102q1 17 14 26t31 9q12 0 20 -11.5t6 -23.5l-10 -100q146 -7 219 -98q32 -39 -41 -86q-18 -9 -26 -9q-33 0 -43 21q-48 84 -117 102l-70 -682q10 -2 31 -2q51 0 89.5 5t80.5 25.5t66 57.5q7 10 18 10q12 0 21.5 -11t3.5 -21 q-57 -95 -135 -139.5t-189 -47.5l-10 -104q-1 -13 -13 -22t-26 -9t-24 9t-9 22l12 108q-133 24 -229 142t-96 268zM209 455q0 -130 54.5 -220.5t146.5 -125.5l71 677h-4q-78 0 -141 -51t-95 -126t-32 -154z" />
<glyph unicode="&#xa3;" horiz-adv-x="1003" d="M-20 35q0 34 61.5 85.5t134.5 65.5q11 2 23 25q25 46 42.5 158.5t22.5 242.5l-172 -12q-10 0 -19.5 8t-9.5 17q0 15 15.5 33.5t34.5 19.5l153 10v10q0 107 28 209.5t81 188.5t140.5 139t195.5 53q207 0 207 -168q0 -38 -32 -76t-55 -38q-10 0 -15.5 3.5t-7 11t-1.5 14.5 t1 21t1 23q-2 52 -46 101t-95 49q-101 0 -161 -141t-61 -388l273 19q11 0 20.5 -9.5t5.5 -19.5q-25 -49 -63 -49l-240 -16q-14 -125 -68.5 -252.5t-97.5 -163.5q-5 -3 -3 -11t12 -8q82 0 151.5 -19.5t110 -42.5t100 -42.5t125.5 -19.5q46 0 81.5 33.5t35.5 78.5 q0 20 -13 52.5t-14 52.5q0 9 0.5 15t2 13t6 10.5t10.5 2.5q44 -4 70 -35t26 -74q0 -118 -94 -203.5t-219 -85.5q-94 0 -161 29t-167 98q-32 23 -73.5 41.5t-57.5 18.5q-10 0 -40 -32t-50 -69q-21 -41 -74 -41q-26 0 -43.5 18.5t-17.5 45.5z" />
<glyph unicode="&#xa5;" horiz-adv-x="1267" d="M10 1315q0 22 60 22q26 0 107 -3t132 -3q34 0 89.5 2t74.5 2q59 0 59 -22q0 -13 -15 -21t-52 -20q-15 -4 -27 -12.5t-22.5 -22.5t-8.5 -37.5t19 -52.5l190 -338q26 -45 39 -62.5t23 -17.5q15 0 55 67q5 9 8 13q115 168 170 285q25 54 10.5 109t-57.5 67q-67 18 -67 41 q0 22 59 22q31 0 78 -1t76 -1q42 0 109 3t87 3q60 0 60 -22q0 -27 -68 -41q-81 -16 -205 -197q-49 -75 -106.5 -167t-90.5 -146l-32 -55q-31 -49 -37 -64h250q11 0 21 -9.5t6 -19.5q-22 -43 -64 -43h-223v-98h258q11 0 20.5 -9.5t5.5 -19.5q-22 -43 -63 -43h-221v-182 q0 -69 41.5 -113.5t118.5 -58.5q67 -11 67 -37q0 -22 -59 -22q-58 0 -126.5 5t-113.5 5q-50 0 -127.5 -5t-134.5 -5q-59 0 -59 22q0 26 67 37q160 28 160 172l2 182h-258q-10 0 -19.5 8t-9.5 17q0 15 15 31t34 16h238v49q0 21 -4 49h-254q-10 0 -19.5 8t-9.5 17q0 15 15 31 t34 16h217q-17 29 -18 31l-254 393q-81 120 -122 160q-34 33 -60 41q-68 21 -68 45z" />
<glyph unicode="&#xa8;" horiz-adv-x="0" d="M-647 1114q0 38 32 70.5t70 32.5t70.5 -32.5t32.5 -70.5t-32.5 -70t-70.5 -32t-70 32t-32 70zM-285 1114q0 38 32.5 70.5t70.5 32.5t70 -32.5t32 -70.5t-32 -70t-70 -32t-70.5 32t-32.5 70z" />
<glyph unicode="&#xa9;" horiz-adv-x="1361" d="M88 670q0 168 83.5 311t226.5 226t311 83q126 0 241 -49t198 -132t132 -198t49 -241q0 -168 -83.5 -311t-227 -226.5t-311.5 -83.5t-310.5 83.5t-225.5 226.5t-83 311zM170 670q0 -110 42 -212t114 -176t171.5 -118.5t209.5 -44.5q148 0 272.5 74.5t196 201.5t71.5 275 q0 146 -72 270t-196 196t-270 72t-270 -72t-196.5 -196t-72.5 -270zM385 672q0 98 56 177t145.5 121t191.5 42q51 0 109 -13q8 -3 39 -10t39 -10t12 -29q7 -57 2 -112q0 -7 -7 -15.5t-14 -7.5q-12 0 -24 31q-16 45 -61.5 74.5t-112.5 29.5q-102 0 -167 -78.5t-65 -193.5 q0 -122 64.5 -211.5t177.5 -89.5q134 0 176 84q7 14 17.5 22.5t17.5 8.5q10 0 10 -27q0 -19 -15 -55.5t-26 -49.5q-45 -45 -215 -45q-143 0 -246.5 109t-103.5 248z" />
<glyph unicode="&#xab;" horiz-adv-x="1384" d="M210.5 410.5q-11.5 28.5 0.5 35.5q167 100 264.5 170t198.5 166q31 31 57 37h2q11 0 11.5 -17t-9.5 -32q-41 -62 -82 -112.5t-85.5 -92t-70.5 -63.5t-73 -58q-12 -9 -12 -14t12 -14q86 -67 160 -142t151 -192q8 -15 3.5 -29t-15.5 -14h-4q-26 6 -57 37 q-101 98 -212.5 175.5t-207.5 121.5q-20 9 -31.5 37.5zM644.5 410.5q-11.5 28.5 0.5 35.5q167 100 264.5 170t198.5 166q31 31 57 37h2q11 0 11.5 -17t-9.5 -32q-41 -62 -82 -112.5t-85.5 -92t-70.5 -63.5t-73 -58q-12 -9 -12 -14t12 -14q86 -67 160 -142t151 -192 q8 -15 3.5 -29t-15.5 -14h-4q-26 6 -57 37q-101 98 -212.5 175.5t-207.5 121.5q-20 9 -31.5 37.5z" />
<glyph unicode="&#xad;" horiz-adv-x="561" d="M59 360q10 109 33 111q295 40 393 51q17 0 17 -12q-8 -107 -43 -111q-266 -39 -379 -51h-8q-13 0 -13 12z" />
<glyph unicode="&#xae;" horiz-adv-x="690" d="M109 1112q0 91 64 155t155 64t155 -64t64 -155t-64 -155t-155 -64t-155 64t-64 155zM150 1112q0 -74 52 -126t126 -52t126 52t52 126t-52 126t-126 52t-126 -52t-52 -126zM217 1008q0 10 2 10q33 13 33 24v127q0 7 -8 15.5t-17 11.5q-2 0 -3.5 6.5t-1 13t4.5 7.5 q52 12 99 12q39 0 62.5 -18t23.5 -46q0 -23 -14 -35.5t-25 -15.5q-4 0 4 -20t22.5 -44t26.5 -32q23 -23 23 -25q0 -6 -25 -6q-59 0 -88 88q-1 5 -9 9t-12 4q-12 0 -12 -7v-45q0 -16 31 -22q3 -2 3 -11.5t-3 -9.5h-115q-2 0 -2 9zM303 1141q0 -8 3 -10.5t11 -2.5 q16 0 29.5 10t13.5 23q0 17 -10.5 31t-23.5 14q-23 0 -23 -18v-47z" />
<glyph unicode="&#xb4;" horiz-adv-x="782" d="M293 946q0 20 72 152t118 207q34 55 103 55q28 0 49.5 -17.5t21.5 -39.5q0 -16 -33 -50t-106.5 -113t-142.5 -175q-10 -15 -27 -30t-29 -15q-26 0 -26 26z" />
<glyph unicode="&#xb8;" horiz-adv-x="516" d="M154 -459q3 11 11.5 17t18.5 2q54 -21 101 -21q39 0 59.5 25.5t20.5 66.5q0 52 -39 79t-99 30q-22 0 -32 -4h-5q-16 0 -27.5 14.5t1.5 36.5l180 229h64l-80 -104q-8 -14 -2 -25.5t16 -15.5q53 -23 89 -65t36 -91q0 -58 -29.5 -112t-71 -88.5t-84 -55t-71.5 -20.5 q-39 0 -52 29.5t-5 72.5z" />
<glyph unicode="&#xbb;" horiz-adv-x="1384" d="M204 802q0 17 11 17h4q7 -2 13.5 -5t13.5 -7.5t10.5 -7.5t11 -9.5t8.5 -7.5q101 -96 198.5 -166t264.5 -170q12 -7 1 -35.5t-31 -37.5q-96 -44 -207.5 -121.5t-212.5 -175.5q-37 -32 -58 -37h-4q-12 0 -16.5 14t4.5 29q77 117 151 192t160 142q12 9 12 14t-12 14 q-47 36 -73 58t-70.5 63.5t-85.5 92t-82 112.5q-11 15 -11 32zM638 802q0 17 11 17h4q21 -5 58 -37q101 -96 198.5 -166t264.5 -170q12 -7 0.5 -35.5t-31.5 -37.5q-96 -44 -207.5 -121.5t-212.5 -175.5q-1 -1 -8.5 -7.5t-11 -9.5t-10.5 -7.5t-13.5 -7.5t-13.5 -5h-4 q-12 0 -17 14t4 29q41 62 83 114.5t84 93t73 67.5t72 59q12 9 12 14t-12 14q-63 49 -98.5 79t-98 98t-115.5 149q-11 15 -11 32z" />
<glyph unicode="&#x2c6;" horiz-adv-x="0" d="M-561.5 927q-5.5 12 2.5 31q117 234 160 310q37 59 57 59t57 -59q23 -39 63 -116.5t68 -135.5l29 -58q8 -19 2.5 -31t-18.5 -12q-17 0 -34 12t-26 25l-141 197l-143 -197q-28 -37 -58 -37q-13 0 -18.5 12z" />
<glyph unicode="&#x2da;" horiz-adv-x="0" d="M-430 1149q0 79 52.5 127.5t123.5 48.5q68 0 118 -47.5t50 -114.5q0 -77 -53 -129.5t-123 -52.5q-68 0 -118 50.5t-50 117.5zM-352 1165q0 -46 29 -88.5t69 -42.5q41 0 65.5 31t24.5 76q0 60 -27.5 96.5t-70.5 36.5q-37 0 -63.5 -30t-26.5 -79z" />
<glyph unicode="&#x2dc;" horiz-adv-x="0" d="M-647 1018q42 62 95.5 114t82.5 52q19 0 105.5 -14.5t113.5 -14.5q19 0 31 3t33 20t47 51q2 2 6 2q10 0 23 -15.5t8 -23.5q-37 -54 -91 -113t-81 -59q-19 0 -111 13.5t-119 13.5q-38 0 -112 -74q-2 -2 -5 -2q-10 0 -21.5 18.5t-4.5 28.5z" />
<glyph unicode="&#x400;" horiz-adv-x="1095" d="M47 12q0 25 68 37q79 14 115 48.5t36 105.5v921q0 73 -30 104.5t-107 45.5q-68 12 -68 41q0 22 60 22q78 0 185 -3t177 -3q108 0 267.5 3t177.5 3h18q34 0 37 -18q23 -126 25 -211q0 -8 -9.5 -13t-19.5 -5q-17 0 -23 20q-23 73 -47 100q-51 56 -137 56h-268 q-19 0 -41 -19.5t-25 -42.5q-2 -14 -5 -189t-3 -249q0 -45 21 -45h213q43 0 76 22t48 58q3 8 16.5 21.5t20.5 13.5q9 0 18.5 -10.5t8.5 -22.5q-6 -99 -6 -127t6 -125q0 -35 -18 -35t-31 16t-17 31q-23 71 -96 80q-74 12 -125 12q-28 0 -44.5 -1t-42 -6t-37.5 -18t-11 -34 q0 -14 6 -365q2 -80 32 -119.5t97 -39.5h213q16 0 77.5 12t78.5 25q42 33 86 129q10 20 29 20q12 -2 19.5 -8.5t6.5 -16.5q-11 -108 -35 -208q-3 -12 -5 -17t-8 -11.5t-15 -6.5q-138 0 -356.5 6t-313.5 6q-44 0 -111 -6t-125 -6q-59 0 -59 22zM305 1642q3 63 72 95 q23 10 41 10q25 0 65 -21q146 -75 336 -196q16 -10 17.5 -26t-11.5 -19q-8 -2 -22 -2q-11 0 -47 6q-124 35 -385 100q-66 14 -66 53z" />
<glyph unicode="&#x401;" horiz-adv-x="1095" d="M47 12q0 25 68 37q79 14 115 48.5t36 105.5v921q0 73 -30 104.5t-107 45.5q-68 12 -68 41q0 22 60 22q78 0 185 -3t177 -3q108 0 267.5 3t177.5 3h18q34 0 37 -18q23 -126 25 -211q0 -8 -9.5 -13t-19.5 -5q-17 0 -23 20q-23 73 -47 100q-51 56 -137 56h-268 q-19 0 -41 -19.5t-25 -42.5q-2 -14 -5 -189t-3 -249q0 -45 21 -45h213q43 0 76 22t48 58q3 8 16.5 21.5t20.5 13.5q9 0 18.5 -10.5t8.5 -22.5q-6 -99 -6 -127t6 -125q0 -35 -18 -35t-31 16t-17 31q-23 71 -96 80q-74 12 -125 12q-28 0 -44.5 -1t-42 -6t-37.5 -18t-11 -34 q0 -14 6 -365q2 -80 32 -119.5t97 -39.5h213q16 0 77.5 12t78.5 25q42 33 86 129q10 20 29 20q12 -2 19.5 -8.5t6.5 -16.5q-11 -108 -35 -208q-3 -12 -5 -17t-8 -11.5t-15 -6.5q-138 0 -356.5 6t-313.5 6q-44 0 -111 -6t-125 -6q-59 0 -59 22zM311 1544q0 46 33.5 79.5 t79.5 33.5t79.5 -33.5t33.5 -79.5t-33.5 -79t-79.5 -33t-79.5 33t-33.5 79zM700 1544q0 46 33.5 79.5t79.5 33.5t79.5 -33.5t33.5 -79.5t-33.5 -79t-79.5 -33t-79.5 33t-33.5 79z" />
<glyph unicode="&#x402;" horiz-adv-x="1372" d="M31 1103q-1 24 10 44q44 94 63 227q6 47 35 47q7 0 24 -22.5t27 -42.5q20 -37 144 -41q176 -6 303 -6q171 0 420 12q128 9 149 39q33 45 56 45q9 0 18 -10.5t6 -24.5q-35 -174 -33 -240q0 -18 -7 -34.5t-19 -16.5q-13 0 -21 10t-15 31.5t-7 22.5q-1 3 -7 17t-9 19 t-11.5 17t-18.5 17t-25 12t-36.5 9.5t-48.5 2.5q-237 0 -311 -8q-33 -5 -33 -88v-303q0 -51 4.5 -67.5t20.5 -16.5q12 0 16 2q101 55 240 55q195 0 314.5 -131t119.5 -381q0 -132 -46.5 -261t-115 -220.5t-141.5 -154.5t-133 -83q-77 -26 -138 -26q-33 0 -50 8t-17 18 q0 6 18.5 12t57.5 18.5t73 27.5q73 33 129 94.5t87 129.5t51 149t26 144t6 124q0 248 -63.5 356t-208.5 108q-68 0 -137.5 -16.5t-87.5 -28.5q-25 -17 -25 -57v-430q0 -72 41.5 -110t122.5 -52q67 -11 67 -37q0 -22 -59 -22q-58 0 -126.5 5t-113.5 5q-50 0 -127.5 -5 t-134.5 -5q-59 0 -59 22q0 26 67 37q80 14 119 51.5t39 110.5v930q0 81 -37 88q-39 8 -102 8h-84q-53 0 -100 -21t-68 -59q-12 -24 -37.5 -51t-46.5 -27q-13 0 -14 24z" />
<glyph unicode="&#x403;" horiz-adv-x="1058" d="M39 12q0 -22 59 -22q57 0 134.5 5t127.5 5q45 0 113.5 -5t126.5 -5q59 0 59 22q0 26 -67 37q-81 14 -121.5 48.5t-40.5 103.5v923q0 66 20 96.5t66 30.5h307q88 0 138 -55q24 -27 47 -100q9 -33 28 -33q9 0 17 11t6 20q-9 112 -12 225q0 18 -37 18q-1 0 -24.5 -3 t-29.5 -3h-594q-45 0 -114 3t-127 3q-60 0 -60 -22q0 -29 68 -41q77 -14 107 -45.5t30 -102.5v-925q0 -69 -39.5 -103.5t-120.5 -48.5q-67 -11 -67 -37zM363.5 1459q1.5 16 17.5 26q190 121 336 196q40 21 65 21q18 0 41 -10q69 -32 72 -95q0 -39 -66 -53 q-261 -65 -385 -100q-36 -6 -47 -6q-14 0 -22 2q-13 3 -11.5 19z" />
<glyph unicode="&#x404;" horiz-adv-x="1314" d="M92 692q0 178 84 331.5t231.5 245t323.5 91.5q124 0 256 -27q10 -2 73 -19t83 -18q3 0 5 -1t4 -3.5t3.5 -5t3 -6.5t2.5 -7.5t2 -9t2 -9t2 -9.5t2 -10q28 -140 31 -223q0 -12 -1 -21t-6.5 -18t-14.5 -8q-8 1 -14 6t-10.5 17.5t-5.5 17.5t-5 22q-11 43 -44.5 90t-60.5 72 l-4 4q-96 100 -272 100q-142 0 -247 -70.5t-160 -189t-62 -272.5q-2 -19 14 -19q80 -4 205 -4q49 0 233 4q181 4 244 21q9 3 16 -5t7 -18q0 -4 -30.5 -27.5t-71 -47t-60.5 -23.5q-150 0 -334 22t-207 23q-16 0 -16 -20q6 -96 36 -200.5t81 -202.5t132.5 -163.5t176.5 -70.5 h29q180 0 319 125q55 50 86 137q6 19 19 35t22 16h2q11 -1 18 -16.5t7 -34.5q0 -78 -33 -189q-19 -60 -115 -94q-107 -41 -375 -41q-134 0 -249.5 61t-192.5 162t-120.5 231t-43.5 269z" />
<glyph unicode="&#x405;" horiz-adv-x="952" d="M84 285q-2 14 12.5 37.5t30.5 23.5q20 0 61 -135q28 -89 100.5 -132.5t168.5 -43.5q111 0 173 74.5t62 187.5q0 93 -75.5 174.5t-221.5 179.5q-124 83 -192 168.5t-68 198.5q0 138 116.5 240t295.5 102q58 0 114 -10t90.5 -20.5t39.5 -10.5q12 0 21 -14.5t13 -32.5 q2 -11 6.5 -40.5t9.5 -73.5t2.5 -76.5t-14.5 -32.5q-28 0 -47 16.5t-24 40.5q-15 87 -78.5 136.5t-151.5 49.5q-99 0 -167 -60.5t-68 -160.5q0 -46 25.5 -92t74 -89t83.5 -69t89 -61l54 -36t56 -41t57.5 -49.5t50 -55.5t43.5 -65.5t27 -74t11 -84.5q0 -51 -14.5 -103 t-47.5 -104t-81 -91.5t-121.5 -64t-161.5 -24.5q-167 0 -274 49q-35 16 -43 35q-32 66 -37 234z" />
<glyph unicode="&#x406;" horiz-adv-x="696" d="M39 12q0 26 67 37q81 14 120.5 48.5t39.5 103.5v925q0 71 -30 102.5t-107 45.5q-68 12 -68 41q0 22 60 22q58 0 126 -3t113 -3q41 0 103.5 3t120.5 3q59 0 59 -22q0 -29 -68 -41q-79 -14 -112 -46t-33 -102v-925q0 -69 40.5 -103.5t121.5 -48.5q67 -11 67 -37 q0 -22 -59 -22q-58 0 -126.5 5t-113.5 5q-50 0 -127.5 -5t-134.5 -5q-59 0 -59 22z" />
<glyph unicode="&#x407;" horiz-adv-x="696" d="M39 12q0 26 67 37q81 14 120.5 48.5t39.5 103.5v925q0 71 -30 102.5t-107 45.5q-68 12 -68 41q0 22 60 22q58 0 126 -3t113 -3q41 0 103.5 3t120.5 3q59 0 59 -22q0 -29 -68 -41q-79 -14 -112 -46t-33 -102v-925q0 -69 40.5 -103.5t121.5 -48.5q67 -11 67 -37 q0 -22 -59 -22q-58 0 -126.5 5t-113.5 5q-50 0 -127.5 -5t-134.5 -5q-59 0 -59 22zM63 1595q0 46 33.5 79.5t79.5 33.5t79.5 -33.5t33.5 -79.5t-33.5 -79t-79.5 -33t-79.5 33t-33.5 79zM453 1595q0 46 33 79.5t79 33.5t79.5 -33.5t33.5 -79.5t-33.5 -79t-79.5 -33t-79 33 t-33 79z" />
<glyph unicode="&#x408;" horiz-adv-x="614" d="M-141 -324q0 42 22.5 77.5t50.5 35.5q39 0 61.5 -12t41.5 -41q40 -60 96 -60q135 0 135 324v1128q1 70 -28.5 101t-106.5 45q-68 12 -68 41q0 22 60 22q58 0 126 -3t113 -3q34 0 83.5 3t109.5 3q59 0 59 -22q0 -30 -67 -41q-73 -13 -94 -42t-23 -104v-837 q0 -125 -7 -217.5t-13.5 -142t-26 -96.5t-27 -59t-34.5 -50q-94 -136 -252 -136q-95 0 -153 26t-58 60z" />
<glyph unicode="&#x409;" horiz-adv-x="1822" d="M-4 16q0 26 67 47q61 18 105 52.5t72 105.5l383 963q19 57 20 61q3 10 4 24.5t1.5 23.5t2.5 10q15 5 37.5 16t28.5 14q13 6 25.5 16t20 16.5t11.5 6.5q11 0 21 -29l192 -593q0 -2 0.5 -4.5t2.5 -10.5t5 -11.5t9.5 -7t15.5 2.5q44 22 137 36.5t176 14.5q190 0 299 -92.5 t109 -267.5q0 -87 -38 -160t-94.5 -119.5t-125 -79t-127 -46t-103.5 -13.5q-9 0 -55 5.5t-115 4.5q-44 0 -112.5 -1t-89.5 -1q-60 0 -60 23q0 22 68 40q80 21 99 56t-3 96l-268 893q-12 37 -19 37q-4 0 -16 -35l-317 -901q-19 -52 16.5 -92.5t97.5 -55.5q68 -17 68 -41 q0 -22 -60 -22q-14 0 -78.5 2t-107.5 2q-48 0 -131.5 -6t-114.5 -6q-59 0 -59 26zM1022.5 653.5q-1.5 -9.5 1.5 -15.5l2 -7l109 -332q10 -32 17.5 -52t23.5 -57.5t31 -60t36 -41t43 -18.5q115 0 192.5 88.5t77.5 220.5q0 159 -88.5 241t-253.5 82q-29 0 -99 -12.5t-83 -21.5 q-8 -5 -9.5 -14.5z" />
<glyph unicode="&#x40a;" horiz-adv-x="1982" d="M76 12q0 26 67 37q74 13 98.5 45.5t24.5 108.5v925q0 77 -18 105t-90 41q-68 12 -68 41q0 22 60 22q59 0 116 -3t94 -3q39 0 99 3t119 3t59 -22q0 -29 -68 -41q-75 -13 -107 -48.5t-32 -97.5v-348q0 -18 29 -18h606q14 0 14 24v344q0 59 -31 95t-104 49q-67 11 -67 41 q0 22 59 22q58 0 126 -3t112 -3q32 0 79 3t107 3q59 0 59 -22q0 -30 -67 -41q-70 -12 -89.5 -43.5t-19.5 -97.5v-297q0 -33 6.5 -50.5t12 -20.5t14.5 -3q19 0 93.5 4t133.5 4q188 0 298 -98.5t110 -274.5q0 -117 -61 -205.5t-144 -130.5q-138 -69 -328 -69q-143 10 -229 10 q-39 0 -98.5 -6t-118.5 -6q-60 0 -60 22q0 25 68 37q139 26 139 150v444q0 37 -14 37h-625q-7 0 -8.5 -4.5t-1.5 -18.5v-440q0 -64 45.5 -110t116.5 -58q67 -11 67 -37q0 -22 -59 -22q-58 0 -126.5 5t-113.5 5q-41 0 -104 -5t-121 -5q-59 0 -59 22zM1245 221q0 -67 39 -106 q21 -21 54.5 -37.5t68.5 -16.5q122 0 220.5 98t98.5 228q0 171 -151 256q-68 37 -193 37h-51q-47 0 -66.5 -11.5t-19.5 -47.5v-400z" />
<glyph unicode="&#x40b;" horiz-adv-x="1619" d="M31 1103q-1 24 10 44q44 94 63 227q6 47 35 47q7 0 24 -22.5t27 -42.5q20 -37 144 -41q176 -6 303 -6q171 0 420 12q125 4 149 39q33 45 56 45q9 0 18 -10.5t6 -24.5q-35 -174 -33 -240q0 -18 -7 -34.5t-19 -16.5h-4q-11 2 -18.5 12.5t-13.5 30t-7 21.5q-1 3 -7 17t-9 19 t-11.5 17t-18.5 17t-25 12t-36.5 9.5t-48.5 2.5q-237 0 -311 -8q-33 -5 -33 -88v-363q0 -36 9 -37t32 15q98 55 240 55q182 0 284.5 -115t102.5 -299v-184q0 -81 22.5 -116t95.5 -48q68 -12 68 -37q0 -22 -59 -22t-114 5t-91 5q-39 0 -97.5 -5t-117.5 -5q-60 0 -60 22 q0 25 68 37q73 13 97 48.5t24 115.5v174q0 64 -13 123t-41 113.5t-79.5 87t-120.5 32.5q-68 0 -137.5 -16.5t-87.5 -28.5q-11 -7 -15 -10.5t-7 -11t-3 -19.5v-446q0 -80 23 -114.5t96 -47.5q67 -11 67 -37q0 -22 -59 -22t-114 5t-91 5q-47 0 -121 -5t-131 -5q-59 0 -59 22 q0 26 67 37q80 14 119 51.5t39 110.5v930q0 81 -37 88q-39 8 -102 8h-84q-53 0 -100 -21t-68 -59q-12 -24 -37.5 -51t-46.5 -27q-13 0 -14 24z" />
<glyph unicode="&#x40c;" horiz-adv-x="1394" d="M63 12q0 25 68 37q77 14 107 48t30 110v921q0 70 -30 101t-107 45q-68 12 -68 41q0 22 60 22q58 0 126 -3t113 -3q32 0 80.5 3t108.5 3q59 0 59 -22q0 -30 -67 -41q-71 -12 -91 -45t-20 -101v-383q0 -24 10 -24q22 0 45 20q40 35 149.5 144.5t199.5 202.5l90 92 q17 16 24.5 25.5t12 23.5t-11.5 24.5t-52 16.5q-63 11 -63 41q0 22 59 22q48 0 105 -1t83 -1h52q27 1 76 5.5t112 4.5q59 0 59 -22q0 -30 -67 -41q-192 -34 -311 -135q-196 -166 -386 -377q-13 -13 11 -37l487 -534q71 -80 106.5 -104t118.5 -42q68 -14 68 -37 q0 -22 -59 -22q-61 0 -135 4.5t-115 5.5h-41q-17 0 -64 -1t-96 -1q-59 0 -59 22q0 24 55 35q29 6 43 16t13.5 22.5t-7.5 24.5t-22 29l-435 480q-35 35 -47 35q-8 0 -8 -44q0 -120 10 -393q3 -74 31.5 -118.5t99.5 -57.5q68 -12 68 -37q0 -22 -59 -22q-60 0 -113 7t-88 7 q-49 0 -125 -7t-133 -7q-60 0 -60 22zM514.5 1473q1.5 16 17.5 26q198 126 336 197q38 20 66 20q18 0 41 -10q69 -32 72 -94q0 -39 -66 -53q-233 -58 -385 -101q-36 -6 -47 -6q-15 0 -23 2q-13 3 -11.5 19z" />
<glyph unicode="&#x40d;" horiz-adv-x="1624" d="M76 12q0 26 67 37q74 13 98.5 45.5t24.5 108.5v925q0 77 -18 105t-90 41q-68 12 -68 41q0 22 60 22q59 0 116 -3t94 -3q39 0 99 3t119 3t59 -22q0 -29 -68 -41q-75 -13 -107 -48.5t-32 -97.5v-725q0 -21 6 -27t17 5l708 713q36 36 31 57q0 52 -33 81.5t-100 41.5 q-68 12 -68 41q0 22 60 22q58 0 125.5 -3t111.5 -3q32 0 81.5 3t109.5 3q59 0 59 -22q0 -29 -68 -41q-37 -7 -60 -18.5t-34 -31.5t-14.5 -40.5t-3.5 -53.5v-925q0 -79 22 -111t95 -45q67 -11 67 -37q0 -22 -59 -22t-118.5 5t-98.5 5q-40 0 -100 -5t-119 -5q-60 0 -60 22 q0 25 68 37q70 13 103.5 40.5t33.5 84.5v715q0 109 -9 112q-3 1 -12 -8l-722 -731q-17 -17 -17 -88q0 -59 39.5 -85t120.5 -40q67 -11 67 -37q0 -22 -59 -22q-58 0 -126.5 5t-113.5 5q-41 0 -104 -5t-121 -5q-59 0 -59 22zM514 1597q3 63 72 95q23 10 41 10q25 0 65 -21 q146 -75 336 -196q16 -10 17.5 -26t-11.5 -19q-8 -2 -22 -2q-11 0 -47 6q-124 35 -385 100q-66 14 -66 53z" />
<glyph unicode="&#x40e;" d="M0 1315q0 22 59 22q26 0 107.5 -3t132.5 -3q34 0 89.5 2t74.5 2q59 0 59 -22q0 -13 -15 -21t-52 -20q-13 -4 -22 -9t-18.5 -21.5t-10 -40t9 -67.5t32.5 -102l191 -481q21 -59 33 -59q15 0 41 59l260 561q22 46 -13.5 95.5t-83.5 62.5q-67 18 -67 41q0 22 59 22 q31 0 78 -1t76 -1q42 0 109.5 3t87.5 3q59 0 59 -22q0 -27 -68 -41q-49 -10 -81 -48.5t-64 -105.5l-309 -665q-138 -295 -223 -416t-160 -121q-96 0 -144 33q-47 32 -47 102q0 28 27.5 42t54.5 16q12 0 52 -24t67 -24q67 0 108 36t76 118q13 29 -16 107l-303 745 q-68 170 -178 201q-68 21 -68 45zM358 1636q0 38 24.5 66.5t55.5 28.5q30 0 55 -20t25 -44q0 -20 -6 -48t-6 -44q0 -31 46 -58.5t116 -27.5q69 0 118.5 28t49.5 54q0 22 -9.5 49.5t-9.5 46.5q0 24 25 44t55 20q31 0 55.5 -28.5t24.5 -66.5q0 -92 -97.5 -155.5t-211.5 -63.5 q-76 0 -144 21.5t-117 73t-49 124.5z" />
<glyph unicode="&#x40f;" horiz-adv-x="1685" d="M39 12q0 26 67 37q81 14 120.5 48.5t39.5 103.5v925q0 71 -30 102.5t-107 45.5q-68 12 -68 41q0 22 60 22q58 0 126 -3t113 -3q41 0 103.5 3t120.5 3q59 0 59 -22q0 -29 -68 -41q-79 -14 -112 -46t-33 -102v-925q0 -48 32 -82.5t79 -34.5h608q50 0 78 41.5t28 91.5v907 q0 73 -30 104.5t-107 45.5q-67 11 -67 41q0 22 59 22q58 0 126.5 -3t113.5 -3q37 0 94.5 3t116.5 3t59 -22q0 -29 -68 -41q-77 -14 -105 -45t-28 -103v-925q0 -70 35.5 -104t114.5 -48q67 -11 67 -37q0 -22 -59 -22q-62 0 -127 4.5t-100 5.5h-363q-27 0 -46 -68.5 t-28 -150.5t-26 -150.5t-41 -68.5t-41.5 68.5t-27.5 150.5t-30 150.5t-47 68.5h-340q-50 0 -127.5 -5t-134.5 -5q-59 0 -59 22z" />
<glyph unicode="&#x410;" horiz-adv-x="1400" d="M-4 16q0 26 67 47q59 17 102.5 52t74.5 106q196 444 383 963q19 57 20 61q3 10 4 24.5t1.5 23.5t2.5 10q54 17 74 30q12 8 21 21t13.5 21.5t8.5 8.5q11 0 20 -28q154 -488 365 -1094q39 -112 86.5 -152.5t120.5 -52.5q33 -6 50 -19t17 -28q0 -20 -59 -20q-24 0 -129.5 6 t-155.5 6q-44 0 -112.5 -1t-89.5 -1q-60 0 -60 23q0 22 68 40q54 14 77.5 33.5t25 48t-6.5 70.5q-33 164 -59 262q-4 15 -15 19t-43 4h-391q-15 0 -22 -7.5t-13 -29.5l-77 -254q-16 -54 18.5 -93.5t95.5 -54.5q68 -17 68 -41q0 -22 -60 -22q-14 0 -78.5 2t-107.5 2 q-48 0 -131.5 -6t-114.5 -6q-59 0 -59 26zM498 618q-7 -20 1.5 -25t37.5 -5h317q24 0 27.5 4t-2.5 26l-162 490q-12 37 -19 37q-4 0 -16 -35z" />
<glyph unicode="&#x411;" horiz-adv-x="1163" d="M39 12q0 26 67 37q81 14 120.5 48.5t39.5 103.5v925q0 71 -30 102.5t-107 45.5q-68 12 -68 41q0 22 60 22q58 0 126 -3t113 -3h508q2 0 37.5 5t42.5 5q9 0 15 -10t6 -18q1 -41 16 -199q3 -24 -7.5 -37.5t-21.5 -13.5t-28.5 20t-20.5 37q-3 19 -6.5 32.5t-14 33.5t-25 33 t-40.5 22.5t-61 9.5h-271q-17 0 -38 -26t-21 -45v-344q0 -56 4.5 -79.5t20.5 -23.5q6 0 10 2q107 35 219 35q188 0 298 -98.5t110 -274.5q0 -47 -8.5 -88t-18.5 -69t-31.5 -56.5t-33.5 -42.5t-41 -34.5t-36.5 -25t-35.5 -20.5q-115 -69 -328 -69q-14 0 -104.5 8t-141.5 8 q-40 0 -98 -9t-117 -9t-59 22zM430 221q0 -69 41.5 -107t116.5 -38q80 0 153 40.5t119.5 113t46.5 157.5q0 179 -151 264q-94 51 -213 51q-113 0 -113 -73v-408z" />
<glyph unicode="&#x412;" d="M39 12q0 26 67 37q81 14 120.5 49t39.5 105v921q0 73 -30 104.5t-107 45.5q-68 12 -68 41q0 22 60 22q59 0 116.5 -1t96.5 -1q34 0 98 5.5t129 5.5q231 0 343 -71.5t112 -234.5q0 -63 -21.5 -116t-48.5 -80q-35 -33 -62 -51t-75 -37q-8 -3 -8.5 -10.5t8.5 -10.5 q39 -12 65 -22.5t64 -29.5t63.5 -43t50 -57.5t36.5 -81t12 -104.5q0 -64 -15 -117.5t-34.5 -85.5t-53.5 -61t-54.5 -41.5t-55.5 -30.5q-138 -69 -328 -69q-13 0 -80 4t-114 4q-51 0 -128.5 -5t-138.5 -5q-59 0 -59 22zM425 1020.5q-1 -150.5 1 -184.5q0 -26 3.5 -41 t15 -21.5t17 -8t25.5 -3.5q3 0 14 -1t19 -1q129 0 228 59q32 18 62 67.5t30 127.5q0 49 -12 92.5t-40.5 85.5t-86.5 67t-140 25q-80 0 -107.5 -21.5t-27.5 -70.5q0 -21 -1 -171.5zM426 629q-6 -127 4 -408q4 -75 35 -106q39 -39 123 -39q80 0 153 40.5t119.5 113t46.5 157.5 q0 179 -151 264q-94 51 -213 51q-61 0 -94 -22q-20 -13 -23 -51z" />
<glyph unicode="&#x413;" horiz-adv-x="1058" d="M39 12q0 -22 59 -22q57 0 134.5 5t127.5 5q45 0 113.5 -5t126.5 -5q59 0 59 22q0 26 -67 37q-81 14 -121.5 48.5t-40.5 103.5v923q0 66 20 96.5t66 30.5h307q88 0 138 -55q24 -27 47 -100q9 -33 28 -33q9 0 17 11t6 20q-9 112 -12 225q0 18 -37 18q-1 0 -24.5 -3 t-29.5 -3h-594q-45 0 -114 3t-127 3q-60 0 -60 -22q0 -29 68 -41q77 -14 107 -45.5t30 -102.5v-925q0 -69 -39.5 -103.5t-120.5 -48.5q-67 -11 -67 -37z" />
<glyph unicode="&#x414;" horiz-adv-x="1433" d="M53 43q-2 15 6.5 27t24.5 12q10 0 31 0.5t29.5 1t21 2.5t19 6.5t10.5 11.5q2 5 18.5 33.5t27 49t17.5 38.5l385 934q13 30 21 62q3 10 4 24t1.5 23t2.5 10q58 19 82 29q13 6 26.5 22.5t22 29.5t12.5 13q11 0 21 -29l421 -1218q5 -15 14 -23.5t27 -12.5t29 -5t41 -2 q23 0 23 -37q0 -16 -17 -153t-22 -248q-2 -26 -16 -45t-38 -19q-43 0 -43 88q3 137 -15 208.5t-56.5 97.5t-112.5 26h-694q-74 0 -113 -26.5t-56.5 -98.5t-14.5 -209q0 -88 -43 -88q-24 0 -38 19t-16 45q-2 55 -5.5 102.5t-9 94t-8.5 69t-10.5 73t-9.5 62.5zM342.5 134.5 q6.5 -29.5 24.5 -41t47 -11.5h596q21 0 30.5 9t8 29.5t-7.5 45t-17 61.5q-4 13 -6 19l-258 858q-12 37 -19 37q-5 0 -20 -35l-363 -893q-22 -49 -15.5 -78.5z" />
<glyph unicode="&#x415;" horiz-adv-x="1095" d="M47 12q0 25 68 37q79 14 115 48.5t36 105.5v921q0 73 -30 104.5t-107 45.5q-68 12 -68 41q0 22 60 22q78 0 185 -3t177 -3q108 0 267.5 3t177.5 3h18q34 0 37 -18q23 -126 25 -211q0 -8 -9.5 -13t-19.5 -5q-17 0 -23 20q-23 73 -47 100q-51 56 -137 56h-268 q-19 0 -41 -19.5t-25 -42.5q-2 -14 -5 -189t-3 -249q0 -45 21 -45h213q43 0 76 22t48 58q3 8 16.5 21.5t20.5 13.5q9 0 18.5 -10.5t8.5 -22.5q-6 -99 -6 -127t6 -125q0 -35 -18 -35t-31 16t-17 31q-23 71 -96 80q-74 12 -125 12q-28 0 -44.5 -1t-42 -6t-37.5 -18t-11 -34 q0 -14 6 -365q2 -80 32 -119.5t97 -39.5h213q16 0 77.5 12t78.5 25q42 33 86 129q10 20 29 20q12 -2 19.5 -8.5t6.5 -16.5q-11 -108 -35 -208q-3 -12 -5 -17t-8 -11.5t-15 -6.5q-138 0 -356.5 6t-313.5 6q-44 0 -111 -6t-125 -6q-59 0 -59 22z" />
<glyph unicode="&#x416;" horiz-adv-x="1974" d="M-29 27q0 24 17 24q33 0 62.5 5t52.5 12t44.5 19.5t36.5 23t31 27.5t25 29t20.5 31.5t17 29.5t15 29.5t12.5 25.5q2 3 31.5 60.5t45.5 86t44 75t51 75.5q48 61 97 99.5t81 49.5q26 7 -2 21q-55 28 -80 51q-46 40 -88.5 107.5t-93.5 172.5q-26 53 -65.5 90t-75.5 37 q-3 0 -33.5 -10t-50.5 -10q-32 0 -46 23t-14 55q0 39 38.5 67.5t82.5 28.5q58 0 123 -68t109 -168q39 -90 82 -162t71 -100q116 -116 273 -131q7 -1 9.5 7t2.5 32v367q0 69 -28.5 95t-108.5 40q-68 12 -68 41q0 22 60 22q58 0 126 -3t113 -3q41 0 103 3t120 3q60 0 60 -22 q0 -29 -68 -41q-82 -14 -113.5 -40.5t-31.5 -94.5v-367q0 -24 2.5 -32t9.5 -7q157 15 273 131q28 28 71 100t82 162q44 100 109 168t123 68q44 0 82 -28.5t38 -67.5q0 -32 -13.5 -55t-45.5 -23q-20 0 -50.5 10t-33.5 10q-36 0 -75.5 -37t-65.5 -90q-103 -211 -183 -280 q-27 -24 -79 -51q-28 -14 -2 -21q32 -11 81 -49.5t97 -99.5q23 -29 51 -75.5t44 -75t45.5 -86t31.5 -60.5q3 -6 12.5 -25.5t15 -29.5t17 -29.5t20.5 -31.5t25 -29t31 -27.5t36.5 -23t44.5 -19.5t52.5 -12t62.5 -5q17 0 17 -24q0 -19 -11 -27q-21 -14 -65.5 -25.5 t-81.5 -11.5q-90 0 -175 52t-130 141q-94 186 -205 370q-53 86 -125 113q-78 31 -115 35q-18 0 -18 -39v-432q0 -70 40 -105t122 -49q67 -11 67 -37q0 -22 -59 -22q-58 0 -126.5 5t-113.5 5q-50 0 -127.5 -5t-134.5 -5q-59 0 -59 22q0 26 67 37q81 14 120.5 49t39.5 105v432 q0 39 -20 39q-40 -4 -117 -35q-72 -27 -125 -113q-71 -117 -205 -370q-43 -82 -128.5 -137.5t-172.5 -55.5q-37 0 -81.5 11.5t-65.5 25.5q-11 8 -11 27z" />
<glyph unicode="&#x417;" horiz-adv-x="1044" d="M72 324q-2 12 11 22t30 10q11 0 49 -90q42 -106 119 -168.5t163 -62.5h2q78 1 139 31t98 80t56 111.5t19 129.5q0 82 -25 150t-82 112.5t-137 44.5q-13 0 -60 -7t-92 -7q-81 0 -83 41q-1 25 26 39t53 14q40 0 81 -6t85 -6q42 0 74 22t50 59.5t27 80.5t9 90q0 40 -5 74.5 t-20.5 74t-41 67.5t-71 46.5t-106.5 19.5h-4q-174 0 -243 -262q-4 -21 -23.5 -36t-30.5 -15q-7 0 -13.5 18t-6.5 33q0 72 20 189q7 37 27 41q32 8 87.5 33.5t111 44t110.5 18.5q63 0 120.5 -11.5t109.5 -37t90 -62.5t60 -90.5t22 -118.5q0 -64 -20 -117t-46 -79 q-35 -33 -62 -51t-75 -37q-8 -3 -8.5 -10.5t8.5 -10.5q32 -10 55 -18.5t55 -24t54 -32t46.5 -42.5t39.5 -56.5t24.5 -73t9.5 -91.5q-1 -90 -34 -163.5t-87.5 -121.5t-126 -80.5t-146.5 -46.5t-152 -14q-75 0 -130.5 15.5t-117.5 44.5q-62 28 -70 75q-20 142 -22 218z" />
<glyph unicode="&#x418;" horiz-adv-x="1624" d="M76 12q0 26 67 37q74 13 98.5 45.5t24.5 108.5v925q0 77 -18 105t-90 41q-68 12 -68 41q0 22 60 22q59 0 116 -3t94 -3q39 0 99 3t119 3t59 -22q0 -29 -68 -41q-75 -13 -107 -48.5t-32 -97.5v-725q0 -21 6 -27t17 5l708 713q36 36 31 57q0 52 -33 81.5t-100 41.5 q-68 12 -68 41q0 22 60 22q58 0 125.5 -3t111.5 -3q32 0 81.5 3t109.5 3q59 0 59 -22q0 -29 -68 -41q-37 -7 -60 -18.5t-34 -31.5t-14.5 -40.5t-3.5 -53.5v-925q0 -79 22 -111t95 -45q67 -11 67 -37q0 -22 -59 -22t-118.5 5t-98.5 5q-40 0 -100 -5t-119 -5q-60 0 -60 22 q0 25 68 37q70 13 103.5 40.5t33.5 84.5v715q0 109 -9 112q-3 1 -12 -8l-722 -731q-17 -17 -17 -88q0 -59 39.5 -85t120.5 -40q67 -11 67 -37q0 -22 -59 -22q-58 0 -126.5 5t-113.5 5q-41 0 -104 -5t-121 -5q-59 0 -59 22z" />
<glyph unicode="&#x419;" horiz-adv-x="1624" d="M76 12q0 26 67 37q74 13 98.5 45.5t24.5 108.5v925q0 77 -18 105t-90 41q-68 12 -68 41q0 22 60 22q59 0 116 -3t94 -3q39 0 99 3t119 3t59 -22q0 -29 -68 -41q-75 -13 -107 -48.5t-32 -97.5v-725q0 -21 6 -27t17 5l708 713q36 36 31 57q0 52 -33 81.5t-100 41.5 q-68 12 -68 41q0 22 60 22q58 0 125.5 -3t111.5 -3q32 0 81.5 3t109.5 3q59 0 59 -22q0 -29 -68 -41q-37 -7 -60 -18.5t-34 -31.5t-14.5 -40.5t-3.5 -53.5v-925q0 -79 22 -111t95 -45q67 -11 67 -37q0 -22 -59 -22t-118.5 5t-98.5 5q-40 0 -100 -5t-119 -5q-60 0 -60 22 q0 25 68 37q70 13 103.5 40.5t33.5 84.5v715q0 109 -9 112q-3 1 -12 -8l-722 -731q-17 -17 -17 -88q0 -59 39.5 -85t120.5 -40q67 -11 67 -37q0 -22 -59 -22q-58 0 -126.5 5t-113.5 5q-41 0 -104 -5t-121 -5q-59 0 -59 22zM532 1636q0 38 24.5 66.5t55.5 28.5q30 0 55 -20 t25 -44q0 -20 -6 -48t-6 -44q0 -31 46 -58.5t116 -27.5q69 0 118.5 28t49.5 54q0 22 -9.5 49.5t-9.5 46.5q0 24 25 44t55 20q31 0 55.5 -28.5t24.5 -66.5q0 -92 -97.5 -155.5t-211.5 -63.5q-76 0 -144 21.5t-117 73t-49 124.5z" />
<glyph unicode="&#x41a;" horiz-adv-x="1394" d="M63 12q0 25 68 37q77 14 107 48t30 110v921q0 70 -30 101t-107 45q-68 12 -68 41q0 22 60 22q58 0 126 -3t113 -3q32 0 80.5 3t108.5 3q59 0 59 -22q0 -30 -67 -41q-71 -12 -91 -45t-20 -101v-383q0 -24 10 -24q22 0 45 20q40 35 149.5 144.5t199.5 202.5l90 92 q17 16 24.5 25.5t12 23.5t-11.5 24.5t-52 16.5q-63 11 -63 41q0 22 59 22q48 0 105 -1t83 -1h52q27 1 76 5.5t112 4.5q59 0 59 -22q0 -30 -67 -41q-192 -34 -311 -135q-196 -166 -386 -377q-13 -13 11 -37l487 -534q71 -80 106.5 -104t118.5 -42q68 -14 68 -37 q0 -22 -59 -22q-61 0 -135 4.5t-115 5.5h-41q-17 0 -64 -1t-96 -1q-59 0 -59 22q0 24 55 35q29 6 43 16t13.5 22.5t-7.5 24.5t-22 29l-435 480q-35 35 -47 35q-8 0 -8 -44q0 -120 10 -393q3 -74 31.5 -118.5t99.5 -57.5q68 -12 68 -37q0 -22 -59 -22q-60 0 -113 7t-88 7 q-49 0 -125 -7t-133 -7q-60 0 -60 22z" />
<glyph unicode="&#x41b;" horiz-adv-x="1400" d="M-4 16q0 26 67 47q61 18 105 52.5t72 105.5l383 963q19 57 20 61q3 10 4 24.5t1.5 23.5t2.5 10q15 5 37.5 16t28.5 14q13 6 25.5 16t20 16.5t11.5 6.5q11 0 21 -29l358 -1081q20 -59 43 -98.5t51 -60.5t52.5 -30.5t60.5 -15.5q33 -6 50 -19t17 -28q0 -20 -59 -20 q-24 0 -129.5 6t-155.5 6q-44 0 -112.5 -1t-89.5 -1q-60 0 -60 23q0 22 68 40q80 21 99 56t-3 96l-268 893q-12 37 -19 37q-4 0 -16 -35l-317 -901q-19 -52 16.5 -92.5t97.5 -55.5q68 -17 68 -41q0 -22 -60 -22q-14 0 -78.5 2t-107.5 2q-48 0 -131.5 -6t-114.5 -6 q-59 0 -59 26z" />
<glyph unicode="&#x41c;" horiz-adv-x="1845" d="M39 12q0 26 67 37q35 6 61.5 27.5t39.5 50.5t18 47t8 35q84 633 84 893q0 11 -1 26.5t-1 20.5q0 30 -30 65q-12 13 -27.5 23.5t-37 18t-35 11.5t-39.5 10t-31 7q-29 10 -29 35q0 22 47 22q41 0 178.5 -8t161.5 -8q16 0 29.5 -33t26 -87t18.5 -70l323 -822q12 -30 25 -30 q11 0 23 24l403 840q12 26 20.5 73.5t16 77t20.5 29.5h74q50 0 131 8t96 8h7q43 0 43 -20q0 -15 -19.5 -28.5t-34.5 -18.5q-31 -9 -45.5 -13.5t-43.5 -16t-43 -21.5t-26 -26.5t-12 -35.5q0 -171 7 -331t20 -354.5t18 -282.5q3 -63 40 -97.5t114 -48.5q68 -12 68 -37 q0 -22 -60 -22q-58 0 -126 5t-113 5q-39 0 -98 -5t-118 -5t-59 22q0 28 68 37q59 7 81.5 40.5t22.5 107.5q0 105 -2.5 212t-4.5 163.5t-8.5 193t-8.5 184.5q0 33 -11 33q-5 0 -22 -33l-455 -921q-22 -49 -35 -49q-11 0 -28 53q-73 220 -153 421t-214 511q-9 22 -16.5 22.5 t-10.5 -22.5q-48 -359 -65 -752q-1 -30 10 -62.5t43.5 -63t79.5 -38.5q68 -12 68 -37q0 -22 -60 -22t-109 5t-83 5q-32 0 -79.5 -5t-107.5 -5q-59 0 -59 22z" />
<glyph unicode="&#x41d;" horiz-adv-x="1658" d="M76 12q0 26 67 37q74 13 98.5 45.5t24.5 108.5v925q0 77 -18 105t-90 41q-68 12 -68 41q0 22 60 22q59 0 116 -3t94 -3q39 0 99 3t119 3t59 -22q0 -29 -68 -41q-75 -13 -107 -48.5t-32 -97.5v-393q0 -18 29 -18h760q14 0 14 24v389q0 59 -31 95t-104 49q-68 12 -68 41 q0 22 60 22q58 0 125.5 -3t111.5 -3q32 0 79 3t107 3t60 -22q0 -29 -68 -41q-70 -12 -89 -44t-19 -100v-925q0 -81 19.5 -112t92.5 -44q68 -12 68 -37q0 -22 -59 -22t-116.5 5t-96.5 5q-40 0 -100.5 -5t-119.5 -5t-59 22q0 25 68 37q139 26 139 150v389v5q0 25 -10 25h-783 q-7 0 -8.5 -4t-1.5 -18v-379q0 -64 45.5 -110t116.5 -58q67 -11 67 -37q0 -22 -59 -22q-58 0 -126.5 5t-113.5 5q-41 0 -104 -5t-121 -5q-59 0 -59 22z" />
<glyph unicode="&#x41e;" horiz-adv-x="1562" d="M92 655q0 112 29 215.5t88 193t142.5 155.5t198.5 103.5t249 37.5q133 0 255 -49.5t214 -136t147 -214t55 -274.5q0 -140 -45.5 -267.5t-129.5 -228t-217 -160t-296 -59.5q-134 0 -260 53t-221 142.5t-152 218t-57 270.5zM291 717q0 -175 65.5 -327t185.5 -245.5 t267 -93.5q226 0 344.5 153t118.5 421q0 196 -57 342.5t-171.5 229.5t-275.5 83q-88 0 -165.5 -31t-133.5 -84.5t-97 -125t-61 -154t-20 -168.5z" />
<glyph unicode="&#x41f;" horiz-adv-x="1667" d="M39 12q0 -22 59 -22q57 0 134.5 5t127.5 5q45 0 113.5 -5t126.5 -5q59 0 59 22q0 26 -67 37q-162 29 -162 154v1020q0 10 0.5 13.5t2.5 6t7 2.5q205 6 355 6q76 0 220 -2.5t204 -3.5q16 0 16 -14v-1028q0 -126 -158 -154q-67 -11 -67 -37q0 -22 59 -22q57 0 134.5 5 t127.5 5q45 0 113.5 -5t126.5 -5q59 0 59 22q0 26 -67 37q-81 14 -121.5 48.5t-40.5 103.5v925q0 70 33 102t112 46q68 12 68 41q0 22 -60 22q-58 0 -120 -3t-103 -3q-380 -4 -500 -4q-71 0 -231 1t-262 1q-39 0 -98.5 4t-118.5 4q-60 0 -60 -22q0 -29 68 -41 q77 -14 107 -45.5t30 -102.5v-925q0 -69 -39.5 -103.5t-120.5 -48.5q-67 -11 -67 -37z" />
<glyph unicode="&#x420;" horiz-adv-x="1130" d="M49 12q0 25 68 37q79 14 114 48.5t35 107.5v864q0 98 -26 145t-99 60q-67 11 -67 41q0 22 59 22t110.5 -1t90.5 -1q44 0 123 5.5t104 5.5q114 0 210.5 -24.5t170.5 -72.5t116 -126.5t42 -180.5q0 -74 -44 -171.5t-108 -147.5q-65 -51 -151 -77t-166 -26q-36 0 -66 6 q-38 8 -36 26q0 14 19 20q5 1 9 1h4q14 -2 41 -2q53 0 104.5 16.5t84.5 41.5q66 51 96.5 142.5t32.5 193.5q1 66 -21 121.5t-58.5 92t-84.5 62.5t-97.5 37.5t-97.5 11.5q-131 0 -131 -86v-977q0 -77 31.5 -121t105.5 -57q68 -12 68 -37q0 -22 -60 -22t-112.5 7t-87.5 7 q-51 0 -130.5 -7t-135.5 -7q-60 0 -60 22z" />
<glyph unicode="&#x421;" horiz-adv-x="1310" d="M94 662q0 145 61 275.5t163 222t238.5 145t283.5 53.5q50 0 119.5 -8t97.5 -17q80 -26 155 -37q23 -3 27 -61q14 -109 16 -223q2 -17 -3.5 -32.5t-18.5 -14.5q-18 2 -32.5 21.5t-20.5 53.5q-12 94 -72 150q-12 12 -30.5 25.5t-55.5 33.5t-93.5 32.5t-121.5 12.5 q-110 0 -206 -49t-161.5 -129.5t-103 -186.5t-37.5 -218q0 -100 23 -198.5t68.5 -184.5t107.5 -152t145 -104.5t176 -38.5q81 0 147 23t111 63.5t72 77.5t51 84q5 10 15.5 17.5t21.5 13t14 7.5q3 3 4 3q8 0 12 -20t1 -36q-7 -47 -27 -114t-41 -99q-4 -7 -17.5 -12.5 t-38.5 -13.5t-44 -17q-87 -41 -344 -41q-182 0 -335 95t-240 254t-87 344z" />
<glyph unicode="&#x422;" horiz-adv-x="1372" d="M56 1103q-1 24 10 44q44 94 63 227q6 47 35 47q7 0 24 -22.5t27 -42.5q11 -20 53 -30.5t90 -10.5h781q78 0 118 28q15 10 36.5 30.5t37 32t29.5 11.5q8 0 11.5 -24t0.5 -41q-38 -158 -33 -222q2 -21 -7 -46t-25 -25q-14 0 -22.5 20t-16.5 64q-16 94 -189 94 q-202 0 -276 -8q-33 -5 -33 -88v-932q0 -71 41 -108.5t121 -51.5q67 -11 67 -37q0 -22 -59 -22q-58 0 -126.5 5t-113.5 5q-50 0 -127.5 -5t-134.5 -5q-59 0 -59 22q0 26 67 37q80 14 120 51.5t40 108.5v932q0 81 -37 88q-39 8 -151 8h-96q-53 0 -100 -21t-68 -59 q-12 -24 -37.5 -51t-46.5 -27q-13 0 -14 24z" />
<glyph unicode="&#x423;" d="M0 1315q0 22 59 22q26 0 107.5 -3t132.5 -3q34 0 89.5 2t74.5 2q59 0 59 -22q0 -13 -15 -21t-52 -20q-13 -4 -22 -9t-18.5 -21.5t-10 -40t9 -67.5t32.5 -102l191 -481q21 -59 33 -59q15 0 41 59l260 561q22 46 -13.5 95.5t-83.5 62.5q-67 18 -67 41q0 22 59 22 q31 0 78 -1t76 -1q42 0 109.5 3t87.5 3q59 0 59 -22q0 -27 -68 -41q-49 -10 -81 -48.5t-64 -105.5l-309 -665q-138 -295 -223 -416t-160 -121q-96 0 -144 33q-47 32 -47 102q0 28 27.5 42t54.5 16q12 0 52 -24t67 -24q67 0 108 36t76 118q13 29 -16 107l-303 745 q-68 170 -178 201q-68 21 -68 45z" />
<glyph unicode="&#x424;" horiz-adv-x="1439" d="M72 655q1 108 48.5 200.5t126 157t179 105t211.5 53.5v23q0 31 -30.5 50t-106.5 32q-68 12 -68 41q0 22 60 22q58 0 126 -3t113 -3q41 0 103 3t120 3q60 0 60 -22q0 -29 -68 -41q-77 -14 -111 -33t-34 -49v-23q114 -10 215.5 -46t181 -96t125.5 -148.5t45 -194.5 q-1 -108 -48 -201t-126 -157.5t-179.5 -105.5t-213.5 -54v-12q0 -23 7 -39.5t17.5 -26.5t32 -17.5t40.5 -11.5t53 -10q8 -1 12 -2q67 -11 67 -37q0 -22 -59 -22q-58 0 -126.5 5t-113.5 5q-50 0 -127.5 -5t-134.5 -5q-59 0 -59 22q0 26 67 37q95 17 120 31q40 23 40 76v12 q-111 10 -212 46.5t-181 96.5t-126.5 149.5t-45.5 194.5zM260 717q0 -174 107 -310t270 -171v872q-159 -22 -268 -130.5t-109 -260.5zM801 231q153 27 265.5 150.5t113.5 273.5q1 193 -103 310t-276 143v-877z" />
<glyph unicode="&#x425;" horiz-adv-x="1447" d="M-10 12q0 24 67 45q63 18 148.5 71.5t144.5 125.5l256 319q49 70 33 93l-297 417q-51 70 -117.5 123t-120.5 68q-67 21 -67 45q0 22 59 22q30 0 134 -5t159 -5q47 0 118.5 2t84.5 2q59 0 59 -22q0 -13 -14.5 -21.5t-52.5 -19.5q-90 -26 -97 -62.5t60 -128.5l186 -262 q22 -31 33 -31q10 0 29 25l219 289q28 36 40.5 60.5t12.5 46.5t-22.5 37t-69.5 24q-25 5 -46.5 17t-21.5 24q0 22 60 22q23 0 78.5 -1t87.5 -1q43 0 126 6t107 6q59 0 59 -22q0 -24 -67 -41q-52 -13 -116 -74t-150 -162l-236 -278q-27 -30 -33 -45.5t4 -36.5l318 -457 q46 -68 103.5 -113.5t115.5 -60.5q68 -17 68 -41q0 -22 -60 -22q-24 0 -132 6t-161 6q-46 0 -118.5 -1t-92.5 -1q-59 0 -59 23q0 21 68 40q23 7 43 20t34.5 33t12 49t-24.5 62l-213 310q-14 21 -24.5 22.5t-20.5 -12.5l-276 -357q-31 -45 -9 -80t82 -49q68 -17 68 -41 q0 -22 -60 -22q-14 0 -77 2t-105 2q-49 0 -138 -6t-120 -6q-59 0 -59 22z" />
<glyph unicode="&#x426;" horiz-adv-x="1726" d="M39 12q0 26 67 37q81 14 120.5 48.5t39.5 103.5v925q0 71 -30 102.5t-107 45.5q-68 12 -68 41q0 22 60 22q58 0 126 -3t113 -3q41 0 103.5 3t120.5 3q59 0 59 -22q0 -29 -68 -41q-79 -14 -112 -46t-33 -102v-925q0 -48 32 -82.5t79 -34.5h637q51 0 84.5 42.5t33.5 90.5 v907q0 73 -30 104.5t-107 45.5q-67 11 -67 41q0 22 59 22q58 0 126.5 -3t113.5 -3q41 0 103 3t120 3q59 0 59 -22q0 -30 -67 -41q-79 -14 -112.5 -46.5t-33.5 -103.5v-936q0 -45 47 -82l10.5 -7t8 -5.5t8.5 -4t8 -2.5t10.5 -1.5t11.5 -0.5t16 -0.5t19 -0.5q29 0 29 -33 q0 -14 -23 -154.5t-28 -252.5q-2 -27 -16 -45.5t-37 -18.5q-43 0 -43 88q1 103 1.5 167.5t-13.5 101t-41.5 50t-81.5 13.5h-986q-50 0 -127.5 -5t-134.5 -5q-59 0 -59 22z" />
<glyph unicode="&#x427;" horiz-adv-x="1392" d="M33 1315q0 22 59 22t116.5 -3t94.5 -3q39 0 98.5 3t118.5 3q60 0 60 -22q0 -29 -68 -41q-74 -13 -106.5 -48.5t-32.5 -95.5v-192q0 -63 36 -112.5t93.5 -78t121 -43t126.5 -14.5q55 0 113.5 14.5t80.5 28.5q19 14 19 49v348q0 120 -138 144q-67 11 -67 41q0 22 59 22 q58 0 126.5 -3t113.5 -3q32 0 79 3t107 3t60 -22q0 -29 -68 -41q-70 -12 -89.5 -44t-19.5 -100v-925q0 -80 20 -111.5t93 -44.5q68 -12 68 -37q0 -22 -60 -22q-59 0 -117.5 5t-97.5 5q-40 0 -100 -5t-119 -5t-59 22q0 26 67 37q142 26 142 152v440q0 35 -8 35q-2 0 -5 -2 q-37 -30 -127.5 -57.5t-177.5 -28.5h-10q-106 0 -202 29.5t-146 84.5q-44 48 -61 97.5t-17 122.5v208q0 75 -18.5 103t-90.5 41q-67 11 -67 41z" />
<glyph unicode="&#x428;" horiz-adv-x="2117" d="M39 12q0 26 67 37q81 14 120.5 47.5t39.5 102.5v925q0 73 -29 104.5t-106 45.5q-68 12 -68 41q0 22 60 22q58 0 126 -3t113 -3q41 0 103.5 3t120.5 3q59 0 59 -22q0 -30 -67 -41q-79 -14 -111.5 -46t-32.5 -104v-921q0 -50 30 -84.5t77 -34.5h301q45 0 74.5 11.5t42 33.5 t16.5 41.5t4 46.5v905q0 74 -29.5 106t-107.5 46q-68 12 -68 41q0 22 60 22q58 0 126 -3t113 -3q41 0 103 3t120 3q60 0 60 -22q0 -29 -68 -41q-79 -14 -112 -45.5t-33 -102.5v-938q0 -104 127 -104h299q51 0 85 42.5t34 90.5v907q0 72 -30 104t-108 46q-67 11 -67 41 q0 22 59 22q58 0 126.5 -3t113.5 -3q41 0 103 3t120 3q59 0 59 -22q0 -30 -67 -41q-79 -14 -112.5 -46t-33.5 -102v-925q0 -69 40.5 -103.5t121.5 -48.5q68 -12 68 -37q0 -22 -60 -22q-58 0 -126 5t-113 5q-145 0 -378.5 1t-334.5 1q-435 0 -709 -2q-50 0 -127.5 -5 t-134.5 -5q-59 0 -59 22z" />
<glyph unicode="&#x429;" horiz-adv-x="2117" d="M39 12q0 26 67 37q81 14 120.5 47.5t39.5 102.5v925q0 73 -29 104.5t-106 45.5q-68 12 -68 41q0 22 60 22q58 0 126 -3t113 -3q41 0 103.5 3t120.5 3q59 0 59 -22q0 -30 -67 -41q-79 -14 -111.5 -46t-32.5 -104v-921q0 -50 30 -84.5t77 -34.5h301q45 0 74.5 11.5t42 33.5 t16.5 41.5t4 46.5v905q0 74 -29.5 106t-107.5 46q-68 12 -68 41q0 22 60 22q58 0 126 -3t113 -3q41 0 103 3t120 3q60 0 60 -22q0 -29 -68 -41q-79 -14 -112 -45.5t-33 -102.5v-938q0 -104 127 -104h299q51 0 85 42.5t34 90.5v907q0 72 -30 104t-108 46q-67 11 -67 41 q0 22 59 22q58 0 126.5 -3t113.5 -3q41 0 103 3t120 3q59 0 59 -22q0 -30 -67 -41q-79 -14 -112.5 -46t-33.5 -102l2 -931q0 -42 41.5 -75.5t118.5 -33.5q19 0 31 -13t12 -32q0 -13 -30 -149t-35 -248q-2 -26 -16 -45t-38 -19q-43 0 -43 88q3 138 -13.5 209t-54 97 t-112.5 26q-428 2 -645 2q-435 0 -709 -2q-50 0 -127.5 -5t-134.5 -5q-59 0 -59 22z" />
<glyph unicode="&#x42a;" horiz-adv-x="1374" d="M39 1114q15 158 16 199q0 8 6 18t15 10q7 0 38 -4t33 -4q23 0 105 -1t150.5 -1.5t166.5 0.5q41 0 103.5 3t120.5 3q59 0 59 -22q0 -29 -68 -41q-79 -14 -113 -46.5t-34 -101.5v-290q0 -111 18 -111q1 0 37.5 11.5t94.5 24.5t104 13q188 0 300 -100t112 -277 q0 -47 -8.5 -88t-18.5 -69t-31.5 -56.5t-33.5 -42.5t-41 -34.5t-36.5 -25t-35.5 -20.5q-115 -69 -328 -69q-13 0 -80.5 4t-114.5 4q-51 0 -128 -5t-138 -5q-59 0 -59 22q0 26 67 37q81 14 120.5 49t39.5 107v919q0 68 -16 97.5t-66 29.5h-131q-36 0 -62.5 -10t-41 -22 t-24.5 -33.5t-13 -33.5t-6 -32q-3 -18 -21 -43.5t-28 -25.5t-21 19.5t-8 43.5zM637 211q0 -74 31 -105q18 -20 56 -35.5t75 -15.5q53 0 94.5 6.5t84.5 26.5t71.5 53.5t47.5 90.5t21 135q2 73 -26 136.5t-60 96t-65 51.5q-26 14 -41 20.5t-51.5 13.5t-83.5 7 q-28 0 -73.5 -9.5t-58.5 -18.5q-22 -15 -22 -52v-401z" />
<glyph unicode="&#x42b;" horiz-adv-x="1710" d="M39 12q0 26 67 37q81 14 120.5 49t39.5 107v919q0 72 -30.5 104t-108.5 46q-68 12 -68 41q0 22 60 22q58 0 126 -3t113 -3q41 0 103.5 3t120.5 3q59 0 59 -22q0 -29 -68 -41q-79 -14 -113 -46.5t-34 -101.5v-290q0 -103 18 -103q3 -1 21.5 6.5t21.5 10.5q73 24 193 24 q188 0 300 -100t112 -277q0 -47 -8.5 -88t-18.5 -69t-31.5 -56.5t-33.5 -42.5t-41 -34.5t-36.5 -25t-35.5 -20.5q-115 -69 -328 -69q-13 0 -80 4t-114 4q-51 0 -128.5 -5t-138.5 -5q-59 0 -59 22zM426 629q-6 -127 4 -408q4 -75 35 -106q60 -60 123 -60q53 0 94.5 6.5 t84.5 26.5t71.5 53.5t47.5 90.5t21 135q2 73 -26 136.5t-60 96t-65 51.5q-94 51 -213 51q-61 0 -94 -22q-20 -13 -23 -51zM1053 12q0 26 67 37q81 14 120.5 48.5t39.5 103.5v925q0 71 -30 102.5t-107 45.5q-68 12 -68 41q0 22 60 22q58 0 126 -3t113 -3q41 0 103 3t120 3 q60 0 60 -22q0 -29 -68 -41q-79 -14 -112 -46t-33 -102v-925q0 -69 40.5 -103.5t121.5 -48.5q67 -11 67 -37q0 -22 -59 -22q-58 0 -126.5 5t-113.5 5q-50 0 -127.5 -5t-134.5 -5q-59 0 -59 22z" />
<glyph unicode="&#x42c;" horiz-adv-x="1163" d="M39 12q0 26 67 37q81 14 120.5 49t39.5 107v919q0 72 -30.5 104t-108.5 46q-68 12 -68 41q0 22 60 22q58 0 126 -3t113 -3q41 0 103.5 3t120.5 3q59 0 59 -22q0 -29 -68 -41q-79 -14 -113 -46.5t-34 -101.5v-290q0 -111 18 -111q1 0 37.5 11.5t94.5 24.5t104 13 q188 0 300 -100t112 -277q0 -47 -8.5 -88t-18.5 -69t-31.5 -56.5t-33.5 -42.5t-41 -34.5t-36.5 -25t-35.5 -20.5q-115 -69 -328 -69q-13 0 -80 4t-114 4q-51 0 -128.5 -5t-138.5 -5q-59 0 -59 22zM426 211q0 -74 31 -105q18 -20 56 -35.5t75 -15.5q53 0 94.5 6.5t84.5 26.5 t71.5 53.5t47.5 90.5t21 135q2 73 -26 136.5t-60 96t-65 51.5q-26 14 -41 20.5t-51.5 13.5t-83.5 7q-28 0 -73 -9.5t-58 -18.5q-23 -15 -23 -52v-401z" />
<glyph unicode="&#x42d;" horiz-adv-x="1314" d="M94 293q0 19 7 34.5t18 16.5h2q9 0 22 -16t19 -35q31 -87 86 -137q65 -60 137.5 -92.5t185.5 -32.5q109 0 195.5 51.5t139 139t82 192.5t34.5 223q2 18 -14 18q-84 4 -217 4q-360 0 -469 -30q-9 -3 -16 4.5t-7 17.5q0 4 31.5 29.5t73 50.5t61.5 25q150 0 334 -22t207 -23 q18 0 16 20q-7 110 -39 209t-86.5 179t-140.5 127.5t-191 47.5q-185 0 -289 -104q-27 -25 -60 -71.5t-44 -90.5q-11 -50 -24 -59q-5 -3 -11 -4q-13 -1 -17.5 13t-4.5 34q3 89 30 223q11 53 21 59q3 2 6 2q20 1 83 18t73 19q132 27 268 27q173 0 317.5 -91.5t226 -243.5 t81.5 -327q0 -137 -46.5 -268t-128 -233.5t-201.5 -165t-257 -62.5q-239 0 -346 41q-96 34 -115 94q-33 111 -33 189z" />
<glyph unicode="&#x42e;" horiz-adv-x="2078" d="M39 12q0 26 67 37q81 14 120.5 48.5t39.5 103.5v925q0 71 -30 102.5t-107 45.5q-68 12 -68 41q0 22 60 22q58 0 126 -3t113 -3q41 0 103.5 3t120.5 3q59 0 59 -22q0 -29 -68 -41q-79 -14 -112 -46t-33 -102v-393q0 -20 16 -20l244 -6q14 174 98.5 322.5t228.5 239.5 t316 91q177 0 325.5 -92.5t233 -247.5t84.5 -334q0 -187 -81.5 -350.5t-230.5 -264t-331 -100.5q-173 0 -318.5 90t-230.5 239t-94 323l-239 -9q-8 0 -14.5 -7t-6.5 -17v-389q0 -69 40.5 -103.5t121.5 -48.5q67 -11 67 -37q0 -22 -59 -22q-58 0 -126.5 5t-113.5 5 q-50 0 -127.5 -5t-134.5 -5q-59 0 -59 22zM887 717q0 -97 18.5 -191.5t57 -180.5t93.5 -151.5t133.5 -104t170.5 -38.5q80 0 149 33t117.5 89.5t83.5 130.5t51.5 155.5t16.5 165.5q0 120 -29 234t-83.5 209.5t-144.5 153.5t-202 58q-100 0 -183.5 -49t-136.5 -129.5 t-82.5 -180t-29.5 -204.5z" />
<glyph unicode="&#x42f;" horiz-adv-x="1409" d="M41 27q0 24 16 24q46 0 86 12.5t67.5 29.5t52.5 46.5t39 52.5t29 60t21 56t15 52q38 138 112.5 224t138.5 110q10 3 9 9.5t-9 9.5q-28 13 -90 52t-90 66q-31 31 -60.5 89.5t-29.5 119.5q0 306 490 306q63 0 132.5 -8t102.5 -7q23 1 90.5 3.5t132.5 2.5q60 0 60 -22 q0 -29 -68 -41q-79 -14 -112 -46t-33 -102v-925q0 -69 40.5 -103.5t121.5 -48.5q67 -11 67 -37q0 -22 -59 -22q-58 0 -126.5 5t-113.5 5q-50 0 -127.5 -5t-134.5 -5q-59 0 -59 22q0 26 67 37q160 28 160 152v432q0 20 -8 31t-25 10q-64 -6 -157 -44t-123 -73 q-48 -58 -83.5 -129.5t-88.5 -222.5q-24 -67 -119.5 -154.5t-175.5 -87.5q-37 0 -82 11.5t-66 25.5q-10 8 -10 27zM541 1036q0 -38 11 -77.5t36.5 -80.5t63 -73t96.5 -53t131 -23h30q37 0 53.5 14.5t16.5 61.5v379q0 50 -30.5 75t-110.5 25q-67 0 -119.5 -15t-85 -38.5 t-54 -56.5t-30 -67t-8.5 -71z" />
<glyph unicode="&#x430;" horiz-adv-x="817" d="M72 133q0 123 149 184l209 86q39 17 47 28.5t10 53.5l5 127q2 56 -32 96t-89 40q-35 0 -73.5 -21.5t-51.5 -44.5q-10 -18 -6 -68q2 -34 -142 -73q-6 -2 -11 4t-6 16.5t3 22.5q14 41 29 63.5t51 54.5q59 54 145 100t160 46q72 0 121 -54.5t47 -127.5l-10 -443 q-2 -62 15 -109.5t58 -47.5q50 0 82 28q10 10 23 0.5t8 -24.5q-6 -18 -59 -58.5t-103 -40.5q-33 0 -59 11t-40.5 26.5t-24.5 31.5t-16.5 27t-10.5 11q-8 0 -28 -16.5t-45 -36.5t-73.5 -36.5t-105.5 -17.5q-63 0 -119.5 51t-56.5 111zM236 178q0 -53 32.5 -82.5t67.5 -29.5 q60 0 123 55q24 21 24 82l4 100q3 41 -22 41q-5 0 -25 -4q-107 -31 -155.5 -75.5t-48.5 -86.5z" />
<glyph unicode="&#x431;" horiz-adv-x="958" d="M72 516q0 186 36 311t134 265q78 108 193.5 177t211.5 93q92 22 125.5 35t67.5 37q2 2 8 2q12 0 12 -23q0 -54 -30.5 -107t-67.5 -75q-42 -25 -92.5 -37.5t-173.5 -30.5q-128 -19 -201.5 -98t-73.5 -242v-26q0 -31 2 -45q0 -8 5.5 -8.5t13.5 6.5q120 98 245 98 q174 0 287 -121t113 -291q0 -93 -26.5 -174.5t-78.5 -147.5t-138.5 -104.5t-197.5 -38.5q-89 0 -155.5 27.5t-116.5 90t-75.5 169t-26.5 258.5zM240 463q2 -205 65 -317.5t184 -112.5q131 0 195 125q35 67 35 229q0 101 -29.5 189.5t-91.5 148t-145 59.5q-93 0 -154 -77 q-27 -33 -43.5 -102t-15.5 -142z" />
<glyph unicode="&#x432;" horiz-adv-x="878" d="M49 12q0 21 47 37q5 1 20 5t21.5 6t17.5 8t16 12t9 16.5t4 24.5v555q0 76 -75 98q-15 5 -23.5 9t-16.5 11.5t-8 16.5q0 18 48 18q39 0 72 -3.5t69 -2.5q24 0 75 4t97 4q169 0 258.5 -43t89.5 -151q0 -76 -49 -139q-41 -44 -107 -56q-24 -4 0 -10q33 -6 63.5 -18 t61.5 -32.5t49.5 -55t18.5 -78.5q0 -79 -35 -136.5t-82 -80.5q-75 -37 -270 -37q-10 0 -71 6t-95 6q-31 -1 -73 -6.5t-85 -5.5q-47 0 -47 18zM328 158q0 -103 112 -103q38 0 65 2.5t57.5 12.5t49 28.5t31 51.5t12.5 79q0 55 -32 99.5t-66 56.5q-49 18 -149 18q-80 0 -80 -51 v-194zM328 516q0 -51 59 -51q42 0 71 2t64 11t56.5 24.5t36 45t14.5 70.5q0 34 -8 60t-29 50.5t-64 38t-106 13.5q-55 0 -74.5 -16t-19.5 -51v-197z" />
<glyph unicode="&#x433;" horiz-adv-x="724" d="M55 12q0 21 47 37q21 6 31 10t24.5 12.5t20.5 22t6 33.5v487q0 131 -94 150q-11 2 -23 12t-12 23q0 10 17.5 18t27.5 8q26 0 61 -3t58 -3q1 0 12.5 -0.5t31.5 -1t45 -1t57.5 -1t62.5 -0.5q72 0 107 2q39 1 86 6.5t57 5.5h10q3 0 10.5 -7t6.5 -15q-9 -55 -9 -172 q0 -84 -26 -84q-21 0 -39 78q-8 36 -39 72t-62 36q-8 0 -62 1t-75 1h-20q-23 -4 -34 -28.5t-11 -48.5v-535q0 -8 2 -15.5t3.5 -12.5t7 -10.5t8.5 -9t11 -7.5t11 -6t13 -5.5t12 -4t13.5 -4t12.5 -3.5q47 -16 47 -37q0 -18 -41 -18h-6q-41 0 -83 5t-77 5t-77 -5t-83 -5h-6 q-41 0 -41 18z" />
<glyph unicode="&#x434;" horiz-adv-x="911" d="M3.5 71.5q-0.5 5.5 5 8.5t10.5 4t13.5 1t15 -0.5t14.5 -1.5t12 -1q39 0 68.5 31t47.5 75l177 457q9 26 14 53q3 11 5 27t3 27t2 12q15 3 66 63q5 6 12 15t10 11.5t6 2.5q9 0 15 -18l223 -619q3 -9 11 -32t10.5 -29t9.5 -22t11.5 -20.5t13 -14t17 -12t21 -5t27.5 -2.5 q6 0 20.5 1.5t23.5 2t20.5 -1t12.5 -8t-1 -19.5q-47 -120 -56 -340q-1 -23 -15.5 -43t-25.5 -20q-47 0 -43 88q17 258 -84 258h-467q-101 0 -84 -258q4 -88 -43 -88q-11 0 -25.5 20t-15.5 43q-9 223 -55 340q-2 9 -2.5 14.5zM258 106q14 -26 51 -26h246q26 0 36.5 16.5t9 38 t-10.5 47.5l-146 416q-4 11 -6 15t-4 7.5t-4 0t-4 -7.5t-6 -15l-156 -426q-14 -44 -6 -66z" />
<glyph unicode="&#x435;" horiz-adv-x="794" d="M68 377q0 119 47.5 226t136.5 176t197 69q147 0 215.5 -52t68.5 -134q0 -92 -43 -113q-48 -23 -115 -23h-335q-28 0 -40 -13.5t-12 -61.5q0 -150 87.5 -251.5t222.5 -101.5q122 0 184 82q10 10 18 10q11 0 19.5 -10t5.5 -22q-8 -29 -32.5 -60t-63 -60t-97.5 -48t-126 -19 q-91 0 -169.5 57.5t-123.5 151t-45 197.5zM229 610.5q6 -20.5 37 -20.5h168q96 0 150 10q6 1 10 8t5.5 19t1.5 21t-0.5 21t-0.5 13q-4 49 -47 75.5t-117 26.5q-126 0 -200 -133q-13 -20 -7 -40.5z" />
<glyph unicode="&#x436;" horiz-adv-x="1329" d="M0 25q0 25 92 41q32 6 68 30.5t57 55.5l184 282q14 20 -2 43q-19 27 -69.5 104.5t-63.5 94.5q-16 21 -28 28t-39 7q-13 0 -37.5 -22.5t-40.5 -22.5q-29 0 -50.5 34t-21.5 62t27.5 60t62.5 32q38 0 94 -30t86 -81q78 -124 146 -221q18 -26 52 -41.5t67 -15.5q2 0 7 -0.5 t7.5 -0.5t5 2t2.5 7q0 97 -2 201q-3 79 -76 100q-47 16 -47 37q0 18 47 18q41 0 75 -5t69 -5t66.5 5t72.5 5q47 0 47 -18q0 -21 -47 -37q-74 -22 -74 -102q-2 -104 -2 -199q0 -5 2.5 -7t5 -2t8 0.5t7.5 0.5q33 0 65.5 15.5t50.5 41.5q103 146 166 221q42 52 89.5 81.5 t80.5 29.5q35 0 62.5 -32t27.5 -60t-21 -62t-50 -34q-16 0 -40.5 22.5t-37.5 22.5q-27 0 -39.5 -7t-28.5 -28l-143 -199q-16 -23 -2 -43l184 -282q21 -31 57 -55.5t68 -30.5q92 -16 92 -41q0 -11 -13 -20.5t-45.5 -17t-78.5 -7.5q-127 0 -198 108l-177 268q-41 64 -71 64 q-4 0 -9.5 -3t-8.5 -6l-3 -3q1 -39 2 -138t2 -143q0 -8 1.5 -15.5t3.5 -13t6.5 -11t7 -9t10 -7.5t10.5 -5.5t12.5 -5t11.5 -4t13 -4t12 -3.5q47 -16 47 -37q0 -18 -47 -18q-41 0 -78.5 5t-72.5 5t-77 -5t-83 -5q-47 0 -47 18q0 21 47 37q5 1 20.5 5.5t21 6.5t17 7.5t16.5 12 t9 17.5t4 25q1 46 1 146.5t1 138.5q-10 12 -20 12q-33 0 -74 -64l-176 -268q-71 -108 -199 -108q-46 0 -78.5 7.5t-45.5 17t-13 20.5z" />
<glyph unicode="&#x437;" horiz-adv-x="751" d="M51 215q0 51 31 51q12 0 37 -61q36 -81 90.5 -118.5t116.5 -37.5q84 0 136 48.5t52 138.5q0 67 -30 116t-87 49q-14 0 -43 -6t-53 -6q-28 0 -49 11t-21 34q0 51 84 51q12 0 39.5 -6t48.5 -6q38 0 70.5 36.5t32.5 94.5q0 44 -12.5 81.5t-48 66t-89.5 28.5 q-108 0 -188 -131q-8 -13 -17.5 -39t-17.5 -40.5t-20 -14.5q-16 0 -19.5 11t-3.5 36q0 19 1 33t2 22t4 26.5t5 35.5q5 48 29 59q47 22 121 43t131 21q120 0 194 -48.5t74 -156.5q0 -44 -13 -81t-30 -54q-22 -21 -37 -29.5t-59 -26.5q-5 -2 -5.5 -8t5.5 -6q67 -7 117.5 -55 t50.5 -131q0 -28 -4.5 -53t-9.5 -42.5t-17 -34.5t-19 -26t-23 -21t-22 -15.5t-24 -13.5t-20 -11q-71 -45 -238 -45q-63 0 -145.5 31t-94.5 79q-12 55 -12 121z" />
<glyph unicode="&#x438;" horiz-adv-x="1044" d="M51 12q0 21 47 37q23 7 32 10.5t25 12.5t22.5 23t6.5 34v561q0 20 -6 34t-18.5 22.5t-23.5 13t-30 10.5q-47 16 -47 37q0 18 41 18h6q41 0 79 -5t73 -5t71 5t77 5h6q41 0 41 -18q0 -21 -47 -37q-19 -6 -30 -10.5t-23.5 -13t-18.5 -22.5t-6 -34v-409q0 -7 8.5 -11.5 t11.5 -1.5l359 375q10 13 10 27v20q0 38 -17.5 53.5t-54.5 26.5q-47 16 -47 37q0 18 41 18h6q41 0 77 -5t71 -5t72.5 5t78.5 5h6q41 0 41 -18q0 -21 -47 -37q-27 -8 -41.5 -14t-28.5 -23t-14 -43v-561q0 -20 7 -33.5t23.5 -23t27 -13.5t32.5 -10q47 -16 47 -37 q0 -18 -41 -18h-6q-41 0 -82.5 5t-76.5 5t-77 -5t-83 -5h-6q-41 0 -41 18q0 21 47 37q21 6 31.5 10t25.5 13t22 23t7 34v412q0 11 -5 11q-1 1 -3 -1l-375 -375q-6 -6 -6 -26v-21q0 -16 6.5 -29t12 -20t23 -14.5t22.5 -9t26 -7.5q47 -16 47 -37q0 -18 -41 -18h-6q-41 0 -83 5 t-77 5t-77 -5t-83 -5h-6q-41 0 -41 18z" />
<glyph unicode="&#x439;" horiz-adv-x="1044" d="M51 12q0 21 47 37q23 7 32 10.5t25 12.5t22.5 23t6.5 34v561q0 20 -6 34t-18.5 22.5t-23.5 13t-30 10.5q-47 16 -47 37q0 18 41 18h6q41 0 79 -5t73 -5t71 5t77 5h6q41 0 41 -18q0 -21 -47 -37q-19 -6 -30 -10.5t-23.5 -13t-18.5 -22.5t-6 -34v-409q0 -7 8.5 -11.5 t11.5 -1.5l359 375q10 13 10 27v20q0 38 -17.5 53.5t-54.5 26.5q-47 16 -47 37q0 18 41 18h6q41 0 77 -5t71 -5t72.5 5t78.5 5h6q41 0 41 -18q0 -21 -47 -37q-27 -8 -41.5 -14t-28.5 -23t-14 -43v-561q0 -20 7 -33.5t23.5 -23t27 -13.5t32.5 -10q47 -16 47 -37 q0 -18 -41 -18h-6q-41 0 -82.5 5t-76.5 5t-77 -5t-83 -5h-6q-41 0 -41 18q0 21 47 37q21 6 31.5 10t25.5 13t22 23t7 34v412q0 11 -5 11q-1 1 -3 -1l-375 -375q-6 -6 -6 -26v-21q0 -16 6.5 -29t12 -20t23 -14.5t22.5 -9t26 -7.5q47 -16 47 -37q0 -18 -41 -18h-6q-41 0 -83 5 t-77 5t-77 -5t-83 -5h-6q-41 0 -41 18zM262 1206q0 38 20.5 61t51.5 23q30 0 51 -19.5t21 -43.5q0 -20 -8.5 -48t-8.5 -44q0 -29 41 -49.5t90 -20.5q47 0 91 19t44 46q0 22 -10 50t-10 47q0 24 21 43.5t51 19.5q31 0 51 -23t20 -61q0 -94 -73.5 -148t-184.5 -54 q-258 0 -258 202z" />
<glyph unicode="&#x43a;" horiz-adv-x="937" d="M49 12q0 21 47 37q5 1 20 5t21.5 6t17.5 8t16 12t9 16.5t4 24.5q0 504 -2 555q-3 77 -73 98q-15 5 -23.5 9t-16.5 11.5t-8 16.5q0 18 48 18q41 0 74.5 -5t68.5 -5t70.5 5t76.5 5q47 0 47 -18q0 -21 -47 -37q-73 -21 -73 -102q-2 -104 -2 -199q0 -5 2.5 -7t5 -2t7.5 0.5 t7 0.5q35 0 75 16t58 41q103 146 166 221q42 52 89.5 81.5t80.5 29.5q35 0 62.5 -32t27.5 -60t-21 -62t-50 -34q-16 0 -40.5 22.5t-37.5 22.5q-27 0 -39.5 -7t-28.5 -28q-30 -39 -143 -199q-16 -23 -2 -43l184 -282q21 -31 57 -55.5t68 -30.5q92 -16 92 -41q0 -11 -13 -20.5 t-45.5 -17t-78.5 -7.5q-144 0 -215 108l-176 268q-41 64 -72 64q-4 0 -9 -3t-8 -6l-3 -3q1 -39 2 -138t2 -143q0 -8 1.5 -15.5t3.5 -13t6.5 -11t7 -9t10 -7.5t10.5 -5.5t12.5 -5t11.5 -4t13 -4t12 -3.5q47 -16 47 -37q0 -18 -47 -18q-41 0 -83 5t-77 5t-77 -5t-83 -5 q-47 0 -47 18z" />
<glyph unicode="&#x43b;" horiz-adv-x="890" d="M-6 12q0 21 47 37q61 18 94 43q24 17 55 96l177 457q9 26 14 53q3 11 5 27t3 27t2 12q15 3 66 63q5 6 12 15t10 11.5t6 2.5q9 0 15 -18l223 -619q28 -76 55 -114.5t82 -55.5q47 -12 47 -37q0 -18 -41 -18h-6q-41 0 -79.5 5t-73.5 5t-67 -5t-73 -5h-6q-41 0 -41 18 q0 21 47 37q32 9 39.5 14.5t7.5 20.5q0 28 -24 98l-146 416q-5 17 -8 21t-6.5 0t-9.5 -21l-156 -426q-6 -18 -6.5 -33t2.5 -26t12.5 -20.5t17 -15t23 -12t23 -9t24.5 -7.5q15 -5 23.5 -9t16.5 -11.5t8 -16.5q0 -18 -41 -18h-7q-41 0 -82.5 5t-76.5 5t-77 -5t-83 -5h-6 q-41 0 -41 18z" />
<glyph unicode="&#x43c;" horiz-adv-x="1300" d="M41.5 17.5q0.5 23.5 11.5 25.5q25 6 35 8.5t29 10t27 15t16 21t10 31.5q9 67 24 169t21.5 149.5t12 106.5t5.5 101q0 10 -1 23.5t-1 17.5q0 14 -20 37q-28 32 -119 53q-13 3 -13 31q1 20 11 19q67 -11 139 -11q33 0 69 2t44 2q21 0 23 -4q54 -135 142.5 -307t141.5 -301 q16 -43 33 -4q25 52 57.5 117l45.5 91t34 71t40 91t48 117q5 11 12.5 30t13 32.5t12 27.5t11 21.5t7.5 7.5h67q37 0 94.5 9.5t89.5 9.5q12 0 2 -26q-6 -16 -14 -19q-17 -5 -33.5 -7.5t-26 -6.5t-26.5 -15q-18 -14 -18 -27q0 -6 -2 -19t-2 -20q3 -301 26 -548q2 -34 33 -58 q43 -38 94 -47q10 -3 12 -27t-12 -24q-18 0 -74 4t-94 4q-45 0 -117 -4t-83 -4q-13 0 -15 24t8 27q15 4 24.5 7t17 8t9.5 6.5t10 10t11 11.5q29 29 29 62q2 72 -0.5 129t-8 136.5t-8.5 149.5q-1 16 -3.5 20.5t-6.5 -1t-10 -19.5q-252 -526 -270 -567q-14 -33 -35 -33 q-29 0 -45 37l-260 573q-4 9 -8 12.5t-7 0.5t-4 -13q-5 -52 -23 -177t-24 -236q0 -25 9.5 -41.5t31.5 -38.5q17 -19 29.5 -25t46.5 -14q11 -2 14 -25.5t-14 -23.5q-27 0 -77 4t-81 4q-35 0 -89.5 -4t-76.5 -4q-12 0 -11.5 23.5z" />
<glyph unicode="&#x43d;" horiz-adv-x="1044" d="M51 12q0 21 47 37q23 7 32 10.5t25 12.5t22.5 23t6.5 34v561q0 20 -6 34t-18.5 22.5t-23.5 13t-30 10.5q-47 16 -47 37q0 18 41 18h6q41 0 79 -5t73 -5t71 5t77 5h6q41 0 41 -18q0 -21 -47 -37q-19 -6 -30 -10.5t-23.5 -13t-18.5 -22.5t-6 -34v-211q0 -12 20 -12h359 q10 0 10 16v207q0 38 -17.5 53.5t-54.5 26.5q-47 16 -47 37q0 18 41 18h6q41 0 77 -5t71 -5t72.5 5t78.5 5h6q41 0 41 -18q0 -21 -47 -37q-27 -8 -41.5 -14t-28.5 -23t-14 -43v-561q0 -20 7 -33.5t23.5 -23t27 -13.5t32.5 -10q47 -16 47 -37q0 -18 -41 -18h-6q-41 0 -82.5 5 t-76.5 5t-77 -5t-83 -5h-6q-41 0 -41 18q0 21 47 37q21 6 31.5 10t25.5 13t22 23t7 34v252q0 7 -1.5 8.5t-6.5 1.5h-375q-6 0 -6 -14v-248q0 -16 6.5 -29t12 -20t23 -14.5t22.5 -9t26 -7.5q47 -16 47 -37q0 -18 -41 -18h-6q-41 0 -83 5t-77 5t-77 -5t-83 -5h-6q-41 0 -41 18 z" />
<glyph unicode="&#x43e;" horiz-adv-x="1013" d="M72 383q0 113 58.5 220t163 176t226.5 69q87 0 166 -33.5t134.5 -89.5t88.5 -131.5t33 -157.5q0 -92 -30 -174.5t-86 -148t-146 -104t-201 -38.5q-173 0 -290 116.5t-117 295.5zM240 430q0 -102 35.5 -192.5t101.5 -147.5t145 -57q154 0 211 112q41 78 41 242 q0 99 -35 189t-102.5 149t-151.5 59q-59 0 -102 -18.5t-78 -63.5q-65 -83 -65 -272z" />
<glyph unicode="&#x43f;" horiz-adv-x="1050" d="M63 12q0 9 8 16.5t16.5 11.5t23.5 9q19 6 29.5 10t22 12.5t16.5 22t5 33.5v487q0 64 -18.5 98t-67.5 44q-11 2 -23 13.5t-12 25.5q0 11 18.5 20.5t27.5 9.5q26 0 56.5 -3t53.5 -3h25q24 0 64 -0.5t88.5 -1t107.5 -0.5h110q172 0 217 2q23 0 58 3t61 3q9 0 27 -9.5 t18 -20.5q0 -14 -11.5 -25.5t-22.5 -13.5q-95 -20 -95 -142v-487q0 -20 5 -33.5t17 -22t22.5 -12.5t29.5 -10q47 -16 47 -37q0 -18 -41 -18h-6q-41 0 -77.5 5t-71.5 5t-73 -5t-79 -5h-6q-41 0 -41 18q0 21 47 37q22 6 31.5 10t24.5 12.5t21.5 22t6.5 33.5v535q0 77 -33 77 h-328q-34 0 -34 -77v-535q0 -20 6.5 -33.5t21.5 -22t24.5 -12.5t31.5 -10q47 -16 47 -37q0 -18 -41 -18h-6q-41 0 -78 5t-72 5t-72.5 -5t-78.5 -5h-7q-41 0 -41 18z" />
<glyph unicode="&#x440;" horiz-adv-x="1062" d="M39 -565q0 21 47 37q55 16 70 31q18 18 18 46v1039q0 19 -8.5 49t-31.5 62t-54 38q-15 3 -15.5 25.5t13.5 25.5q89 21 237 82q1 0 2 1t2 1q8 0 13 -14q1 -9 -3.5 -46t-6.5 -62t2 -37q39 39 142 87t189 48q77 0 142 -33.5t107 -89t65 -125t22 -143.5q-1 -120 -62 -231.5 t-168 -183t-231 -71.5q-46 0 -110.5 20t-93.5 46q-4 0 -6.5 -42.5t-2.5 -62.5v-383q0 -16 7.5 -28t24 -20t27 -12t33.5 -10t27 -7q47 -16 47 -37q0 -19 -45 -19q-41 0 -99 5.5t-93 5.5t-79 -5.5t-85 -5.5q-43 0 -43 19zM319 551q-4 -181 3 -315q6 -109 49 -150 q55 -51 190 -51q26 0 58.5 10.5t69.5 37.5t67.5 66.5t50.5 103.5t20 142q0 90 -21 158t-51 105.5t-70.5 60.5t-72.5 30t-63 7q-98 0 -176 -60q-49 -36 -54 -145z" />
<glyph unicode="&#x441;" horiz-adv-x="772" d="M72 369q0 126 54.5 235t155 175.5t222.5 66.5q167 0 246 -98q32 -39 -41 -86q-12 -9 -29 -9q-28 0 -49 21q-55 60 -88 78t-105 18q-71 0 -124 -46.5t-77 -114.5t-24 -146q0 -99 39.5 -186.5t115.5 -143t171 -55.5q62 0 100 23t80 79q10 10 18 10q11 0 19.5 -10t5.5 -22 q-18 -63 -114.5 -125t-225.5 -62q-101 0 -182 55.5t-124.5 146t-43.5 196.5z" />
<glyph unicode="&#x442;" horiz-adv-x="825" d="M27 627q-10 -45 12 -45q13 0 29 18.5t22 32.5q17 40 26 59t23.5 34t32.5 15h131q25 0 25 -65v-543q0 -21 -7 -36t-22 -24t-25.5 -13.5t-31.5 -10.5q-47 -16 -47 -37q0 -18 47 -18q41 0 82.5 5t76.5 5t77 -5t83 -5q47 0 47 18q0 21 -47 37q-22 6 -32.5 10t-27 13.5 t-23.5 24t-7 34.5v545q0 65 31 65h164q26 0 48 -35t25 -73q2 -16 12 -33.5t23 -17.5t21 15t6 30q-9 129 4 184q3 14 -6.5 25.5t-16.5 11.5q-16 0 -39 -19q-13 -10 -88 -10h-454q-75 0 -88 10q-23 19 -31 19t-19.5 -12t-11.5 -25q0 -36 -8 -95t-16 -89z" />
<glyph unicode="&#x443;" horiz-adv-x="897" d="M10 811q0 18 41 18h6q41 0 75 -5t69 -5t71.5 5t77.5 5h6q41 0 41 -18q0 -21 -47 -37q-30 -9 -41.5 -53t4.5 -82l162 -401q17 -40 31 2l137 364q19 47 6.5 104t-43.5 66q-47 16 -47 37q0 18 41 18h6q10 0 54 -5t85 -5q40 0 70 5t45 5h6q41 0 41 -18q0 -21 -47 -37 q-31 -9 -66 -48.5t-55 -88.5l-278 -664q-2 -5 -32.5 -81.5t-77 -190.5t-83.5 -201q-38 -84 -123 -84q-35 0 -61.5 26t-26.5 60q0 37 29 69t59 32q10 0 33 -19.5t35 -19.5t20 14q12 21 26 51.5t31.5 74.5t30 77t35 94.5t33.5 91.5q7 21 6.5 53t-8.5 54l-237 600 q-34 83 -93 100q-47 16 -47 37z" />
<glyph unicode="&#x444;" horiz-adv-x="1198" d="M72 383q0 105 43 195.5t110.5 147.5t146.5 89.5t154 32.5v219q0 60 -21.5 91.5t-72.5 41.5q-15 3 -15.5 25.5t13.5 25.5q36 9 73 20.5t59 20t57 22.5t49 19q1 0 2 1t2 1q4 0 8 -4.5t4 -9.5q0 -6 -3.5 -38.5t-7 -96t-3.5 -144.5v-194q93 0 178 -35t145.5 -92t96.5 -132 t36 -153q0 -142 -63 -249.5t-166 -161.5t-227 -54v-420q0 -18 6.5 -31.5t20 -21.5t24 -12t30.5 -10q5 -1 7 -2q47 -16 47 -37q0 -19 -41 -19h-6q-41 0 -83 5.5t-77 5.5t-77 -5.5t-83 -5.5h-6q-41 0 -41 19q0 21 47 37q55 16 70 31q18 18 18 46v420q-112 0 -216.5 54.5 t-171 150.5t-66.5 207zM240 430q0 -88 43 -180t110 -151.5t133 -59.5v743q-56 0 -121.5 -34.5t-99.5 -77.5q-39 -49 -52 -104t-13 -136zM670 35q72 0 142 36.5t97 90.5q49 94 49 225q0 174 -88.5 284.5t-199.5 110.5v-747z" />
<glyph unicode="&#x445;" horiz-adv-x="880" d="M20 10q0 24 48 37q30 9 59.5 34t77.5 83l174 217q13 16 13 24.5t-9 22.5l-166 258q-26 41 -45 59t-49 27q-47 12 -47 37q0 18 47 18q37 0 73 -4t89 -4q25 0 53 2t51 2q47 0 47 -18q0 -26 -43 -37q-21 -6 -29 -16.5t-3.5 -29t22.5 -46.5l82 -127q11 -18 16 -10l101 153 q7 11 11.5 22t5 22.5t-6 20.5t-21.5 13q-47 16 -47 37q0 18 47 18q8 0 46.5 -3t56.5 -3q41 0 77.5 5t45.5 5h6q41 0 41 -18q0 -21 -47 -37q-98 -29 -146 -96l-133 -189q-8 -12 2 -26l199 -330q26 -41 45 -59t49 -27q47 -12 47 -37q0 -18 -41 -18h-6q-37 0 -75.5 4t-90.5 4 q-25 0 -75.5 -1t-73.5 -1q-47 0 -47 18q0 21 47 37q15 4 25 8t21.5 11.5t16.5 16.5t3.5 23t-11.5 31l-111 189q-9 16 -16 6l-137 -201q-5 -8 -8.5 -24.5t2 -35.5t24.5 -24q47 -16 47 -37q0 -18 -47 -18q-10 0 -50 2t-58 2q-41 0 -81 -5t-50 -5h-7q-41 0 -41 18z" />
<glyph unicode="&#x446;" horiz-adv-x="1052" d="M63 12q0 9 8 16.5t16.5 11.5t23.5 9q19 6 29.5 10t22 12.5t16.5 22t5 33.5v565q0 20 -5 33.5t-16.5 22t-22 12.5t-29.5 10q-15 5 -23.5 9t-16.5 11.5t-8 16.5q0 18 41 18h7q41 0 78.5 -5t72.5 -5t72 5t78 5h6q41 0 41 -18q0 -21 -47 -37q-22 -6 -31.5 -10t-24.5 -12.5 t-21.5 -22t-6.5 -33.5v-534q0 -78 34 -78h330q33 0 33 78v534q0 20 -6.5 33.5t-21.5 22t-24.5 12.5t-31.5 10q-47 16 -47 37q0 18 41 18h6q41 0 79 -5t73 -5t71.5 5t77.5 5h6q41 0 41 -18q0 -21 -47 -37q-19 -6 -29.5 -10t-22.5 -12.5t-17 -22t-5 -33.5v-586q0 -26 68 -26 q7 0 23 2t28 3t23.5 -0.5t16 -8t-0.5 -19.5q-46 -117 -55 -340q-1 -23 -15.5 -43t-25.5 -20q-47 0 -43 88q8 125 -9.5 191.5t-72.5 66.5h-586q-19 0 -41.5 -3t-66.5 -3q-48 0 -48 18z" />
<glyph unicode="&#x447;" horiz-adv-x="917" d="M14 807q0 18 41 18h6q41 0 66.5 -5t60.5 -5t68 5t74 5h6q41 0 41 -18q0 -21 -47 -37q-25 -7 -38.5 -14t-24.5 -23.5t-11 -42.5v-106q0 -74 48 -130.5t116 -56.5q86 0 141 39q29 20 29 43v211q0 38 -17.5 53.5t-54.5 26.5q-47 16 -47 37q0 18 41 18h6q41 0 77 -5t71 -5 t72.5 5t78.5 5h6q41 0 41 -18q0 -21 -47 -37q-27 -8 -41.5 -14t-28.5 -23t-14 -43v-561q0 -20 7 -33.5t23.5 -23t27 -13.5t32.5 -10q47 -16 47 -37q0 -18 -41 -18h-6q-41 0 -82.5 5t-76.5 5t-77 -5t-83 -5h-6q-41 0 -41 18q0 21 47 37q21 6 31.5 10t25.5 13t22 23t7 34v244 q0 28 -11 29q-3 0 -6 -3q-35 -32 -95 -54.5t-118 -22.5q-79 0 -122 23t-80 71q-17 23 -31 67t-14 72v135q0 40 -10.5 55.5t-41.5 24.5q-47 16 -47 37z" />
<glyph unicode="&#x448;" horiz-adv-x="1443" d="M63 12q0 9 8 16.5t16.5 11.5t23.5 9q19 6 29.5 10t22 12.5t16.5 22t5 33.5v565q0 20 -5 33.5t-16.5 22t-22 12.5t-29.5 10q-15 5 -23.5 9t-16.5 11.5t-8 16.5q0 18 41 18h7q41 0 78.5 -5t72.5 -5t72 5t78 5h6q41 0 41 -18q0 -21 -47 -37q-22 -6 -31.5 -10t-24.5 -12.5 t-21.5 -22t-6.5 -33.5v-534q0 -78 34 -78h261q32 0 32 78v534q0 20 -6.5 33.5t-21.5 22t-24.5 12.5t-31.5 10q-47 16 -47 37q0 18 41 18h6q41 0 79 -5t73 -5t71.5 5t77.5 5h7q41 0 41 -18q0 -9 -8 -16.5t-16.5 -11.5t-23.5 -9q-19 -6 -29.5 -10t-22 -12.5t-16.5 -22 t-5 -33.5v-534q0 -78 32 -78h250q35 0 35 78v534q0 20 -6.5 33.5t-21.5 22t-24.5 12.5t-31.5 10q-47 16 -47 37q0 18 41 18h6q41 0 79 -5t73 -5t71.5 5t77.5 5h6q41 0 41 -18q0 -21 -47 -37q-19 -6 -29.5 -10t-22 -12.5t-16.5 -22t-5 -33.5v-565q0 -26 11.5 -42.5t24.5 -22 t39 -13.5q47 -16 47 -37q0 -18 -41 -18h-6q-44 0 -66.5 3t-41.5 3h-1008q-19 0 -41.5 -3t-66.5 -3h-7q-41 0 -41 18z" />
<glyph unicode="&#x449;" horiz-adv-x="1443" d="M63 12q0 9 8 16.5t16.5 11.5t23.5 9q19 6 29.5 10t22 12.5t16.5 22t5 33.5v565q0 20 -5 33.5t-16.5 22t-22 12.5t-29.5 10q-15 5 -23.5 9t-16.5 11.5t-8 16.5q0 18 41 18h7q41 0 78.5 -5t72.5 -5t72 5t78 5h6q41 0 41 -18q0 -21 -47 -37q-22 -6 -31.5 -10t-24.5 -12.5 t-21.5 -22t-6.5 -33.5v-534q0 -78 34 -78h261q32 0 32 78v534q0 20 -6.5 33.5t-21.5 22t-24.5 12.5t-31.5 10q-47 16 -47 37q0 18 41 18h6q41 0 79 -5t73 -5t71.5 5t77.5 5h7q41 0 41 -18q0 -9 -8 -16.5t-16.5 -11.5t-23.5 -9q-19 -6 -29.5 -10t-22 -12.5t-16.5 -22 t-5 -33.5v-534q0 -78 32 -78h250q35 0 35 78v534q0 20 -6.5 33.5t-21.5 22t-24.5 12.5t-31.5 10q-47 16 -47 37q0 18 41 18h6q41 0 79 -5t73 -5t71.5 5t77.5 5h6q41 0 41 -18q0 -21 -47 -37q-19 -6 -29.5 -10t-22 -12.5t-16.5 -22t-5 -33.5v-583q0 -27 73 -27q8 0 24.5 1.5 t26.5 2.5t23 -0.5t14.5 -8.5t-0.5 -20q-46 -117 -55 -340q-1 -23 -15.5 -43t-25.5 -20q-17 0 -27 11t-13 32t-3.5 38.5t1 45.5t1.5 37q0 182 -57 182h-1008q-19 0 -41.5 -3t-66.5 -3q-48 0 -48 18z" />
<glyph unicode="&#x44a;" horiz-adv-x="972" d="M27 631q26 101 26 184q0 13 11.5 25t19.5 12q9 0 31 -18q16 -13 73 -13h207q35 0 73.5 2t78.5 2q49 0 49 -18q0 -21 -47 -37q-19 -6 -30 -10.5t-23.5 -13t-18.5 -22.5t-6 -34v-207q0 -7 7.5 -11t13.5 -1q33 16 137 16q29 0 64 -7t74 -23.5t70.5 -40.5t52.5 -62.5 t21 -85.5q0 -274 -350 -274q-41 0 -83 5t-77 5t-76 -5t-81 -5q-49 0 -49 18q0 21 47 37q23 7 32 10.5t25 12.5t22.5 23t6.5 34v561q0 20 -7 31.5t-25.5 16.5t-34 6t-48.5 1q-42 0 -62.5 -20t-56.5 -88q-9 -16 -25.5 -33.5t-29.5 -17.5q-22 0 -12 45zM471 150q0 -40 32 -69.5 t64 -29.5q72 0 119 37q41 32 58.5 65.5t17.5 79.5q0 101 -48 149t-147 48q-57 0 -78 -14q-18 -13 -18 -54v-212z" />
<glyph unicode="&#x44b;" horiz-adv-x="1249" d="M51 12q0 21 47 37q23 7 32 10.5t25 12.5t22.5 23t6.5 34v561q0 38 -16 54t-51 26q-47 16 -47 37q0 18 45 18q41 0 74.5 -5t68.5 -5t70 5t75 5q50 0 50 -18q0 -21 -47 -37q-19 -6 -30 -10.5t-23.5 -13t-18.5 -22.5t-6 -34v-207q0 -7 7 -11t13 -1q33 16 137 16q38 0 83 -12 t91.5 -35.5t77.5 -68.5t31 -103q0 -274 -350 -274q-41 0 -83 5t-77 5t-76.5 -5t-81.5 -5q-49 0 -49 18zM328 150q0 -40 32 -69.5t64 -29.5q72 0 119 37q41 32 58 65.5t17 79.5q0 101 -47.5 149t-146.5 48q-57 0 -78 -14q-18 -13 -18 -54v-212zM788 12q0 9 8 16.5t16.5 11.5 t23.5 9q23 7 32 10.5t25 12.5t22.5 23t6.5 34v561q0 20 -6 34t-18.5 22.5t-23.5 13t-30 10.5q-47 16 -47 37q0 18 47 18q41 0 78.5 -5t72.5 -5t70.5 5t75.5 5q49 0 49 -18q0 -21 -47 -37q-19 -6 -30 -10.5t-23.5 -13t-18.5 -22.5t-6 -34v-561q0 -16 6.5 -29t12 -20t23 -14.5 t22.5 -9t26 -7.5q47 -16 47 -37q0 -18 -47 -18q-41 0 -83 5t-77 5t-76 -5t-81 -5q-50 0 -50 18z" />
<glyph unicode="&#x44c;" horiz-adv-x="829" d="M51 12q0 21 47 37q23 7 32 10.5t25 12.5t22.5 23t6.5 34v561q0 38 -16 54t-51 26q-47 16 -47 37q0 18 45 18q41 0 74.5 -5t68.5 -5t70 5t75 5q50 0 50 -18q0 -21 -47 -37q-19 -6 -30 -10.5t-23.5 -13t-18.5 -22.5t-6 -34v-207q0 -7 7 -11t13 -1q33 16 137 16q38 0 83 -12 t91.5 -35.5t77.5 -68.5t31 -103q0 -274 -350 -274q-41 0 -83 5t-77 5t-76.5 -5t-81.5 -5q-49 0 -49 18zM328 150q0 -40 32 -69.5t64 -29.5q72 0 119 37q41 32 58 65.5t17 79.5q0 101 -47.5 149t-146.5 48q-57 0 -78 -14q-18 -13 -18 -54v-212z" />
<glyph unicode="&#x44d;" horiz-adv-x="815" d="M61 152q0 55 25 55q8 0 18.5 -10.5t21.5 -25.5t13 -17q56 -63 106.5 -86t121.5 -23q103 0 164 89.5t61 242.5q0 18 -14 18q-64 0 -186 -8t-199 -8q-37 0 -37 16q0 18 39.5 45.5t70.5 28.5q74 2 163.5 -3t145.5 -5q6 0 11.5 5t5.5 11q0 138 -66.5 203t-201.5 65 q-60 0 -104.5 -26.5t-102.5 -87.5q-10 -11 -22 -14t-20 3t-7 17q4 33 20 55q103 154 297 154q152 0 255 -117.5t103 -279.5q0 -124 -49.5 -232.5t-144 -177t-213.5 -68.5q-68 0 -116.5 13t-108.5 49q-29 18 -39.5 40.5t-10.5 78.5z" />
<glyph unicode="&#x44e;" horiz-adv-x="1351" d="M51 12q0 21 47 37q23 7 32 10.5t25 12.5t22.5 23t6.5 34v561q0 20 -6 34t-18.5 22.5t-23.5 13t-30 10.5q-47 16 -47 37q0 18 41 18h6q41 0 79 -5t73 -5t71 5t77 5h6q41 0 41 -18q0 -21 -47 -37q-19 -6 -30 -10.5t-23.5 -13t-18.5 -22.5t-6 -34v-231q0 -13 20 -13h115 q10 0 12 4q4 7 6 19q17 101 68 185.5t138 139t192 54.5q116 0 208.5 -57t142.5 -151t50 -204q0 -92 -25.5 -174t-74.5 -148t-131 -104.5t-187 -38.5q-163 0 -269.5 105.5t-117.5 273.5q0 21 -10 21h-131q-6 -5 -6 -15v-227q0 -16 6.5 -29t12 -20t23 -14.5t22.5 -9t26 -7.5 q47 -16 47 -37q0 -18 -41 -18h-6q-41 0 -83 5t-77 5t-77 -5t-83 -5h-6q-41 0 -41 18zM643 453q0 -105 27.5 -199t86 -157.5t136.5 -63.5q90 0 154.5 106t64.5 248q0 101 -30 189.5t-92.5 148t-145.5 59.5q-88 0 -144.5 -90.5t-56.5 -240.5z" />
<glyph unicode="&#x44f;" horiz-adv-x="940" d="M-8 25q0 25 92 41q33 6 69.5 30t55.5 56l74 124q37 53 59.5 77.5t56.5 41.5q5 1 4.5 8t-6.5 7q-93 11 -154 63t-61 137q0 106 82 159.5t234 53.5q27 0 89.5 -2t100.5 -2q35 0 68.5 2t74.5 2q48 0 48 -18q0 -9 -8 -16.5t-16.5 -11.5t-23.5 -9q-37 -11 -56 -30t-19 -62 v-555q0 -14 4 -24.5t9 -16.5t16 -12t17.5 -8t21.5 -6t20 -5q47 -16 47 -37q0 -18 -47 -18q-41 0 -85 5t-79 5t-77 -5t-83 -5q-47 0 -47 18q0 21 47 37q3 1 14 4t14.5 4t13.5 4.5t13.5 6t11 7t11 9.5t7.5 11.5t5.5 14.5t1.5 17v240q0 34 -20 34q-47 0 -92 -40t-72 -85 l-111 -188q-34 -58 -87 -83t-101 -25q-46 0 -78.5 7.5t-45.5 17t-13 20.5zM334 627q0 -96 68.5 -135t187.5 -39q8 0 15 7t7 17v209q0 48 -16 62t-80 14q-20 0 -47.5 -6.5t-59 -20.5t-53.5 -42.5t-22 -65.5z" />
<glyph unicode="&#x450;" horiz-adv-x="794" d="M68 377q0 119 47.5 226t136.5 176t197 69q147 0 215.5 -52t68.5 -134q0 -92 -43 -113q-48 -23 -115 -23h-335q-28 0 -40 -13.5t-12 -61.5q0 -150 87.5 -251.5t222.5 -101.5q122 0 184 82q10 10 18 10q11 0 19.5 -10t5.5 -22q-8 -29 -32.5 -60t-63 -60t-97.5 -48t-126 -19 q-91 0 -169.5 57.5t-123.5 151t-45 197.5zM229 610.5q6 -20.5 37 -20.5h168q96 0 150 10q6 1 10 8t5.5 19t1.5 21t-0.5 21t-0.5 13q-4 49 -47 75.5t-117 26.5q-126 0 -200 -133q-13 -20 -7 -40.5zM238 1319q0 22 21.5 39.5t47.5 17.5h2q69 0 103 -55q47 -76 118.5 -207 t71.5 -151q0 -27 -27 -27q-23 0 -55 45q-69 96 -142.5 175t-106.5 113t-33 50z" />
<glyph unicode="&#x451;" horiz-adv-x="794" d="M68 377q0 119 47.5 226t136.5 176t197 69q147 0 215.5 -52t68.5 -134q0 -92 -43 -113q-48 -23 -115 -23h-335q-28 0 -40 -13.5t-12 -61.5q0 -150 87.5 -251.5t222.5 -101.5q122 0 184 82q10 10 18 10q11 0 19.5 -10t5.5 -22q-8 -29 -32.5 -60t-63 -60t-97.5 -48t-126 -19 q-91 0 -169.5 57.5t-123.5 151t-45 197.5zM180 1153q0 38 32.5 70t70.5 32t70 -32t32 -70t-32 -70t-70 -32t-70.5 32t-32.5 70zM229 610.5q6 -20.5 37 -20.5h168q96 0 150 10q6 1 10 8t5.5 19t1.5 21t-0.5 21t-0.5 13q-4 49 -47 75.5t-117 26.5q-126 0 -200 -133 q-13 -20 -7 -40.5zM543 1153q0 38 32 70t70 32t70.5 -32t32.5 -70t-32.5 -70t-70.5 -32t-70 32t-32 70z" />
<glyph unicode="&#x452;" horiz-adv-x="960" d="M31 1071q0 14 15 25.5t34 11.5h90q-1 102 -21.5 146t-70.5 55q-15 3 -15.5 25.5t13.5 25.5q36 9 72.5 20.5t59 20t56.5 22t49 19.5l4 2q6 0 15 -14q0 -5 -4.5 -38.5t-9 -107.5t-5.5 -176h330q11 0 21 -9.5t6 -19.5q-20 -39 -64 -39h-293v-219q0 -60 13 -76 q31 34 103 68.5t157 34.5q148 0 232.5 -122.5t80.5 -334.5q-2 -111 -25.5 -215.5t-60 -185.5t-82 -152.5t-92 -121.5t-90 -86.5t-75.5 -54t-48 -17.5q-51 0 -51 18t26 29q102 43 183.5 156t126.5 266.5t45 318.5q0 120 -17 204t-49 129.5t-72 65t-94 19.5q-98 0 -155 -45 q-31 -25 -43.5 -66.5t-12.5 -107.5v-412q1 -38 21 -55.5t57 -28.5q47 -16 47 -37q0 -18 -41 -18h-6q-41 0 -77.5 5t-71.5 5t-77 -5t-83 -5h-6q-41 0 -41 18q0 21 47 37q26 8 42 15t31 25t15 44v907h-111q-12 0 -20 10.5t-8 20.5z" />
<glyph unicode="&#x453;" horiz-adv-x="724" d="M55 12q0 21 47 37q21 6 31 10t24.5 12.5t20.5 22t6 33.5v487q0 131 -94 150q-11 2 -23 12t-12 23q0 10 17.5 18t27.5 8q26 0 61 -3t58 -3q1 0 12.5 -0.5t31.5 -1t45 -1t57.5 -1t62.5 -0.5q72 0 107 2q39 1 86 6.5t57 5.5h10q3 0 10.5 -7t6.5 -15q-9 -55 -9 -172 q0 -84 -26 -84q-21 0 -39 78q-8 36 -39 72t-62 36q-8 0 -62 1t-75 1h-20q-23 -4 -34 -28.5t-11 -48.5v-535q0 -8 2 -15.5t3.5 -12.5t7 -10.5t8.5 -9t11 -7.5t11 -6t13 -5.5t12 -4t13.5 -4t12.5 -3.5q47 -16 47 -37q0 -18 -41 -18h-6q-41 0 -83 5t-77 5t-77 -5t-83 -5h-6 q-41 0 -41 18zM221 963q0 20 71.5 150t119.5 208q34 55 102 55h2q26 0 48 -17.5t22 -39.5q0 -16 -33.5 -50t-107 -113t-142.5 -175q-32 -45 -55 -45q-27 0 -27 27z" />
<glyph unicode="&#x454;" horiz-adv-x="823" d="M72 369q0 126 54.5 235t155 175.5t222.5 66.5q156 0 235 -98q14 -16 11 -32t-13 -28t-26 -22q-17 -13 -31 -13q-35 0 -49 21q-27 41 -80 68.5t-113 27.5q-98 0 -154.5 -78t-68.5 -192q-2 -8 2.5 -13.5t11.5 -5.5q61 0 171 6t182 5q36 0 36 -17q0 -19 -17.5 -41t-37.5 -22 q-68 0 -167.5 2t-164.5 2q-6 0 -11 -5.5t-5 -11.5q14 -137 103.5 -229t220.5 -92q62 0 100 23t80 79q10 10 18 10q11 0 19.5 -10t5.5 -22q-18 -63 -114.5 -125t-225.5 -62q-101 0 -182 55.5t-124.5 146t-43.5 196.5z" />
<glyph unicode="&#x455;" horiz-adv-x="661" d="M61 170q0 18 35 18q28 0 31 -14q11 -53 66 -100t108 -47q152 0 152 145q0 51 -35 90t-113 94q-90 64 -144.5 127t-54.5 131q0 93 72 163.5t211 70.5q56 0 100 -14.5t62 -32.5q35 -43 35 -160q0 -8 -13 -8q-16 0 -42 15t-27 28q-3 40 -43 79.5t-88 39.5q-76 0 -109 -43 t-33 -97q0 -25 16.5 -51.5t48 -52.5t54 -41.5t56.5 -36.5q37 -24 58.5 -39.5t59 -50.5t57 -77t19.5 -89q0 -116 -67.5 -181t-227.5 -65q-77 0 -142 25.5t-75 48.5q-24 49 -27 125z" />
<glyph unicode="&#x456;" horiz-adv-x="501" d="M49 12q0 21 47 37q55 16 71 32q17 18 17 46v444q0 131 -96 150q-15 3 -16 25.5t14 25.5q30 7 57 16.5t53 23t41.5 22.5t44.5 27.5t40 25.5q4 2 10 2q14 0 14 -10q-18 -189 -18 -277v-475q0 -16 6 -28.5t12 -19t22 -14t22 -9t26 -7.5q47 -16 47 -37q0 -18 -41 -18h-6 q-41 0 -83 5t-77 5t-77 -5t-83 -5h-6q-41 0 -41 18zM139 1153q0 44 30 74t73 30q44 0 74 -30t30 -74q0 -43 -30 -72.5t-74 -29.5q-43 0 -73 29.5t-30 72.5z" />
<glyph unicode="&#x457;" horiz-adv-x="501" d="M-16 1153q0 38 32 70t70 32t70 -32t32 -70t-32 -70t-70 -32t-70 32t-32 70zM49 12q0 21 47 37q55 16 71 32q17 18 17 46v444q0 131 -96 150q-15 3 -16 25.5t14 25.5q30 7 57 16.5t53 23t41.5 22.5t44.5 27.5t40 25.5q4 2 10 2q14 0 14 -10q-18 -189 -18 -277v-475 q0 -16 6 -28.5t12 -19t22 -14t22 -9t26 -7.5q47 -16 47 -37q0 -18 -41 -18h-6q-41 0 -83 5t-77 5t-77 -5t-83 -5h-6q-41 0 -41 18zM346 1153q0 38 32.5 70t70.5 32t70 -32t32 -70t-32 -70t-70 -32t-70.5 32t-32.5 70z" />
<glyph unicode="&#x458;" horiz-adv-x="434" d="M-72 -567q0 10 9 21t14 14q83 20 135 129q59 125 59 544v430q0 131 -94 150q-15 3 -15.5 25.5t13.5 25.5q30 7 56.5 16.5t54 23.5t42.5 22.5t46 27.5t41 25q2 2 8 2q14 0 14 -10q-16 -188 -16 -316v-377q0 -325 -62 -497q-37 -100 -118 -182t-144 -95h-10 q-12 0 -22.5 5.5t-10.5 15.5zM104 1153q0 44 30 74t73 30q44 0 74 -30t30 -74q0 -43 -30 -72.5t-74 -29.5q-43 0 -73 29.5t-30 72.5z" />
<glyph unicode="&#x459;" horiz-adv-x="1157" d="M-6 12q0 21 47 37q61 18 94 43q24 17 55 96l177 457q9 26 14 53q3 11 5 27t3 27t2 12q15 3 66 63q5 6 12 15t10 11.5t6 2.5q9 0 15 -18l135 -375q0 -7 7 -11t13 -1q75 45 183 45q134 0 215.5 -61t81.5 -177q0 -45 -18.5 -90.5t-52.5 -85t-90 -64t-124 -24.5q-42 0 -75 5 t-68 5t-66.5 -5t-71.5 -5q-49 0 -49 18q0 21 47 37q58 17 47 51l-170 498q-5 17 -8 21t-6.5 0t-9.5 -21l-156 -426q-14 -39 18 -74t78 -49q15 -5 23.5 -9t16.5 -11.5t8 -16.5q0 -18 -48 -18q-41 0 -82.5 5t-76.5 5t-76.5 -5t-81.5 -5q-49 0 -49 18zM670 362l80 -212 q18 -41 48 -70t58 -29q43 0 86 41.5t43 130.5t-56 150t-151 61q-41 0 -79.5 -22.5t-28.5 -49.5z" />
<glyph unicode="&#x45a;" horiz-adv-x="1310" d="M51 12q0 21 47 37q23 7 32 10.5t25 12.5t22.5 23t6.5 34v561q0 20 -6 34t-18.5 22.5t-23.5 13t-30 10.5q-47 16 -47 37q0 18 47 18q41 0 79 -5t73 -5t62 5t67 5q49 0 49 -18q0 -21 -47 -37q-34 -10 -47.5 -25.5t-13.5 -54.5v-211q0 -12 20 -12h318q10 0 10 16v207 q0 40 -11.5 55.5t-43.5 24.5q-15 5 -23.5 9t-16.5 11.5t-8 16.5q0 18 48 18q41 0 68.5 -5t62.5 -5t76 5t81 5q41 0 41 -18q0 -21 -47 -37q-27 -8 -41.5 -14t-28.5 -23t-14 -43v-221q0 -7 7.5 -11t13.5 -1q33 16 137 16q38 0 83 -11t91.5 -33.5t77.5 -66.5t31 -102 q0 -63 -18.5 -110.5t-49.5 -77t-77.5 -47.5t-95.5 -24.5t-110 -6.5q-42 0 -83 5t-76 5t-68.5 -5t-73.5 -5q-49 0 -49 18q0 21 47 37q36 11 53 26.5t17 53.5v252q0 7 -1.5 8.5t-6.5 1.5h-334q-6 -4 -6 -14v-248q0 -39 17.5 -54t55.5 -26q15 -5 23.5 -9t16.5 -11.5t8 -16.5 q0 -18 -39 -18q-41 0 -79 5t-73 5t-80.5 -5t-85.5 -5q-41 0 -41 18zM819 150q0 -40 32 -69.5t64 -29.5q1 0 12 -1t22.5 -1t27 2t33 9.5t32.5 19.5q39 31 53.5 63.5t14.5 81.5q0 100 -47.5 145.5t-147.5 45.5q-55 0 -77 -15q-19 -13 -19 -53v-198z" />
<glyph unicode="&#x45b;" horiz-adv-x="1017" d="M31 1071q0 14 15 25.5t34 11.5h90q-1 102 -21.5 146t-70.5 55q-15 3 -15.5 25.5t13.5 25.5q36 9 72.5 20.5t59 20t56.5 22t49 19.5l4 2q6 0 15 -14q0 -5 -4.5 -38.5t-9 -107.5t-5.5 -176h330q11 0 21 -9.5t6 -19.5q-20 -39 -64 -39h-293v-245q0 -56 17 -76 q173 129 309 129q103 0 169 -65t66 -181v-463q0 -64 89 -90q47 -16 47 -37q0 -18 -41 -18h-6q-41 0 -83 5t-77 5t-73 -5t-79 -5h-6q-41 0 -41 18q0 21 47 37q80 23 80 90v418q0 75 -61 129.5t-131 54.5q-43 0 -93 -11.5t-77 -33.5q-33 -27 -44.5 -56t-11.5 -91v-416 q1 -38 21 -55.5t57 -28.5q47 -16 47 -37q0 -18 -41 -18h-6q-41 0 -77.5 5t-71.5 5t-77 -5t-83 -5h-6q-41 0 -41 18q0 21 47 37q26 8 42 15t31 25t15 44v907h-111q-12 0 -20 10.5t-8 20.5z" />
<glyph unicode="&#x45c;" horiz-adv-x="937" d="M49 12q0 21 47 37q5 1 20 5t21.5 6t17.5 8t16 12t9 16.5t4 24.5q0 504 -2 555q-3 77 -73 98q-15 5 -23.5 9t-16.5 11.5t-8 16.5q0 18 48 18q41 0 74.5 -5t68.5 -5t70.5 5t76.5 5q47 0 47 -18q0 -21 -47 -37q-73 -21 -73 -102q-2 -104 -2 -199q0 -5 2.5 -7t5 -2t7.5 0.5 t7 0.5q35 0 75 16t58 41q103 146 166 221q42 52 89.5 81.5t80.5 29.5q35 0 62.5 -32t27.5 -60t-21 -62t-50 -34q-16 0 -40.5 22.5t-37.5 22.5q-27 0 -39.5 -7t-28.5 -28q-30 -39 -143 -199q-16 -23 -2 -43l184 -282q21 -31 57 -55.5t68 -30.5q92 -16 92 -41q0 -11 -13 -20.5 t-45.5 -17t-78.5 -7.5q-144 0 -215 108l-176 268q-41 64 -72 64q-4 0 -9 -3t-8 -6l-3 -3q1 -39 2 -138t2 -143q0 -8 1.5 -15.5t3.5 -13t6.5 -11t7 -9t10 -7.5t10.5 -5.5t12.5 -5t11.5 -4t13 -4t12 -3.5q47 -16 47 -37q0 -18 -47 -18q-41 0 -83 5t-77 5t-77 -5t-83 -5 q-47 0 -47 18zM303 963q0 20 71.5 150t119.5 208q34 55 102 55h2q26 0 48 -17.5t22 -39.5q0 -16 -33.5 -50t-107 -113t-142.5 -175q-32 -45 -55 -45q-27 0 -27 27z" />
<glyph unicode="&#x45d;" horiz-adv-x="1044" d="M51 12q0 21 47 37q23 7 32 10.5t25 12.5t22.5 23t6.5 34v561q0 20 -6 34t-18.5 22.5t-23.5 13t-30 10.5q-47 16 -47 37q0 18 41 18h6q41 0 79 -5t73 -5t71 5t77 5h6q41 0 41 -18q0 -21 -47 -37q-19 -6 -30 -10.5t-23.5 -13t-18.5 -22.5t-6 -34v-409q0 -7 8.5 -11.5 t11.5 -1.5l359 375q10 13 10 27v20q0 38 -17.5 53.5t-54.5 26.5q-47 16 -47 37q0 18 41 18h6q41 0 77 -5t71 -5t72.5 5t78.5 5h6q41 0 41 -18q0 -21 -47 -37q-27 -8 -41.5 -14t-28.5 -23t-14 -43v-561q0 -20 7 -33.5t23.5 -23t27 -13.5t32.5 -10q47 -16 47 -37 q0 -18 -41 -18h-6q-41 0 -82.5 5t-76.5 5t-77 -5t-83 -5h-6q-41 0 -41 18q0 21 47 37q21 6 31.5 10t25.5 13t22 23t7 34v412q0 11 -5 11q-1 1 -3 -1l-375 -375q-6 -6 -6 -26v-21q0 -16 6.5 -29t12 -20t23 -14.5t22.5 -9t26 -7.5q47 -16 47 -37q0 -18 -41 -18h-6q-41 0 -83 5 t-77 5t-77 -5t-83 -5h-6q-41 0 -41 18zM305 1319q0 22 22 39.5t48 17.5h2q68 0 102 -55q48 -78 119.5 -208t71.5 -150q0 -27 -27 -27q-23 0 -55 45q-69 96 -142.5 175t-107 113t-33.5 50z" />
<glyph unicode="&#x45e;" horiz-adv-x="897" d="M10 811q0 18 41 18h6q41 0 75 -5t69 -5t71.5 5t77.5 5h6q41 0 41 -18q0 -21 -47 -37q-30 -9 -41.5 -53t4.5 -82l162 -401q17 -40 31 2l137 364q19 47 6.5 104t-43.5 66q-47 16 -47 37q0 18 41 18h6q10 0 54 -5t85 -5q40 0 70 5t45 5h6q41 0 41 -18q0 -21 -47 -37 q-31 -9 -66 -48.5t-55 -88.5l-278 -664q-2 -5 -32.5 -81.5t-77 -190.5t-83.5 -201q-38 -84 -123 -84q-35 0 -61.5 26t-26.5 60q0 37 29 69t59 32q10 0 33 -19.5t35 -19.5t20 14q12 21 26 51.5t31.5 74.5t30 77t35 94.5t33.5 91.5q7 21 6.5 53t-8.5 54l-237 600 q-34 83 -93 100q-47 16 -47 37zM201 1206q0 38 20 61t51 23q30 0 51 -19.5t21 -43.5q0 -20 -8 -48t-8 -44q0 -29 41 -49.5t90 -20.5q47 0 91 19t44 46q0 22 -10.5 50t-10.5 47q0 24 21 43.5t51 19.5q31 0 51.5 -23t20.5 -61q0 -94 -73.5 -148t-184.5 -54q-258 0 -258 202z " />
<glyph unicode="&#x45f;" horiz-adv-x="1050" d="M63 12q0 9 8 16.5t16.5 11.5t23.5 9q19 6 29.5 10t22 12.5t16.5 22t5 33.5v565q0 20 -5 33.5t-16.5 22t-22 12.5t-29.5 10q-15 5 -23.5 9t-16.5 11.5t-8 16.5q0 18 41 18h7q41 0 77.5 -5t71.5 -5t73 5t79 5h6q41 0 41 -18q0 -21 -47 -37q-22 -6 -31.5 -10t-24.5 -12.5 t-21.5 -22t-6.5 -33.5v-534q0 -78 34 -78h328q33 0 33 78v534q0 20 -6.5 33.5t-21.5 22t-24.5 12.5t-31.5 10q-47 16 -47 37q0 18 41 18h6q41 0 79 -5t73 -5t71.5 5t77.5 5h6q41 0 41 -18q0 -21 -47 -37q-19 -6 -29.5 -10t-22.5 -12.5t-17 -22t-5 -33.5v-567q0 -36 18 -50.5 t56 -25.5q47 -16 47 -37q0 -18 -47 -18q-44 0 -65.5 3t-40.5 3h-193q-10 0 -19.5 -10.5t-19 -33.5t-17 -55.5t-12 -80t-4.5 -103.5q0 -23 -14.5 -43t-26.5 -20q-43 0 -43 88q0 258 -102 258h-164q-19 0 -41.5 -3t-66.5 -3q-48 0 -48 18z" />
<glyph unicode="&#x462;" horiz-adv-x="1419" d="M43 938q-3 23 4 45q27 108 35 180q4 47 35 47q3 0 19.5 -10t42 -19.5t50.5 -9.5h256q17 0 22 3t5 14q0 72 -30.5 103.5t-108.5 45.5q-68 12 -68 41q0 23 60 23q58 0 126 -3t113 -3q41 0 103 3t120 3q60 0 60 -23q0 -29 -68 -41q-79 -14 -113 -46t-34 -101q0 -19 33 -19 h362q19 0 51 16.5t45 16.5q18 0 25.5 -15t7.5 -30q3 -113 12 -225q2 -9 -5.5 -20t-16.5 -11q-10 0 -17.5 10.5t-11.5 22.5q-23 73 -47 100q-51 56 -137 56h-266q-35 0 -35 -95v-161q0 -111 18 -111q1 0 37.5 11.5t94.5 24.5t104 13q188 0 299.5 -100t111.5 -277 q0 -47 -8.5 -88t-18 -69t-31 -56.5t-34 -42.5t-40.5 -34t-36.5 -25t-35.5 -21q-115 -69 -328 -69q-13 0 -80.5 4t-114.5 4q-51 0 -128 -5t-138 -5q-59 0 -59 22q0 26 67 37q81 14 120.5 49t39.5 107v792q0 95 -39 95h-192q-52 0 -96 -25t-62 -68q-34 -84 -64 -84 q-13 0 -16 23zM672 211q0 -75 30 -105q18 -20 56.5 -35.5t75.5 -15.5q53 0 94.5 6.5t84.5 26.5t71.5 53.5t47.5 90.5t21 135q1 56 -14 106t-40.5 84.5t-49.5 57.5t-48 36q-26 14 -41 20.5t-51.5 13.5t-83.5 7q-28 0 -73 -9.5t-58 -18.5q-22 -15 -22 -52v-401z" />
<glyph unicode="&#x463;" horiz-adv-x="964" d="M31 627q8 30 16 89t8 95q0 13 11.5 25t19.5 12t31 -19q13 -10 88 -10h96q18 0 18 25v104q0 131 -94 150q-15 3 -15.5 25.5t13.5 25.5q36 9 73 20.5t59 20t57 22.5t49 19q1 0 2 1t2 1q4 0 8 -4.5t4 -9.5q0 -6 -3 -38.5t-6 -96t-3 -144.5v-86q0 -35 27 -35h143q75 0 88 10 q23 19 39 19q7 0 16 -11.5t6 -25.5q-13 -55 -4 -184q2 -15 -5.5 -30t-20.5 -15t-23 17.5t-12 33.5q-3 38 -25.5 73t-48.5 35h-151q-28 0 -31 -34v-222q0 -9 7 -13t13 -1q33 16 138 16q29 0 64 -7t74 -23.5t70.5 -40.5t52.5 -62.5t21 -85.5q0 -274 -350 -274q-41 0 -83 5 t-77 5t-76 -5t-81 -5q-50 0 -50 18q0 21 47 37q23 7 32 10.5t25 12.5t22.5 23t6.5 34v547q0 65 -24 65h-119q-25 0 -41.5 -24.5t-40.5 -83.5q-6 -14 -22 -32.5t-29 -18.5q-22 0 -12 45zM463 150q0 -40 32 -69.5t64 -29.5q72 0 119 37q41 32 58.5 65.5t17.5 79.5 q0 101 -48 149t-147 48q-57 0 -78 -14q-18 -13 -18 -54v-212z" />
<glyph unicode="&#x470;" horiz-adv-x="1525" d="M2.5 1173q-5.5 12 2 26.5t20.5 27.5q26 24 50 30.5t70 6.5q76 0 146 -95t117 -245q37 -119 97 -192t159 -83q7 -1 9.5 7t2.5 32v440q0 70 -30 101t-107 45q-68 12 -68 41q0 22 59 22q58 0 126.5 -3t113.5 -3q41 0 103 3t120 3q60 0 60 -22q0 -29 -68 -41 q-79 -14 -112 -45.5t-33 -100.5v-444q0 -18 1 -24t5 -9t14 -2q99 11 159 84t97 191q47 150 116.5 245t145.5 95q47 0 71 -6.5t50 -30.5q13 -13 20.5 -27.5t2 -26.5t-30.5 -12q-131 0 -201 -176q-89 -221 -170 -291q-93 -81 -258 -102q-11 -1 -16 -10t-5.5 -16.5t-0.5 -26.5 v-336q0 -70 40 -105t121 -49q68 -12 68 -37q0 -22 -59 -22q-58 0 -126.5 5t-113.5 5q-50 0 -127.5 -5t-134.5 -5q-59 0 -59 22q0 26 67 37q81 14 120.5 49t39.5 105v348q0 20 -3 29.5t-5 11t-10 1t-11 -0.5q-153 23 -244 102q-81 70 -170 291q-70 176 -200 176 q-25 0 -30.5 12z" />
<glyph unicode="&#x472;" horiz-adv-x="1562" d="M92 655q0 140 45.5 265t130.5 222t217.5 155.5t296.5 62.5h17q133 0 255 -49.5t214 -136t147 -214t55 -274.5q0 -140 -45.5 -267.5t-129.5 -228t-217 -160t-296 -59.5q-134 0 -260 53t-221 142.5t-152 218t-57 270.5zM293 764q12 -4 22 -4h930q13 0 19 2 q-28 241 -156 379.5t-340 138.5q-138 0 -245 -74t-164 -189.5t-66 -252.5zM297 616q19 -154 87 -282t180 -205.5t245 -77.5q219 0 337 142t126 395q-24 28 -58 28h-917z" />
<glyph unicode="&#x473;" horiz-adv-x="1013" d="M72 383q0 113 58.5 220t163 176t226.5 69q87 0 166 -33.5t134.5 -89.5t88.5 -131.5t33 -157.5q0 -92 -30 -174.5t-86 -148t-146 -104t-201 -38.5q-173 0 -290 116.5t-117 295.5zM240 469l4 -2h524q-21 132 -98 224.5t-185 92.5q-59 0 -102 -18.5t-78 -63.5 q-57 -72 -65 -233zM242 391q11 -146 89.5 -252t190.5 -106q154 0 211 112q41 78 41 242v4h-532z" />
<glyph unicode="&#x474;" horiz-adv-x="1366" d="M0 1315q0 22 59 22q28 0 113.5 -3t136.5 -3q46 0 120 2t89 2q60 0 60 -22q0 -24 -68 -41q-62 -15 -90.5 -80t2.5 -160l237 -629q20 -57 37 -57t37 57l283 727q30 75 60 124.5t61 72.5t57.5 31t60.5 8q44 0 86.5 -30.5t42.5 -69.5q0 -36 -19 -81.5t-50 -45.5 q-20 0 -57.5 24.5t-40.5 24.5q-71 0 -117 -107l-381 -958q-5 -13 -15.5 -39t-17 -42.5t-15 -35t-14.5 -28t-10 -9.5t-13.5 22t-25 64t-22.5 60l-357 954q-65 173 -161 201q-68 21 -68 45z" />
<glyph unicode="&#x475;" horiz-adv-x="937" d="M10 811q0 18 41 18h6q41 0 75 -5t69 -5t70.5 5t76.5 5h6q41 0 41 -18q0 -21 -47 -37q-29 -9 -38.5 -54.5t5.5 -84.5l152 -408q16 -47 25 -2q15 86 48.5 190.5t80.5 210t111 176t128 70.5q39 0 73 -32.5t34 -59.5q0 -30 -17.5 -64t-46.5 -34q-25 0 -60 12.5t-46 12.5 q-40 0 -93 -100t-99 -250.5t-75 -307.5q-5 -31 -40.5 -62.5t-47.5 -31.5q-7 0 -20.5 29.5t-20.5 50.5l-249 639q-33 82 -95 100q-47 16 -47 37z" />
<glyph unicode="&#x477;" horiz-adv-x="937" d="M10 811q0 18 41 18h6q41 0 75 -5t69 -5t70.5 5t76.5 5h6q41 0 41 -18q0 -21 -47 -37q-29 -9 -38.5 -54.5t5.5 -84.5l152 -408q16 -47 25 -2q15 86 48.5 190.5t80.5 210t111 176t128 70.5q39 0 73 -32.5t34 -59.5q0 -30 -17.5 -64t-46.5 -34q-25 0 -60 12.5t-46 12.5 q-40 0 -93 -100t-99 -250.5t-75 -307.5q-5 -31 -40.5 -62.5t-47.5 -31.5q-7 0 -20.5 29.5t-20.5 50.5l-249 639q-33 82 -95 100q-47 16 -47 37zM81 1388.5q0 4.5 1 8.5t4 8q26 33 78 33q4 0 12 -1t12 -1q39 -5 63.5 -17t35.5 -39q26 -56 53.5 -113.5t39 -82.5t29.5 -70.5 t42 -112.5q6 -15 0.5 -27.5t-17.5 -12.5q-4 0 -4 2q-37 12 -53 43q-147 196 -262 327q-2 2 -7 7.5t-7 8t-6 8t-5.5 8l-4.5 7.5t-3.5 8.5t-0.5 8zM339 1388.5q0 4.5 1 8.5t4 8q26 33 78 33q4 0 12 -1t12 -1q39 -5 63.5 -17t35.5 -39q26 -56 53.5 -113.5t39 -82.5t29.5 -70.5 t42 -112.5q6 -15 0.5 -27.5t-17.5 -12.5q-4 0 -4 2q-38 12 -53 43q-147 196 -262 327q-2 2 -7 7.5t-7 8t-6 8t-5.5 8l-4.5 7.5t-3.5 8.5t-0.5 8z" />
<glyph unicode="&#x490;" horiz-adv-x="909" d="M41 12q0 25 68 37q81 14 120 48.5t39 103.5v925q0 71 -30 102.5t-107 45.5q-68 12 -68 41q0 22 60 22q58 0 127.5 -3t114.5 -3h442q46 0 79.5 10.5t53.5 25t33.5 41t19 48t11.5 55.5q2 11 12 24t20 13q9 0 18 -15t7 -24q-9 -104 -12 -245q0 -19 -37 -19q-1 0 -23.5 1.5 t-50.5 3t-43 1.5h-377q-46 0 -66 -30.5t-20 -96.5v-923q0 -69 40.5 -103.5t121.5 -48.5q68 -12 68 -37q0 -22 -60 -22q-58 0 -126.5 5t-113.5 5q-50 0 -127.5 -5t-134.5 -5q-59 0 -59 22z" />
<glyph unicode="&#x491;" horiz-adv-x="704" d="M55 12q0 21 47 37q21 6 31 10t24.5 12.5t20.5 22t6 33.5v487q0 131 -94 150q-11 2 -23 12t-12 23q0 10 17.5 18t27.5 8q26 0 61 -3t58 -3q1 0 13 -0.5t32 -1t45 -1t57 -1t62 -0.5q18 0 56.5 1t54.5 1q29 0 58.5 53t39.5 97q8 36 22.5 53.5t28.5 17.5q18 0 23.5 -12 t3.5 -37q-6 -51 -10 -241q0 -5 -4 -11t-8 -9t-5 -3h-10q-10 0 -57.5 5.5t-88.5 6.5q-8 0 -62.5 1t-76.5 1h-20q-23 -4 -34 -28.5t-11 -48.5v-535q0 -8 2 -15.5t3.5 -12.5t7 -10.5t8.5 -9t11 -7.5t11 -6t13 -5.5t12 -4t13.5 -4t12.5 -3.5q47 -16 47 -37q0 -18 -41 -18h-6 q-41 0 -83 5t-77 5t-77 -5t-83 -5h-6q-41 0 -41 18z" />
<glyph unicode="&#x4ae;" d="M0 1315q0 22 59 22q26 0 107.5 -3t132.5 -3q34 0 89.5 2t74.5 2q59 0 59 -22q0 -13 -15 -21t-52 -20q-15 -4 -27 -12.5t-22.5 -22.5t-8.5 -37.5t19 -52.5l188 -338l9 -15q33 -57 44 -62q2 -1 5 -1q5 0 9.5 3t10.5 10.5t11.5 15.5t16 22.5t19.5 26.5q42 58 65 91.5 t52.5 85.5t54.5 108q25 54 10.5 109t-57.5 67q-68 19 -68 41t60 22q31 0 77.5 -1t75.5 -1q42 0 109.5 3t87.5 3q59 0 59 -22q0 -27 -67 -41q-81 -16 -205 -197q-111 -167 -227 -368q-36 -62 -43.5 -92t-7.5 -93v-303q0 -69 42 -113.5t119 -58.5q68 -12 68 -37q0 -22 -60 -22 q-58 0 -126 5t-113 5q-50 0 -127.5 -5t-134.5 -5q-60 0 -60 22q0 25 68 37q160 28 160 172v303q0 23 -4 45t-11.5 39.5t-13.5 29t-14 24t-9 14.5l-239 393q-115 182 -182 201q-68 21 -68 45z" />
<glyph unicode="&#x4af;" horiz-adv-x="897" d="M-6 811q0 18 41 18h6q41 0 74.5 -5t68.5 -5t71 5t77 5h6q41 0 41 -18q0 -21 -47 -37q-29 -9 -38 -54.5t5 -84.5l164 -502q5 -15 8.5 -20t7 -1t8.5 19l168 473q21 67 8.5 113.5t-45.5 56.5q-47 16 -47 37q0 18 41 18h6q10 0 56.5 -5t87.5 -5q40 0 70 5t45 5h6q41 0 41 -18 q0 -21 -47 -37q-33 -10 -71 -49t-56 -88l-172 -477q-58 -154 -58 -244v-367q0 -18 6.5 -31.5t20 -21.5t24 -12t30.5 -10q5 -1 7 -2q47 -16 47 -37q0 -19 -41 -19h-6q-41 0 -82.5 5.5t-76.5 5.5t-77 -5.5t-83 -5.5h-6q-41 0 -41 19q0 21 47 37q55 16 70 31q18 18 18 46v324 q0 55 -25.5 152.5t-48.5 158.5l-168 490q-29 81 -94 100q-47 16 -47 37z" />
<glyph unicode="&#x4b0;" d="M0 1315q0 22 59 22q26 0 107.5 -3t132.5 -3q34 0 89.5 2t74.5 2q59 0 59 -22q0 -13 -15 -21t-52 -20q-15 -4 -27 -12.5t-22.5 -22.5t-8.5 -37.5t19 -52.5l188 -338l9 -15q33 -57 44 -62q2 -1 5 -1q5 0 9.5 3t10.5 10.5t11.5 15.5t16 22.5t19.5 26.5q42 58 65 91.5 t52.5 85.5t54.5 108q25 54 10.5 109t-57.5 67q-68 19 -68 41t60 22q31 0 77.5 -1t75.5 -1q42 0 109.5 3t87.5 3q59 0 59 -22q0 -27 -67 -41q-81 -16 -205 -197q-111 -167 -227 -368q-33 -63 -33 -64h254q11 0 21 -9.5t6 -19.5q-24 -65 -64 -65h-235v-330q0 -69 42 -113.5 t119 -58.5q68 -12 68 -37q0 -22 -60 -22q-58 0 -126 5t-113 5q-50 0 -127.5 -5t-134.5 -5q-60 0 -60 22q0 25 68 37q160 28 160 172v303q0 19 -2 27h-248q-11 0 -20 7.5t-9 16.5q0 19 13.5 44.5t35.5 25.5h197q-10 17 -19 31l-239 393q-115 182 -182 201q-68 21 -68 45z" />
<glyph unicode="&#x4b1;" horiz-adv-x="897" d="M-6 811q0 18 41 18h6q41 0 74.5 -5t68.5 -5t71 5t77 5h6q41 0 41 -18q0 -21 -47 -37q-29 -9 -38 -54.5t5 -84.5l164 -502q5 -15 8.5 -20t7 -1t8.5 19l168 473q21 67 8.5 113.5t-45.5 56.5q-47 16 -47 37q0 18 41 18h6q10 0 56.5 -5t87.5 -5q40 0 70 5t45 5h6q41 0 41 -18 q0 -21 -47 -37q-33 -10 -71 -49t-56 -88l-172 -477q-14 -35 -25 -72h209q11 0 20.5 -9.5t5.5 -19.5q-10 -20 -17 -31t-21 -20.5t-31 -9.5h-191q-8 -54 -8 -82v-367q0 -18 6.5 -31.5t20 -21.5t24 -12t30.5 -10q5 -1 7 -2q47 -16 47 -37q0 -19 -41 -19h-6q-41 0 -82.5 5.5 t-76.5 5.5t-77 -5.5t-83 -5.5h-6q-41 0 -41 19q0 21 47 37q55 16 70 31q18 18 18 46v324q0 36 -19 125h-217q-10 0 -19 8t-9 17q0 17 16.5 41t38.5 24h166q-7 26 -31 96l-168 490q-29 81 -94 100q-47 16 -47 37z" />
<glyph unicode="&#x4c0;" horiz-adv-x="696" d="M39 12q0 26 67 37q81 14 120.5 48.5t39.5 103.5v925q0 71 -30 102.5t-107 45.5q-68 12 -68 41q0 22 60 22q58 0 126 -3t113 -3q41 0 103.5 3t120.5 3q59 0 59 -22q0 -29 -68 -41q-79 -14 -112 -46t-33 -102v-925q0 -69 40.5 -103.5t121.5 -48.5q67 -11 67 -37 q0 -22 -59 -22q-58 0 -126.5 5t-113.5 5q-50 0 -127.5 -5t-134.5 -5q-59 0 -59 22z" />
<glyph unicode="&#x4c1;" horiz-adv-x="1974" d="M-29 27q0 24 17 24q33 0 62.5 5t52.5 12t44.5 19.5t36.5 23t31 27.5t25 29t20.5 31.5t17 29.5t15 29.5t12.5 25.5q2 3 31.5 60.5t45.5 86t44 75t51 75.5q48 61 97 99.5t81 49.5q26 7 -2 21q-55 28 -80 51q-46 40 -88.5 107.5t-93.5 172.5q-26 53 -65.5 90t-75.5 37 q-3 0 -33.5 -10t-50.5 -10q-32 0 -46 23t-14 55q0 39 38.5 67.5t82.5 28.5q58 0 123 -68t109 -168q39 -90 82 -162t71 -100q116 -116 273 -131q7 -1 9.5 7t2.5 32v367q0 69 -28.5 95t-108.5 40q-68 12 -68 41q0 22 60 22q58 0 126 -3t113 -3q41 0 103 3t120 3q60 0 60 -22 q0 -29 -68 -41q-82 -14 -113.5 -40.5t-31.5 -94.5v-367q0 -24 2.5 -32t9.5 -7q157 15 273 131q28 28 71 100t82 162q44 100 109 168t123 68q44 0 82 -28.5t38 -67.5q0 -32 -13.5 -55t-45.5 -23q-20 0 -50.5 10t-33.5 10q-36 0 -75.5 -37t-65.5 -90q-103 -211 -183 -280 q-27 -24 -79 -51q-28 -14 -2 -21q32 -11 81 -49.5t97 -99.5q23 -29 51 -75.5t44 -75t45.5 -86t31.5 -60.5q3 -6 12.5 -25.5t15 -29.5t17 -29.5t20.5 -31.5t25 -29t31 -27.5t36.5 -23t44.5 -19.5t52.5 -12t62.5 -5q17 0 17 -24q0 -19 -11 -27q-21 -14 -65.5 -25.5 t-81.5 -11.5q-90 0 -175 52t-130 141q-94 186 -205 370q-53 86 -125 113q-78 31 -115 35q-18 0 -18 -39v-432q0 -70 40 -105t122 -49q67 -11 67 -37q0 -22 -59 -22q-58 0 -126.5 5t-113.5 5q-50 0 -127.5 -5t-134.5 -5q-59 0 -59 22q0 26 67 37q81 14 120.5 49t39.5 105v432 q0 39 -20 39q-40 -4 -117 -35q-72 -27 -125 -113q-71 -117 -205 -370q-43 -82 -128.5 -137.5t-172.5 -55.5q-37 0 -81.5 11.5t-65.5 25.5q-11 8 -11 27zM674 1636q0 38 24.5 66.5t55.5 28.5q30 0 55 -20t25 -44q0 -20 -6.5 -48t-6.5 -44q0 -31 46 -58.5t116 -27.5 q69 0 118.5 28t49.5 54q0 22 -9 49.5t-9 46.5q0 24 24.5 44t54.5 20q31 0 55.5 -28.5t24.5 -66.5q0 -92 -97.5 -155.5t-211.5 -63.5q-76 0 -144 21.5t-116.5 73t-48.5 124.5z" />
<glyph unicode="&#x4c2;" horiz-adv-x="1329" d="M0 25q0 25 92 41q32 6 68 30.5t57 55.5l184 282q14 20 -2 43q-19 27 -69.5 104.5t-63.5 94.5q-16 21 -28 28t-39 7q-13 0 -37.5 -22.5t-40.5 -22.5q-29 0 -50.5 34t-21.5 62t27.5 60t62.5 32q38 0 94 -30t86 -81q78 -124 146 -221q18 -26 52 -41.5t67 -15.5q2 0 7 -0.5 t7.5 -0.5t5 2t2.5 7q0 97 -2 201q-3 79 -76 100q-47 16 -47 37q0 18 47 18q41 0 75 -5t69 -5t66.5 5t72.5 5q47 0 47 -18q0 -21 -47 -37q-74 -22 -74 -102q-2 -104 -2 -199q0 -5 2.5 -7t5 -2t8 0.5t7.5 0.5q33 0 65.5 15.5t50.5 41.5q103 146 166 221q42 52 89.5 81.5 t80.5 29.5q35 0 62.5 -32t27.5 -60t-21 -62t-50 -34q-16 0 -40.5 22.5t-37.5 22.5q-27 0 -39.5 -7t-28.5 -28l-143 -199q-16 -23 -2 -43l184 -282q21 -31 57 -55.5t68 -30.5q92 -16 92 -41q0 -11 -13 -20.5t-45.5 -17t-78.5 -7.5q-127 0 -198 108l-177 268q-41 64 -71 64 q-4 0 -9.5 -3t-8.5 -6l-3 -3q1 -39 2 -138t2 -143q0 -8 1.5 -15.5t3.5 -13t6.5 -11t7 -9t10 -7.5t10.5 -5.5t12.5 -5t11.5 -4t13 -4t12 -3.5q47 -16 47 -37q0 -18 -47 -18q-41 0 -78.5 5t-72.5 5t-77 -5t-83 -5q-47 0 -47 18q0 21 47 37q5 1 20.5 5.5t21 6.5t17 7.5t16.5 12 t9 17.5t4 25q1 46 1 146.5t1 138.5q-10 12 -20 12q-33 0 -74 -64l-176 -268q-71 -108 -199 -108q-46 0 -78.5 7.5t-45.5 17t-13 20.5zM414 1147q0 38 20 61t51 23q30 0 51 -20t21 -44q0 -20 -8 -48t-8 -44q0 -29 41 -49t90 -20q47 0 91 19t44 46q0 22 -10.5 49.5t-10.5 46.5 q0 24 21 44t51 20q31 0 51.5 -23t20.5 -61q0 -94 -73.5 -148.5t-184.5 -54.5q-258 0 -258 203z" />
<glyph unicode="&#x4d0;" horiz-adv-x="1400" d="M-4 16q0 26 67 47q59 17 102.5 52t74.5 106q196 444 383 963q19 57 20 61q3 10 4 24.5t1.5 23.5t2.5 10q54 17 74 30q12 8 21 21t13.5 21.5t8.5 8.5q11 0 20 -28q154 -488 365 -1094q39 -112 86.5 -152.5t120.5 -52.5q33 -6 50 -19t17 -28q0 -20 -59 -20q-24 0 -129.5 6 t-155.5 6q-44 0 -112.5 -1t-89.5 -1q-60 0 -60 23q0 22 68 40q54 14 77.5 33.5t25 48t-6.5 70.5q-33 164 -59 262q-4 15 -15 19t-43 4h-391q-15 0 -22 -7.5t-13 -29.5l-77 -254q-16 -54 18.5 -93.5t95.5 -54.5q68 -17 68 -41q0 -22 -60 -22q-14 0 -78.5 2t-107.5 2 q-48 0 -131.5 -6t-114.5 -6q-59 0 -59 26zM414 1636q0 38 24.5 66.5t55.5 28.5q30 0 54.5 -20t24.5 -44q0 -20 -6 -48t-6 -44q0 -31 46 -58.5t116 -27.5q69 0 118.5 28t49.5 54q0 22 -9.5 49.5t-9.5 46.5q0 24 25 44t55 20q31 0 55.5 -28.5t24.5 -66.5q0 -92 -97.5 -155.5 t-211.5 -63.5q-76 0 -144 21.5t-116.5 73t-48.5 124.5zM498 618q-7 -20 1.5 -25t37.5 -5h317q24 0 27.5 4t-2.5 26l-162 490q-12 37 -19 37q-4 0 -16 -35z" />
<glyph unicode="&#x4d1;" horiz-adv-x="817" d="M72 133q0 123 149 184l209 86q39 17 47 28.5t10 53.5l5 127q2 56 -32 96t-89 40q-35 0 -73.5 -21.5t-51.5 -44.5q-10 -18 -6 -68q2 -34 -142 -73q-6 -2 -11 4t-6 16.5t3 22.5q14 41 29 63.5t51 54.5q59 54 145 100t160 46q72 0 121 -54.5t47 -127.5l-10 -443 q-2 -62 15 -109.5t58 -47.5q50 0 82 28q10 10 23 0.5t8 -24.5q-6 -18 -59 -58.5t-103 -40.5q-33 0 -59 11t-40.5 26.5t-24.5 31.5t-16.5 27t-10.5 11q-8 0 -28 -16.5t-45 -36.5t-73.5 -36.5t-105.5 -17.5q-63 0 -119.5 51t-56.5 111zM125 1206q0 38 20.5 61t51.5 23 q30 0 50.5 -19.5t20.5 -43.5q0 -20 -8 -48t-8 -44q0 -29 41 -49.5t90 -20.5q47 0 91 19t44 46q0 22 -10 50t-10 47q0 24 20.5 43.5t50.5 19.5q31 0 51.5 -23t20.5 -61q0 -94 -73.5 -148t-184.5 -54q-258 0 -258 202zM236 178q0 -53 32.5 -82.5t67.5 -29.5q60 0 123 55 q24 21 24 82l4 100q3 41 -22 41q-5 0 -25 -4q-107 -31 -155.5 -75.5t-48.5 -86.5z" />
<glyph unicode="&#x4d2;" horiz-adv-x="1400" d="M-4 16q0 26 67 47q59 17 102.5 52t74.5 106q196 444 383 963q19 57 20 61q3 10 4 24.5t1.5 23.5t2.5 10q54 17 74 30q12 8 21 21t13.5 21.5t8.5 8.5q11 0 20 -28q154 -488 365 -1094q39 -112 86.5 -152.5t120.5 -52.5q33 -6 50 -19t17 -28q0 -20 -59 -20q-24 0 -129.5 6 t-155.5 6q-44 0 -112.5 -1t-89.5 -1q-60 0 -60 23q0 22 68 40q54 14 77.5 33.5t25 48t-6.5 70.5q-33 164 -59 262q-4 15 -15 19t-43 4h-391q-15 0 -22 -7.5t-13 -29.5l-77 -254q-16 -54 18.5 -93.5t95.5 -54.5q68 -17 68 -41q0 -22 -60 -22q-14 0 -78.5 2t-107.5 2 q-48 0 -131.5 -6t-114.5 -6q-59 0 -59 26zM461 1620q0 46 33 79.5t79 33.5t79.5 -33.5t33.5 -79.5t-33.5 -79.5t-79.5 -33.5t-79 33.5t-33 79.5zM498 618q-7 -20 1.5 -25t37.5 -5h317q24 0 27.5 4t-2.5 26l-162 490q-12 37 -19 37q-4 0 -16 -35zM850 1620q0 46 33.5 79.5 t79.5 33.5t79 -33.5t33 -79.5t-33 -79.5t-79 -33.5t-79.5 33.5t-33.5 79.5z" />
<glyph unicode="&#x4d3;" horiz-adv-x="817" d="M72 133q0 123 149 184l209 86q39 17 47 28.5t10 53.5l5 127q2 56 -32 96t-89 40q-35 0 -73.5 -21.5t-51.5 -44.5q-10 -18 -6 -68q2 -34 -142 -73q-6 -2 -11 4t-6 16.5t3 22.5q14 41 29 63.5t51 54.5q59 54 145 100t160 46q72 0 121 -54.5t47 -127.5l-10 -443 q-2 -62 15 -109.5t58 -47.5q50 0 82 28q10 10 23 0.5t8 -24.5q-6 -18 -59 -58.5t-103 -40.5q-33 0 -59 11t-40.5 26.5t-24.5 31.5t-16.5 27t-10.5 11q-8 0 -28 -16.5t-45 -36.5t-73.5 -36.5t-105.5 -17.5q-63 0 -119.5 51t-56.5 111zM115 1153q0 38 32 70t70 32t70 -32 t32 -70t-32 -70t-70 -32t-70 32t-32 70zM236 178q0 -53 32.5 -82.5t67.5 -29.5q60 0 123 55q24 21 24 82l4 100q3 41 -22 41q-5 0 -25 -4q-107 -31 -155.5 -75.5t-48.5 -86.5zM477 1153q0 38 32.5 70t70.5 32t70 -32t32 -70t-32 -70t-70 -32t-70.5 32t-32.5 70z" />
<glyph unicode="&#x4d4;" horiz-adv-x="1773" d="M-10 12q0 24 67 45q52 15 111 71t102 130l559 959q7 12 -3.5 22t-30.5 12l-181 31q-16 6 -20 18.5t3 22.5t17 10q36 0 159.5 -3t199.5 -3q132 0 361 5t255 5h17q33 0 36 -18q23 -126 25 -211q0 -8 -9.5 -13t-19.5 -5t-14.5 4.5t-7.5 15.5q-23 73 -47 100q-51 56 -137 56 h-269q-17 0 -32.5 -17.5t-18.5 -36.5q-6 -29 -10.5 -69.5t-7 -75t-3.5 -90.5t-1 -84.5v-90.5v-77t0.5 -22.5t5.5 -15t14 -7.5q115 0 213 4q64 3 90 27q24 21 35 49q3 8 16.5 21.5t20.5 13.5q9 0 18 -10.5t8 -22.5q-10 -102 0 -270q0 -35 -18 -35t-30.5 16t-16.5 31 q-24 76 -96 80q-86 4 -211 4q-23 0 -36.5 -13t-12.5 -38q0 -131 6 -306q2 -69 33 -114t96 -45h213q16 0 77 12t78 25q42 33 86 129q10 20 29 20q12 -2 20 -8.5t7 -16.5q-11 -108 -35 -208q-9 -35 -29 -35q-127 0 -329.5 6t-292.5 6h-41q-44 0 -111 -6t-125 -6q-59 0 -59 22 q0 26 67 37q80 14 117.5 48.5t36.5 105.5q-4 226 -4 344q0 18 -8.5 27.5t-36.5 9.5h-289q-37 0 -61 -47q-68 -115 -168 -308q-65 -126 114 -168q68 -17 68 -41q0 -22 -60 -22q-14 0 -77 2t-105 2q-49 0 -138 -6t-120 -6q-59 0 -59 22zM611.5 677q4.5 -5 31.5 -5h254 q24 0 28.5 3.5t4.5 26.5v486q0 37 -6 37q-9 0 -27 -35l-279 -488q-11 -20 -6.5 -25z" />
<glyph unicode="&#x4d5;" horiz-adv-x="1114" d="M72 133q0 63 36 106t113 78l213 97q38 15 49 30.5t11 51.5l2 116q2 55 -33.5 95.5t-91.5 40.5q-35 0 -73.5 -22.5t-51.5 -45.5q-9 -17 -6 -59q2 -34 -142 -72q-6 -2 -10.5 2t-6 12.5t2.5 20.5q14 41 29 63.5t51 54.5q59 54 145 100t160 46q30 0 73.5 -23t55.5 -45 q7 -13 9.5 -13t15.5 11q30 32 81 50t103 18h6q65 0 124 -20t101.5 -66t42.5 -109q0 -21 -7 -35t-15.5 -19.5t-26.5 -14.5q-12 -6 -88.5 -39.5t-171.5 -75t-117 -51.5q-8 -4 -15 -16.5t-7 -20.5l-2 -115q-1 -93 51 -131.5t131 -38.5q141 0 227 99q8 8 19 8q12 0 21 -10.5 t3 -20.5q-71 -104 -146 -151.5t-187 -47.5q-127 0 -224 82q-25 25 -26 25q-9 0 -17 -8q-2 -1 -22.5 -18.5t-35.5 -27t-42.5 -24t-61.5 -21.5t-73 -8q-63 0 -119.5 51t-56.5 111zM236 178q0 -53 32.5 -82.5t67.5 -29.5q64 0 127 55q9 8 14 14t10 22t5 40l2 106 q0 26 -3.5 35.5t-15.5 9.5q-3 0 -35 -8q-106 -31 -154 -75.5t-50 -86.5zM635 520q0 -14 11 -19t20 -1q58 24 153 58.5t107 39.5q27 10 6 74q-23 56 -66 87.5t-90 31.5q-67 0 -94 -35q-43 -49 -43 -90z" />
<glyph unicode="&#x4d6;" horiz-adv-x="1095" d="M47 12q0 25 68 37q79 14 115 48.5t36 105.5v921q0 73 -30 104.5t-107 45.5q-68 12 -68 41q0 22 60 22q78 0 185 -3t177 -3q108 0 267.5 3t177.5 3h18q34 0 37 -18q23 -126 25 -211q0 -8 -9.5 -13t-19.5 -5q-17 0 -23 20q-23 73 -47 100q-51 56 -137 56h-268 q-19 0 -41 -19.5t-25 -42.5q-2 -14 -5 -189t-3 -249q0 -45 21 -45h213q43 0 76 22t48 58q3 8 16.5 21.5t20.5 13.5q9 0 18.5 -10.5t8.5 -22.5q-6 -99 -6 -127t6 -125q0 -35 -18 -35t-31 16t-17 31q-23 71 -96 80q-74 12 -125 12q-28 0 -44.5 -1t-42 -6t-37.5 -18t-11 -34 q0 -14 6 -365q2 -80 32 -119.5t97 -39.5h213q16 0 77.5 12t78.5 25q42 33 86 129q10 20 29 20q12 -2 19.5 -8.5t6.5 -16.5q-11 -108 -35 -208q-3 -12 -5 -17t-8 -11.5t-15 -6.5q-138 0 -356.5 6t-313.5 6q-44 0 -111 -6t-125 -6q-59 0 -59 22zM295 1636q0 38 24.5 66.5 t55.5 28.5q30 0 55 -20t25 -44q0 -20 -6.5 -48t-6.5 -44q0 -31 46 -58.5t116 -27.5q69 0 118.5 28t49.5 54q0 22 -9 49.5t-9 46.5q0 24 25 44t55 20q31 0 55 -28.5t24 -66.5q0 -92 -97.5 -155.5t-211.5 -63.5q-76 0 -144 21.5t-116.5 73t-48.5 124.5z" />
<glyph unicode="&#x4d7;" horiz-adv-x="794" d="M68 377q0 119 47.5 226t136.5 176t197 69q147 0 215.5 -52t68.5 -134q0 -92 -43 -113q-48 -23 -115 -23h-335q-28 0 -40 -13.5t-12 -61.5q0 -150 87.5 -251.5t222.5 -101.5q122 0 184 82q10 10 18 10q11 0 19.5 -10t5.5 -22q-8 -29 -32.5 -60t-63 -60t-97.5 -48t-126 -19 q-91 0 -169.5 57.5t-123.5 151t-45 197.5zM182 1206q0 38 20.5 61t51.5 23q30 0 51 -19.5t21 -43.5q0 -20 -8.5 -48t-8.5 -44q0 -29 41 -49.5t90 -20.5q47 0 91 19t44 46q0 22 -10 50t-10 47q0 24 21 43.5t51 19.5q31 0 51 -23t20 -61q0 -94 -73.5 -148t-184.5 -54 q-258 0 -258 202zM229 610.5q6 -20.5 37 -20.5h168q96 0 150 10q6 1 10 8t5.5 19t1.5 21t-0.5 21t-0.5 13q-4 49 -47 75.5t-117 26.5q-126 0 -200 -133q-13 -20 -7 -40.5z" />
<glyph unicode="&#x4d9;" horiz-adv-x="794" d="M43 207q0 41 11.5 71t29 47t45.5 26.5t53.5 12.5t59.5 3h317q25 0 31 11.5t6 63.5q0 126 -70.5 212.5t-183.5 86.5q-68 0 -130.5 -26t-100.5 -76q-10 -10 -19 -10q-11 0 -19 10.5t-5 22.5q18 64 110 125t221 61q152 0 253.5 -117.5t101.5 -279.5q0 -90 -30.5 -177 t-82 -154t-125.5 -108t-156 -41q-75 0 -137 22.5t-100.5 58t-59 76t-20.5 79.5zM209 186q0 -53 52 -102t122 -49q125 0 203 141q8 15 12 44.5t-3 56t-28 26.5h-184q-96 0 -150 -10q-24 -4 -24 -107z" />
<glyph unicode="&#x4db;" horiz-adv-x="794" d="M43 207q0 41 11.5 71t29 47t45.5 26.5t53.5 12.5t59.5 3h317q25 0 31 11.5t6 63.5q0 126 -70.5 212.5t-183.5 86.5q-68 0 -130.5 -26t-100.5 -76q-10 -10 -19 -10q-11 0 -19 10.5t-5 22.5q18 64 110 125t221 61q152 0 253.5 -117.5t101.5 -279.5q0 -90 -30.5 -177 t-82 -154t-125.5 -108t-156 -41q-75 0 -137 22.5t-100.5 58t-59 76t-20.5 79.5zM115 1073q0 38 32.5 70.5t69.5 32.5q39 0 70.5 -32t31.5 -71t-31.5 -70.5t-70.5 -31.5q-37 0 -69.5 32t-32.5 70zM209 186q0 -53 52 -102t122 -49q125 0 203 141q8 15 12 44.5t-3 56t-28 26.5 h-184q-96 0 -150 -10q-24 -4 -24 -107zM479 1073q0 39 32 71t71 32q37 0 69.5 -32.5t32.5 -70.5t-32.5 -70t-69.5 -32q-40 0 -71.5 31.5t-31.5 70.5z" />
<glyph unicode="&#x4dc;" horiz-adv-x="1974" d="M-29 27q0 24 17 24q33 0 62.5 5t52.5 12t44.5 19.5t36.5 23t31 27.5t25 29t20.5 31.5t17 29.5t15 29.5t12.5 25.5q2 3 31.5 60.5t45.5 86t44 75t51 75.5q48 61 97 99.5t81 49.5q26 7 -2 21q-55 28 -80 51q-46 40 -88.5 107.5t-93.5 172.5q-26 53 -65.5 90t-75.5 37 q-3 0 -33.5 -10t-50.5 -10q-32 0 -46 23t-14 55q0 39 38.5 67.5t82.5 28.5q58 0 123 -68t109 -168q39 -90 82 -162t71 -100q116 -116 273 -131q7 -1 9.5 7t2.5 32v367q0 69 -28.5 95t-108.5 40q-68 12 -68 41q0 22 60 22q58 0 126 -3t113 -3q41 0 103 3t120 3q60 0 60 -22 q0 -29 -68 -41q-82 -14 -113.5 -40.5t-31.5 -94.5v-367q0 -24 2.5 -32t9.5 -7q157 15 273 131q28 28 71 100t82 162q44 100 109 168t123 68q44 0 82 -28.5t38 -67.5q0 -32 -13.5 -55t-45.5 -23q-20 0 -50.5 10t-33.5 10q-36 0 -75.5 -37t-65.5 -90q-103 -211 -183 -280 q-27 -24 -79 -51q-28 -14 -2 -21q32 -11 81 -49.5t97 -99.5q23 -29 51 -75.5t44 -75t45.5 -86t31.5 -60.5q3 -6 12.5 -25.5t15 -29.5t17 -29.5t20.5 -31.5t25 -29t31 -27.5t36.5 -23t44.5 -19.5t52.5 -12t62.5 -5q17 0 17 -24q0 -19 -11 -27q-21 -14 -65.5 -25.5 t-81.5 -11.5q-90 0 -175 52t-130 141q-94 186 -205 370q-53 86 -125 113q-78 31 -115 35q-18 0 -18 -39v-432q0 -70 40 -105t122 -49q67 -11 67 -37q0 -22 -59 -22q-58 0 -126.5 5t-113.5 5q-50 0 -127.5 -5t-134.5 -5q-59 0 -59 22q0 26 67 37q81 14 120.5 49t39.5 105v432 q0 39 -20 39q-40 -4 -117 -35q-72 -27 -125 -113q-71 -117 -205 -370q-43 -82 -128.5 -137.5t-172.5 -55.5q-37 0 -81.5 11.5t-65.5 25.5q-11 8 -11 27zM672 1597q0 46 33 79.5t79 33.5t79.5 -33.5t33.5 -79.5t-33.5 -79t-79.5 -33t-79 33t-33 79zM1061 1597q0 46 33.5 79.5 t79.5 33.5t79 -33.5t33 -79.5t-33 -79t-79 -33t-79.5 33t-33.5 79z" />
<glyph unicode="&#x4dd;" horiz-adv-x="1329" d="M0 25q0 25 92 41q32 6 68 30.5t57 55.5l184 282q14 20 -2 43q-19 27 -69.5 104.5t-63.5 94.5q-16 21 -28 28t-39 7q-13 0 -37.5 -22.5t-40.5 -22.5q-29 0 -50.5 34t-21.5 62t27.5 60t62.5 32q38 0 94 -30t86 -81q78 -124 146 -221q18 -26 52 -41.5t67 -15.5q2 0 7 -0.5 t7.5 -0.5t5 2t2.5 7q0 97 -2 201q-3 79 -76 100q-47 16 -47 37q0 18 47 18q41 0 75 -5t69 -5t66.5 5t72.5 5q47 0 47 -18q0 -21 -47 -37q-74 -22 -74 -102q-2 -104 -2 -199q0 -5 2.5 -7t5 -2t8 0.5t7.5 0.5q33 0 65.5 15.5t50.5 41.5q103 146 166 221q42 52 89.5 81.5 t80.5 29.5q35 0 62.5 -32t27.5 -60t-21 -62t-50 -34q-16 0 -40.5 22.5t-37.5 22.5q-27 0 -39.5 -7t-28.5 -28l-143 -199q-16 -23 -2 -43l184 -282q21 -31 57 -55.5t68 -30.5q92 -16 92 -41q0 -11 -13 -20.5t-45.5 -17t-78.5 -7.5q-127 0 -198 108l-177 268q-41 64 -71 64 q-4 0 -9.5 -3t-8.5 -6l-3 -3q1 -39 2 -138t2 -143q0 -8 1.5 -15.5t3.5 -13t6.5 -11t7 -9t10 -7.5t10.5 -5.5t12.5 -5t11.5 -4t13 -4t12 -3.5q47 -16 47 -37q0 -18 -47 -18q-41 0 -78.5 5t-72.5 5t-77 -5t-83 -5q-47 0 -47 18q0 21 47 37q5 1 20.5 5.5t21 6.5t17 7.5t16.5 12 t9 17.5t4 25q1 46 1 146.5t1 138.5q-10 12 -20 12q-33 0 -74 -64l-176 -268q-71 -108 -199 -108q-46 0 -78.5 7.5t-45.5 17t-13 20.5zM397 1153q0 38 32.5 70t70.5 32t70 -32t32 -70t-32 -70t-70 -32t-70.5 32t-32.5 70zM760 1153q0 38 32 70t70 32t70.5 -32t32.5 -70 t-32.5 -70t-70.5 -32t-70 32t-32 70z" />
<glyph unicode="&#x4de;" horiz-adv-x="1044" d="M72 324q-2 12 11 22t30 10q11 0 49 -90q42 -106 119 -168.5t163 -62.5h2q78 1 139 31t98 80t56 111.5t19 129.5q0 82 -25 150t-82 112.5t-137 44.5q-13 0 -60 -7t-92 -7q-81 0 -83 41q-1 25 26 39t53 14q40 0 81 -6t85 -6q42 0 74 22t50 59.5t27 80.5t9 90q0 40 -5 74.5 t-20.5 74t-41 67.5t-71 46.5t-106.5 19.5h-4q-174 0 -243 -262q-4 -21 -23.5 -36t-30.5 -15q-7 0 -13.5 18t-6.5 33q0 72 20 189q7 37 27 41q32 8 87.5 33.5t111 44t110.5 18.5q63 0 120.5 -11.5t109.5 -37t90 -62.5t60 -90.5t22 -118.5q0 -64 -20 -117t-46 -79 q-35 -33 -62 -51t-75 -37q-8 -3 -8.5 -10.5t8.5 -10.5q32 -10 55 -18.5t55 -24t54 -32t46.5 -42.5t39.5 -56.5t24.5 -73t9.5 -91.5q-1 -90 -34 -163.5t-87.5 -121.5t-126 -80.5t-146.5 -46.5t-152 -14q-75 0 -130.5 15.5t-117.5 44.5q-62 28 -70 75q-20 142 -22 218z M168 1595q0 46 33.5 79.5t79.5 33.5t79 -33.5t33 -79.5t-33 -79t-79 -33t-79.5 33t-33.5 79zM557 1595q0 46 33.5 79.5t79.5 33.5t79 -33.5t33 -79.5t-33 -79t-79 -33t-79.5 33t-33.5 79z" />
<glyph unicode="&#x4df;" horiz-adv-x="751" d="M51 215q0 51 31 51q12 0 37 -61q36 -81 90.5 -118.5t116.5 -37.5q84 0 136 48.5t52 138.5q0 67 -30 116t-87 49q-14 0 -43 -6t-53 -6q-28 0 -49 11t-21 34q0 51 84 51q12 0 39.5 -6t48.5 -6q38 0 70.5 36.5t32.5 94.5q0 44 -12.5 81.5t-48 66t-89.5 28.5 q-108 0 -188 -131q-8 -13 -17.5 -39t-17.5 -40.5t-20 -14.5q-16 0 -19.5 11t-3.5 36q0 19 1 33t2 22t4 26.5t5 35.5q5 48 29 59q47 22 121 43t131 21q120 0 194 -48.5t74 -156.5q0 -44 -13 -81t-30 -54q-22 -21 -37 -29.5t-59 -26.5q-5 -2 -5.5 -8t5.5 -6q67 -7 117.5 -55 t50.5 -131q0 -28 -4.5 -53t-9.5 -42.5t-17 -34.5t-19 -26t-23 -21t-22 -15.5t-24 -13.5t-20 -11q-71 -45 -238 -45q-63 0 -145.5 31t-94.5 79q-12 55 -12 121zM82 1153q0 38 32 70t70 32t70.5 -32t32.5 -70t-32.5 -70t-70.5 -32t-70 32t-32 70zM444 1153q0 38 32.5 70 t70.5 32t70 -32t32 -70t-32 -70t-70 -32t-70.5 32t-32.5 70z" />
<glyph unicode="&#x4e1;" horiz-adv-x="872" d="M49 -475q-2 22 5 39.5t24 17.5q21 0 48 -23.5t38 -29.5q55 -31 98 -31q71 0 138.5 36.5t113.5 91t74 118.5t28 119q0 82 -19 153.5t-68 124t-121 52.5q-36 0 -99 -11.5t-73 -11.5q-13 0 -15 8.5t1 18.5l3 10q10 26 56 102l254 416q13 18 -19 20q-23 1 -89.5 5t-102.5 4 q-7 0 -22.5 -1t-22.5 -1q-29 -1 -70.5 -36t-75.5 -79q-1 -1 -9.5 -12.5t-14.5 -18t-15 -13.5t-16 -7q-8 0 -10 8t0.5 18t7.5 19q11 27 17.5 89.5t6.5 108.5q0 23 21 23q9 0 31 -18q14 -11 98 -11h147q128 0 346 4q7 0 12.5 -9t2.5 -15q-21 -38 -62 -101q-144 -223 -256 -430 q-13 -26 19 -26q8 0 21 2t14 2q126 0 211.5 -90.5t85.5 -222.5q0 -65 -27 -138t-76.5 -140.5t-114 -122t-146 -87.5t-165.5 -33q-111 0 -176 35q-33 16 -37 74z" />
<glyph unicode="&#x4e2;" horiz-adv-x="1624" d="M76 12q0 26 67 37q74 13 98.5 45.5t24.5 108.5v925q0 77 -18 105t-90 41q-68 12 -68 41q0 22 60 22q59 0 116 -3t94 -3q39 0 99 3t119 3t59 -22q0 -29 -68 -41q-75 -13 -107 -48.5t-32 -97.5v-725q0 -21 6 -27t17 5l708 713q36 36 31 57q0 52 -33 81.5t-100 41.5 q-68 12 -68 41q0 22 60 22q58 0 125.5 -3t111.5 -3q32 0 81.5 3t109.5 3q59 0 59 -22q0 -29 -68 -41q-37 -7 -60 -18.5t-34 -31.5t-14.5 -40.5t-3.5 -53.5v-925q0 -79 22 -111t95 -45q67 -11 67 -37q0 -22 -59 -22t-118.5 5t-98.5 5q-40 0 -100 -5t-119 -5q-60 0 -60 22 q0 25 68 37q70 13 103.5 40.5t33.5 84.5v715q0 109 -9 112q-3 1 -12 -8l-722 -731q-17 -17 -17 -88q0 -59 39.5 -85t120.5 -40q67 -11 67 -37q0 -22 -59 -22q-58 0 -126.5 5t-113.5 5q-41 0 -104 -5t-121 -5q-59 0 -59 22zM516 1505q0 24 12 55t37 31h539q11 0 20 -9t6 -19 q-17 -55 -31 -69q-13 -13 -32 -13h-522q-11 0 -20 7.5t-9 16.5z" />
<glyph unicode="&#x4e3;" horiz-adv-x="1044" d="M51 12q0 21 47 37q23 7 32 10.5t25 12.5t22.5 23t6.5 34v561q0 20 -6 34t-18.5 22.5t-23.5 13t-30 10.5q-47 16 -47 37q0 18 41 18h6q41 0 79 -5t73 -5t71 5t77 5h6q41 0 41 -18q0 -21 -47 -37q-19 -6 -30 -10.5t-23.5 -13t-18.5 -22.5t-6 -34v-409q0 -7 8.5 -11.5 t11.5 -1.5l359 375q10 13 10 27v20q0 38 -17.5 53.5t-54.5 26.5q-47 16 -47 37q0 18 41 18h6q41 0 77 -5t71 -5t72.5 5t78.5 5h6q41 0 41 -18q0 -21 -47 -37q-27 -8 -41.5 -14t-28.5 -23t-14 -43v-561q0 -20 7 -33.5t23.5 -23t27 -13.5t32.5 -10q47 -16 47 -37 q0 -18 -41 -18h-6q-41 0 -82.5 5t-76.5 5t-77 -5t-83 -5h-6q-41 0 -41 18q0 21 47 37q21 6 31.5 10t25.5 13t22 23t7 34v412q0 11 -5 11q-1 1 -3 -1l-375 -375q-6 -6 -6 -26v-21q0 -16 6.5 -29t12 -20t23 -14.5t22.5 -9t26 -7.5q47 -16 47 -37q0 -18 -41 -18h-6q-41 0 -83 5 t-77 5t-77 -5t-83 -5h-6q-41 0 -41 18zM256 1108q0 22 12.5 50t36.5 28h457q11 0 20.5 -9.5t5.5 -19.5q-9 -25 -13.5 -36.5t-18 -24.5t-31.5 -13h-440q-10 0 -19.5 8t-9.5 17z" />
<glyph unicode="&#x4e4;" horiz-adv-x="1624" d="M76 12q0 26 67 37q74 13 98.5 45.5t24.5 108.5v925q0 77 -18 105t-90 41q-68 12 -68 41q0 22 60 22q59 0 116 -3t94 -3q39 0 99 3t119 3t59 -22q0 -29 -68 -41q-75 -13 -107 -48.5t-32 -97.5v-725q0 -21 6 -27t17 5l708 713q36 36 31 57q0 52 -33 81.5t-100 41.5 q-68 12 -68 41q0 22 60 22q58 0 125.5 -3t111.5 -3q32 0 81.5 3t109.5 3q59 0 59 -22q0 -29 -68 -41q-37 -7 -60 -18.5t-34 -31.5t-14.5 -40.5t-3.5 -53.5v-925q0 -79 22 -111t95 -45q67 -11 67 -37q0 -22 -59 -22t-118.5 5t-98.5 5q-40 0 -100 -5t-119 -5q-60 0 -60 22 q0 25 68 37q70 13 103.5 40.5t33.5 84.5v715q0 109 -9 112q-3 1 -12 -8l-722 -731q-17 -17 -17 -88q0 -59 39.5 -85t120.5 -40q67 -11 67 -37q0 -22 -59 -22q-58 0 -126.5 5t-113.5 5q-41 0 -104 -5t-121 -5q-59 0 -59 22zM516 1546q0 46 33.5 79.5t79.5 33.5t79 -33.5 t33 -79.5t-33 -79t-79 -33t-79.5 33t-33.5 79zM905 1546q0 46 33.5 79.5t79.5 33.5t79 -33.5t33 -79.5t-33 -79t-79 -33t-79.5 33t-33.5 79z" />
<glyph unicode="&#x4e5;" horiz-adv-x="1044" d="M51 12q0 21 47 37q23 7 32 10.5t25 12.5t22.5 23t6.5 34v561q0 20 -6 34t-18.5 22.5t-23.5 13t-30 10.5q-47 16 -47 37q0 18 41 18h6q41 0 79 -5t73 -5t71 5t77 5h6q41 0 41 -18q0 -21 -47 -37q-19 -6 -30 -10.5t-23.5 -13t-18.5 -22.5t-6 -34v-409q0 -7 8.5 -11.5 t11.5 -1.5l359 375q10 13 10 27v20q0 38 -17.5 53.5t-54.5 26.5q-47 16 -47 37q0 18 41 18h6q41 0 77 -5t71 -5t72.5 5t78.5 5h6q41 0 41 -18q0 -21 -47 -37q-27 -8 -41.5 -14t-28.5 -23t-14 -43v-561q0 -20 7 -33.5t23.5 -23t27 -13.5t32.5 -10q47 -16 47 -37 q0 -18 -41 -18h-6q-41 0 -82.5 5t-76.5 5t-77 -5t-83 -5h-6q-41 0 -41 18q0 21 47 37q21 6 31.5 10t25.5 13t22 23t7 34v412q0 11 -5 11q-1 1 -3 -1l-375 -375q-6 -6 -6 -26v-21q0 -16 6.5 -29t12 -20t23 -14.5t22.5 -9t26 -7.5q47 -16 47 -37q0 -18 -41 -18h-6q-41 0 -83 5 t-77 5t-77 -5t-83 -5h-6q-41 0 -41 18zM248 1153q0 38 32 70t70 32t70.5 -32t32.5 -70t-32.5 -70t-70.5 -32t-70 32t-32 70zM610 1153q0 38 32.5 70t70.5 32t70 -32t32 -70t-32 -70t-70 -32t-70.5 32t-32.5 70z" />
<glyph unicode="&#x4e6;" horiz-adv-x="1562" d="M92 655q0 112 29 215.5t88 193t142.5 155.5t198.5 103.5t249 37.5q133 0 255 -49.5t214 -136t147 -214t55 -274.5q0 -140 -45.5 -267.5t-129.5 -228t-217 -160t-296 -59.5q-134 0 -260 53t-221 142.5t-152 218t-57 270.5zM291 717q0 -175 65.5 -327t185.5 -245.5 t267 -93.5q226 0 344.5 153t118.5 421q0 196 -57 342.5t-171.5 229.5t-275.5 83q-88 0 -165.5 -31t-133.5 -84.5t-97 -125t-61 -154t-20 -168.5zM492 1595q0 46 33 79.5t79 33.5t79.5 -33.5t33.5 -79.5t-33.5 -79t-79.5 -33t-79 33t-33 79zM881 1595q0 46 33 79.5t79 33.5 t79.5 -33.5t33.5 -79.5t-33.5 -79t-79.5 -33t-79 33t-33 79z" />
<glyph unicode="&#x4e7;" horiz-adv-x="1013" d="M72 383q0 113 58.5 220t163 176t226.5 69q87 0 166 -33.5t134.5 -89.5t88.5 -131.5t33 -157.5q0 -92 -30 -174.5t-86 -148t-146 -104t-201 -38.5q-173 0 -290 116.5t-117 295.5zM221 1073q0 39 32 71t71 32q37 0 69.5 -32.5t32.5 -70.5t-32.5 -70t-69.5 -32 q-40 0 -71.5 31.5t-31.5 70.5zM240 430q0 -102 35.5 -192.5t101.5 -147.5t145 -57q154 0 211 112q41 78 41 242q0 99 -35 189t-102.5 149t-151.5 59q-59 0 -102 -18.5t-78 -63.5q-65 -83 -65 -272zM582 1073q0 38 32.5 70.5t69.5 32.5q39 0 70.5 -32t31.5 -71t-31.5 -70.5 t-70.5 -31.5q-37 0 -69.5 32t-32.5 70z" />
<glyph unicode="&#x4e8;" horiz-adv-x="1562" d="M92 655q0 140 45.5 265t130.5 222t217.5 155.5t296.5 62.5h17q133 0 255 -49.5t214 -136t147 -214t55 -274.5q0 -140 -45.5 -267.5t-129.5 -228t-217 -160t-296 -59.5q-134 0 -260 53t-221 142.5t-152 218t-57 270.5zM293 764q12 -4 22 -4h930q13 0 19 2 q-28 241 -156 379.5t-340 138.5q-138 0 -245 -74t-164 -189.5t-66 -252.5zM297 616q19 -154 87 -282t180 -205.5t245 -77.5q219 0 337 142t126 395q-24 28 -58 28h-917z" />
<glyph unicode="&#x4e9;" horiz-adv-x="1013" d="M72 383q0 113 58.5 220t163 176t226.5 69q87 0 166 -33.5t134.5 -89.5t88.5 -131.5t33 -157.5q0 -92 -30 -174.5t-86 -148t-146 -104t-201 -38.5q-173 0 -290 116.5t-117 295.5zM240 469l4 -2h524q-21 132 -98 224.5t-185 92.5q-59 0 -102 -18.5t-78 -63.5 q-57 -72 -65 -233zM242 391q11 -146 89.5 -252t190.5 -106q154 0 211 112q41 78 41 242v4h-532z" />
<glyph unicode="&#x4ea;" horiz-adv-x="1562" d="M92 655q0 140 45.5 265t130.5 222t217.5 155.5t296.5 62.5h17q133 0 255 -49.5t214 -136t147 -214t55 -274.5q0 -140 -45.5 -267.5t-129.5 -228t-217 -160t-296 -59.5q-134 0 -260 53t-221 142.5t-152 218t-57 270.5zM293 764q12 -4 22 -4h930q13 0 19 2 q-28 241 -156 379.5t-340 138.5q-138 0 -245 -74t-164 -189.5t-66 -252.5zM297 616q19 -154 87 -282t180 -205.5t245 -77.5q219 0 337 142t126 395q-24 28 -58 28h-917zM465 1546q0 46 33.5 79.5t79.5 33.5t79 -33.5t33 -79.5t-33 -79t-79 -33t-79.5 33t-33.5 79zM854 1546 q0 46 33.5 79.5t79.5 33.5t79 -33.5t33 -79.5t-33 -79t-79 -33t-79.5 33t-33.5 79z" />
<glyph unicode="&#x4eb;" horiz-adv-x="1013" d="M72 383q0 113 58.5 220t163 176t226.5 69q87 0 166 -33.5t134.5 -89.5t88.5 -131.5t33 -157.5q0 -92 -30 -174.5t-86 -148t-146 -104t-201 -38.5q-173 0 -290 116.5t-117 295.5zM223 1153q0 38 32.5 70t70.5 32t70 -32t32 -70t-32 -70t-70 -32t-70.5 32t-32.5 70z M240 469l4 -2h524q-21 132 -98 224.5t-185 92.5q-59 0 -102 -18.5t-78 -63.5q-57 -72 -65 -233zM242 391q11 -146 89.5 -252t190.5 -106q154 0 211 112q41 78 41 242v4h-532zM586 1153q0 38 32 70t70 32t70.5 -32t32.5 -70t-32.5 -70t-70.5 -32t-70 32t-32 70z" />
<glyph unicode="&#x4ec;" horiz-adv-x="1314" d="M94 293q0 19 7 34.5t18 16.5h2q9 0 22 -16t19 -35q31 -87 86 -137q65 -60 137.5 -92.5t185.5 -32.5q109 0 195.5 51.5t139 139t82 192.5t34.5 223q2 18 -14 18q-84 4 -217 4q-360 0 -469 -30q-9 -3 -16 4.5t-7 17.5q0 4 31.5 29.5t73 50.5t61.5 25q150 0 334 -22t207 -23 q18 0 16 20q-7 110 -39 209t-86.5 179t-140.5 127.5t-191 47.5q-185 0 -289 -104q-27 -25 -60 -71.5t-44 -90.5q-11 -50 -24 -59q-5 -3 -11 -4q-13 -1 -17.5 13t-4.5 34q3 89 30 223q11 53 21 59q3 2 6 2q20 1 83 18t73 19q132 27 268 27q173 0 317.5 -91.5t226 -243.5 t81.5 -327q0 -137 -46.5 -268t-128 -233.5t-201.5 -165t-257 -62.5q-239 0 -346 41q-96 34 -115 94q-33 111 -33 189zM289 1595q0 46 33 79.5t79 33.5t79.5 -33.5t33.5 -79.5t-33.5 -79t-79.5 -33t-79 33t-33 79zM678 1595q0 46 33.5 79.5t79.5 33.5t79 -33.5t33 -79.5 t-33 -79t-79 -33t-79.5 33t-33.5 79z" />
<glyph unicode="&#x4ed;" horiz-adv-x="815" d="M61 152q0 55 25 55q8 0 18.5 -10.5t21.5 -25.5t13 -17q56 -63 106.5 -86t121.5 -23q103 0 164 89.5t61 242.5q0 18 -14 18q-64 0 -186 -8t-199 -8q-37 0 -37 16q0 18 39.5 45.5t70.5 28.5q74 2 163.5 -3t145.5 -5q6 0 11.5 5t5.5 11q0 138 -66.5 203t-201.5 65 q-60 0 -104.5 -26.5t-102.5 -87.5q-10 -11 -22 -14t-20 3t-7 17q4 33 20 55q103 154 297 154q152 0 255 -117.5t103 -279.5q0 -124 -49.5 -232.5t-144 -177t-213.5 -68.5q-68 0 -116.5 13t-108.5 49q-29 18 -39.5 40.5t-10.5 78.5zM84 1153q0 38 32 70t70 32t70.5 -32 t32.5 -70t-32.5 -70t-70.5 -32t-70 32t-32 70zM446 1153q0 38 32.5 70t70.5 32t70 -32t32 -70t-32 -70t-70 -32t-70.5 32t-32.5 70z" />
<glyph unicode="&#x4ee;" d="M0 1315q0 22 59 22q26 0 107.5 -3t132.5 -3q34 0 89.5 2t74.5 2q59 0 59 -22q0 -13 -15 -21t-52 -20q-13 -4 -22 -9t-18.5 -21.5t-10 -40t9 -67.5t32.5 -102l191 -481q21 -59 33 -59q15 0 41 59l260 561q22 46 -13.5 95.5t-83.5 62.5q-67 18 -67 41q0 22 59 22 q31 0 78 -1t76 -1q42 0 109.5 3t87.5 3q59 0 59 -22q0 -27 -68 -41q-49 -10 -81 -48.5t-64 -105.5l-309 -665q-138 -295 -223 -416t-160 -121q-96 0 -144 33q-47 32 -47 102q0 28 27.5 42t54.5 16q12 0 52 -24t67 -24q67 0 108 36t76 118q13 29 -16 107l-303 745 q-68 170 -178 201q-68 21 -68 45zM360 1505q0 24 12.5 55t37.5 31h538q11 0 20.5 -9t6.5 -19q-6 -19 -7.5 -24t-8 -20.5t-12 -21t-15 -11t-21.5 -5.5h-522q-11 0 -20 7.5t-9 16.5z" />
<glyph unicode="&#x4ef;" horiz-adv-x="897" d="M10 811q0 18 41 18h6q41 0 75 -5t69 -5t71.5 5t77.5 5h6q41 0 41 -18q0 -21 -47 -37q-30 -9 -41.5 -53t4.5 -82l162 -401q17 -40 31 2l137 364q19 47 6.5 104t-43.5 66q-47 16 -47 37q0 18 41 18h6q10 0 54 -5t85 -5q40 0 70 5t45 5h6q41 0 41 -18q0 -21 -47 -37 q-31 -9 -66 -48.5t-55 -88.5l-278 -664q-2 -5 -32.5 -81.5t-77 -190.5t-83.5 -201q-38 -84 -123 -84q-35 0 -61.5 26t-26.5 60q0 37 29 69t59 32q10 0 33 -19.5t35 -19.5t20 14q12 21 26 51.5t31.5 74.5t30 77t35 94.5t33.5 91.5q7 21 6.5 53t-8.5 54l-237 600 q-34 83 -93 100q-47 16 -47 37zM190 1108q0 21 13 49.5t37 28.5h456q11 0 21 -9.5t6 -19.5q-6 -18 -10 -27t-11.5 -22t-18 -19t-24.5 -6h-440q-10 0 -19.5 8t-9.5 17z" />
<glyph unicode="&#x4f0;" d="M0 1315q0 22 59 22q26 0 107.5 -3t132.5 -3q34 0 89.5 2t74.5 2q59 0 59 -22q0 -13 -15 -21t-52 -20q-13 -4 -22 -9t-18.5 -21.5t-10 -40t9 -67.5t32.5 -102l191 -481q21 -59 33 -59q15 0 41 59l260 561q22 46 -13.5 95.5t-83.5 62.5q-67 18 -67 41q0 22 59 22 q31 0 78 -1t76 -1q42 0 109.5 3t87.5 3q59 0 59 -22q0 -27 -68 -41q-49 -10 -81 -48.5t-64 -105.5l-309 -665q-138 -295 -223 -416t-160 -121q-96 0 -144 33q-47 32 -47 102q0 28 27.5 42t54.5 16q12 0 52 -24t67 -24q67 0 108 36t76 118q13 29 -16 107l-303 745 q-68 170 -178 201q-68 21 -68 45zM360 1546q0 46 33.5 79.5t79.5 33.5t79.5 -33.5t33.5 -79.5t-33.5 -79t-79.5 -33t-79.5 33t-33.5 79zM750 1546q0 46 33 79.5t79 33.5t79.5 -33.5t33.5 -79.5t-33.5 -79t-79.5 -33t-79 33t-33 79z" />
<glyph unicode="&#x4f1;" horiz-adv-x="897" d="M10 811q0 18 41 18h6q41 0 75 -5t69 -5t71.5 5t77.5 5h6q41 0 41 -18q0 -21 -47 -37q-30 -9 -41.5 -53t4.5 -82l162 -401q17 -40 31 2l137 364q19 47 6.5 104t-43.5 66q-47 16 -47 37q0 18 41 18h6q10 0 54 -5t85 -5q40 0 70 5t45 5h6q41 0 41 -18q0 -21 -47 -37 q-31 -9 -66 -48.5t-55 -88.5l-278 -664q-2 -5 -32.5 -81.5t-77 -190.5t-83.5 -201q-38 -84 -123 -84q-35 0 -61.5 26t-26.5 60q0 37 29 69t59 32q10 0 33 -19.5t35 -19.5t20 14q12 21 26 51.5t31.5 74.5t30 77t35 94.5t33.5 91.5q7 21 6.5 53t-8.5 54l-237 600 q-34 83 -93 100q-47 16 -47 37zM182 1153q0 38 32.5 70t70.5 32t70 -32t32 -70t-32 -70t-70 -32t-70.5 32t-32.5 70zM545 1153q0 38 32 70t70 32t70.5 -32t32.5 -70t-32.5 -70t-70.5 -32t-70 32t-32 70z" />
<glyph unicode="&#x4f2;" d="M0 1315q0 22 59 22q26 0 107.5 -3t132.5 -3q34 0 89.5 2t74.5 2q59 0 59 -22q0 -13 -15 -21t-52 -20q-13 -4 -22 -9t-18.5 -21.5t-10 -40t9 -67.5t32.5 -102l191 -481q21 -59 33 -59q15 0 41 59l260 561q22 46 -13.5 95.5t-83.5 62.5q-67 18 -67 41q0 22 59 22 q31 0 78 -1t76 -1q42 0 109.5 3t87.5 3q59 0 59 -22q0 -27 -68 -41q-49 -10 -81 -48.5t-64 -105.5l-309 -665q-138 -295 -223 -416t-160 -121q-96 0 -144 33q-47 32 -47 102q0 28 27.5 42t54.5 16q12 0 52 -24t67 -24q67 0 108 36t76 118q13 29 -16 107l-303 745 q-68 170 -178 201q-68 21 -68 45zM430.5 1446q-6.5 12 1.5 31q71 158 117 235q17 27 30.5 35t38.5 8q72 0 97 -43q15 -27 -31 -67q-31 -27 -93 -88t-85 -87q-10 -12 -28 -24t-29 -12q-12 0 -18.5 12zM721 1446q-6 12 2 31q71 158 117 235q17 27 30.5 35t38.5 8q72 0 97 -43 q15 -27 -31 -67q-31 -27 -93 -88t-85 -87q-10 -12 -28.5 -24t-29.5 -12q-12 0 -18 12z" />
<glyph unicode="&#x4f3;" horiz-adv-x="897" d="M10 811q0 18 41 18h6q41 0 75 -5t69 -5t71.5 5t77.5 5h6q41 0 41 -18q0 -21 -47 -37q-30 -9 -41.5 -53t4.5 -82l162 -401q17 -40 31 2l137 364q19 47 6.5 104t-43.5 66q-47 16 -47 37q0 18 41 18h6q10 0 54 -5t85 -5q40 0 70 5t45 5h6q41 0 41 -18q0 -21 -47 -37 q-31 -9 -66 -48.5t-55 -88.5l-278 -664q-2 -5 -32.5 -81.5t-77 -190.5t-83.5 -201q-38 -84 -123 -84q-35 0 -61.5 26t-26.5 60q0 37 29 69t59 32q10 0 33 -19.5t35 -19.5t20 14q12 21 26 51.5t31.5 74.5t30 77t35 94.5t33.5 91.5q7 21 6.5 53t-8.5 54l-237 600 q-34 83 -93 100q-47 16 -47 37zM301 934q-6 31 125 352q24 62 92 74h12q23 0 43.5 -13t24.5 -32q3 -17 -42.5 -85.5t-104 -150.5t-74.5 -112q-26 -51 -45 -56h-6q-22 0 -25 23zM578 934q-6 33 124 352q24 62 93 74h12q23 0 43 -13t24 -32q3 -17 -39.5 -83t-104 -152.5 t-77.5 -112.5q-1 -2 -6.5 -11t-9 -14.5t-9 -13t-10.5 -12t-10 -5.5h-6q-21 0 -24 23z" />
<glyph unicode="&#x4f4;" horiz-adv-x="1392" d="M33 1315q0 22 59 22t116.5 -3t94.5 -3q39 0 98.5 3t118.5 3q60 0 60 -22q0 -29 -68 -41q-74 -13 -106.5 -48.5t-32.5 -95.5v-192q0 -63 36 -112.5t93.5 -78t121 -43t126.5 -14.5q55 0 113.5 14.5t80.5 28.5q19 14 19 49v348q0 120 -138 144q-67 11 -67 41q0 22 59 22 q58 0 126.5 -3t113.5 -3q32 0 79 3t107 3t60 -22q0 -29 -68 -41q-70 -12 -89.5 -44t-19.5 -100v-925q0 -80 20 -111.5t93 -44.5q68 -12 68 -37q0 -22 -60 -22q-59 0 -117.5 5t-97.5 5q-40 0 -100 -5t-119 -5t-59 22q0 26 67 37q142 26 142 152v440q0 35 -8 35q-2 0 -5 -2 q-37 -30 -127.5 -57.5t-177.5 -28.5h-10q-106 0 -202 29.5t-146 84.5q-44 48 -61 97.5t-17 122.5v208q0 75 -18.5 103t-90.5 41q-67 11 -67 41zM360 1595q0 46 33.5 79.5t79.5 33.5t79.5 -33.5t33.5 -79.5t-33.5 -79t-79.5 -33t-79.5 33t-33.5 79zM750 1595q0 46 33 79.5 t79 33.5t79.5 -33.5t33.5 -79.5t-33.5 -79t-79.5 -33t-79 33t-33 79z" />
<glyph unicode="&#x4f5;" horiz-adv-x="917" d="M14 807q0 18 41 18h6q41 0 66.5 -5t60.5 -5t68 5t74 5h6q41 0 41 -18q0 -21 -47 -37q-25 -7 -38.5 -14t-24.5 -23.5t-11 -42.5v-106q0 -74 48 -130.5t116 -56.5q86 0 141 39q29 20 29 43v211q0 38 -17.5 53.5t-54.5 26.5q-47 16 -47 37q0 18 41 18h6q41 0 77 -5t71 -5 t72.5 5t78.5 5h6q41 0 41 -18q0 -21 -47 -37q-27 -8 -41.5 -14t-28.5 -23t-14 -43v-561q0 -20 7 -33.5t23.5 -23t27 -13.5t32.5 -10q47 -16 47 -37q0 -18 -41 -18h-6q-41 0 -82.5 5t-76.5 5t-77 -5t-83 -5h-6q-41 0 -41 18q0 21 47 37q21 6 31.5 10t25.5 13t22 23t7 34v244 q0 28 -11 29q-3 0 -6 -3q-35 -32 -95 -54.5t-118 -22.5q-79 0 -122 23t-80 71q-17 23 -31 67t-14 72v135q0 40 -10.5 55.5t-41.5 24.5q-47 16 -47 37zM147 1153q0 38 32.5 70t70.5 32t70 -32t32 -70t-32 -70t-70 -32t-70.5 32t-32.5 70zM510 1153q0 38 32 70t70 32t70.5 -32 t32.5 -70t-32.5 -70t-70.5 -32t-70 32t-32 70z" />
<glyph unicode="&#x4f8;" horiz-adv-x="1710" d="M39 12q0 26 67 37q81 14 120.5 49t39.5 107v919q0 72 -30.5 104t-108.5 46q-68 12 -68 41q0 22 60 22q58 0 126 -3t113 -3q41 0 103.5 3t120.5 3q59 0 59 -22q0 -29 -68 -41q-79 -14 -113 -46.5t-34 -101.5v-290q0 -103 18 -103q3 -1 21.5 6.5t21.5 10.5q73 24 193 24 q188 0 300 -100t112 -277q0 -47 -8.5 -88t-18.5 -69t-31.5 -56.5t-33.5 -42.5t-41 -34.5t-36.5 -25t-35.5 -20.5q-115 -69 -328 -69q-13 0 -80 4t-114 4q-51 0 -128.5 -5t-138.5 -5q-59 0 -59 22zM426 629q-6 -127 4 -408q4 -75 35 -106q60 -60 123 -60q53 0 94.5 6.5 t84.5 26.5t71.5 53.5t47.5 90.5t21 135q2 73 -26 136.5t-60 96t-65 51.5q-94 51 -213 51q-61 0 -94 -22q-20 -13 -23 -51zM569 1532q0 46 33.5 79.5t79.5 33.5t79.5 -33.5t33.5 -79.5t-33.5 -79.5t-79.5 -33.5t-79.5 33.5t-33.5 79.5zM958 1532q0 46 33.5 79.5t79.5 33.5 t79.5 -33.5t33.5 -79.5t-33.5 -79.5t-79.5 -33.5t-79.5 33.5t-33.5 79.5zM1053 12q0 26 67 37q81 14 120.5 48.5t39.5 103.5v925q0 71 -30 102.5t-107 45.5q-68 12 -68 41q0 22 60 22q58 0 126 -3t113 -3q41 0 103 3t120 3q60 0 60 -22q0 -29 -68 -41q-79 -14 -112 -46 t-33 -102v-925q0 -69 40.5 -103.5t121.5 -48.5q67 -11 67 -37q0 -22 -59 -22q-58 0 -126.5 5t-113.5 5q-50 0 -127.5 -5t-134.5 -5q-59 0 -59 22z" />
<glyph unicode="&#x4f9;" horiz-adv-x="1249" d="M51 12q0 21 47 37q23 7 32 10.5t25 12.5t22.5 23t6.5 34v561q0 38 -16 54t-51 26q-47 16 -47 37q0 18 45 18q41 0 74.5 -5t68.5 -5t70 5t75 5q50 0 50 -18q0 -21 -47 -37q-19 -6 -30 -10.5t-23.5 -13t-18.5 -22.5t-6 -34v-207q0 -7 7 -11t13 -1q33 16 137 16q38 0 83 -12 t91.5 -35.5t77.5 -68.5t31 -103q0 -274 -350 -274q-41 0 -83 5t-77 5t-76.5 -5t-81.5 -5q-49 0 -49 18zM328 150q0 -40 32 -69.5t64 -29.5q72 0 119 37q41 32 58 65.5t17 79.5q0 101 -47.5 149t-146.5 48q-57 0 -78 -14q-18 -13 -18 -54v-212zM350 1153q0 38 32.5 70 t70.5 32t70 -32t32 -70t-32 -70t-70 -32t-70.5 32t-32.5 70zM713 1153q0 38 32 70t70 32t70.5 -32t32.5 -70t-32.5 -70t-70.5 -32t-70 32t-32 70zM788 12q0 9 8 16.5t16.5 11.5t23.5 9q23 7 32 10.5t25 12.5t22.5 23t6.5 34v561q0 20 -6 34t-18.5 22.5t-23.5 13t-30 10.5 q-47 16 -47 37q0 18 47 18q41 0 78.5 -5t72.5 -5t70.5 5t75.5 5q49 0 49 -18q0 -21 -47 -37q-19 -6 -30 -10.5t-23.5 -13t-18.5 -22.5t-6 -34v-561q0 -16 6.5 -29t12 -20t23 -14.5t22.5 -9t26 -7.5q47 -16 47 -37q0 -18 -47 -18q-41 0 -83 5t-77 5t-76 -5t-81 -5 q-50 0 -50 18z" />
<glyph unicode="&#x2000;" horiz-adv-x="877" />
<glyph unicode="&#x2001;" horiz-adv-x="1755" />
<glyph unicode="&#x2002;" horiz-adv-x="877" />
<glyph unicode="&#x2003;" horiz-adv-x="1755" />
<glyph unicode="&#x2004;" horiz-adv-x="585" />
<glyph unicode="&#x2005;" horiz-adv-x="438" />
<glyph unicode="&#x2006;" horiz-adv-x="292" />
<glyph unicode="&#x2007;" horiz-adv-x="292" />
<glyph unicode="&#x2008;" horiz-adv-x="219" />
<glyph unicode="&#x2009;" horiz-adv-x="351" />
<glyph unicode="&#x200a;" horiz-adv-x="97" />
<glyph unicode="&#x2010;" horiz-adv-x="561" d="M59 360q10 109 33 111q295 40 393 51q17 0 17 -12q-8 -107 -43 -111q-266 -39 -379 -51h-8q-13 0 -13 12z" />
<glyph unicode="&#x2011;" horiz-adv-x="561" d="M59 360q10 109 33 111q295 40 393 51q17 0 17 -12q-8 -107 -43 -111q-266 -39 -379 -51h-8q-13 0 -13 12z" />
<glyph unicode="&#x2012;" horiz-adv-x="561" d="M59 360q10 109 33 111q295 40 393 51q17 0 17 -12q-8 -107 -43 -111q-266 -39 -379 -51h-8q-13 0 -13 12z" />
<glyph unicode="&#x2013;" horiz-adv-x="1126" d="M102 403q0 24 12.5 55t37.5 31h845q11 0 20.5 -9t6.5 -19q-17 -55 -31 -69q-13 -13 -32 -13h-830q-11 0 -20 7.5t-9 16.5z" />
<glyph unicode="&#x2014;" horiz-adv-x="1945" d="M102 403q0 24 12.5 55t37.5 31h1665q11 0 20 -9t6 -19q-17 -55 -31 -69q-13 -13 -32 -13h-1649q-11 0 -20 7.5t-9 16.5z" />
<glyph unicode="&#x2018;" horiz-adv-x="491" d="M82 1071q0 59 20 114t52.5 95t71.5 70t77 46t70 17h4q21 0 31 -10t3.5 -21.5t-26.5 -15.5q-36 -7 -68.5 -22.5t-62.5 -41.5t-48 -67t-18 -92q0 -27 24 -57t56 -33q44 -4 70.5 -28t26.5 -58q0 -40 -34 -67.5t-79 -27.5q-74 0 -122 56.5t-48 142.5z" />
<glyph unicode="&#x2019;" horiz-adv-x="491" d="M84.5 904.5q6.5 11.5 26.5 15.5q79 16 137.5 71t58.5 152q0 27 -24 57t-56 33q-44 4 -70 28t-26 58q0 40 33.5 67t79.5 27q74 0 122 -56.5t48 -142.5q0 -59 -20 -114t-52.5 -95t-71.5 -70t-77 -46t-70 -17h-4q-21 0 -31 10.5t-3.5 22z" />
<glyph unicode="&#x201a;" horiz-adv-x="495" d="M84.5 -269.5q6.5 11.5 26.5 15.5q79 16 137.5 71t58.5 152q0 27 -24 57t-56 33q-44 4 -70 28t-26 58q0 40 34 67.5t79 27.5q74 0 122 -56.5t48 -142.5q0 -59 -20 -114t-52.5 -95t-71.5 -70t-77 -46t-70 -17h-4q-21 0 -31 10t-3.5 21.5z" />
<glyph unicode="&#x201c;" horiz-adv-x="860" d="M82 1071q0 59 20 114t52.5 95t71.5 70t77 46t70 17h4q21 0 31 -10t3.5 -21.5t-26.5 -15.5q-36 -7 -68.5 -22.5t-62.5 -41.5t-48 -67t-18 -92q0 -27 24 -57t56 -33q44 -4 70.5 -28t26.5 -58q0 -40 -34 -67.5t-79 -27.5q-74 0 -122 56.5t-48 142.5zM446 1071q0 59 20 114 t52.5 95t71.5 70t77 46t70 17h4q21 0 31 -10t4 -21.5t-26 -15.5q-36 -7 -68.5 -22.5t-62.5 -41.5t-48 -67t-18 -92q0 -27 24 -57t56 -33q44 -4 70 -28t26 -58q0 -40 -34 -67.5t-79 -27.5q-74 0 -122 56.5t-48 142.5z" />
<glyph unicode="&#x201d;" horiz-adv-x="860" d="M84.5 904.5q6.5 11.5 26.5 15.5q79 16 137.5 71t58.5 152q0 27 -24 57t-56 33q-44 4 -70 28t-26 58q0 40 33.5 67t79.5 27q74 0 122 -56.5t48 -142.5q0 -59 -20 -114t-52.5 -95t-71.5 -70t-77 -46t-70 -17h-4q-21 0 -31 10.5t-3.5 22zM448.5 904.5q6.5 11.5 26.5 15.5 q36 7 68.5 22.5t62.5 41.5t48 67t18 92q0 27 -24 57t-56 33q-44 4 -70 28t-26 58q0 40 33.5 67t78.5 27q74 0 122 -56.5t48 -142.5q0 -59 -20 -114t-52.5 -95t-71.5 -70t-77 -46t-70 -17h-4q-21 0 -31 10.5t-3.5 22z" />
<glyph unicode="&#x201e;" horiz-adv-x="860" d="M84.5 -269.5q6.5 11.5 26.5 15.5q79 16 137.5 71t58.5 152q0 27 -24 57t-56 33q-44 4 -70 28t-26 58q0 40 34 67.5t79 27.5q74 0 122 -56.5t48 -142.5q0 -59 -20 -114t-52.5 -95t-71.5 -70t-77 -46t-70 -17h-4q-21 0 -31 10t-3.5 21.5zM448.5 -269.5q6.5 11.5 26.5 15.5 q36 7 68.5 22.5t62.5 41.5t48 67t18 92q0 27 -24 57t-56 33q-44 4 -70 28t-26 58q0 40 33.5 67.5t78.5 27.5q74 0 122 -56.5t48 -142.5q0 -59 -20 -114t-52.5 -95t-71.5 -70t-77 -46t-70 -17h-4q-21 0 -31 10t-3.5 21.5z" />
<glyph unicode="&#x2022;" horiz-adv-x="634" d="M92 737q0 94 65.5 160t159.5 66t160 -66t66 -160t-66 -159.5t-160 -65.5t-159.5 65.5t-65.5 159.5z" />
<glyph unicode="&#x2026;" horiz-adv-x="1400" d="M123 84q0 46 33.5 79.5t79.5 33.5t79 -33.5t33 -79.5t-33 -79.5t-79 -33.5t-79.5 33.5t-33.5 79.5zM590 84q0 46 33 79.5t79 33.5t79.5 -33.5t33.5 -79.5t-33.5 -79.5t-79.5 -33.5t-79 33.5t-33 79.5zM1057 84q0 46 33 79.5t79 33.5t79.5 -33.5t33.5 -79.5t-33.5 -79.5 t-79.5 -33.5t-79 33.5t-33 79.5z" />
<glyph unicode="&#x202f;" horiz-adv-x="351" />
<glyph unicode="&#x2039;" horiz-adv-x="950" d="M210.5 410.5q-11.5 28.5 0.5 35.5q167 100 264.5 170t198.5 166q31 31 57 37h2q11 0 11.5 -17t-9.5 -32q-41 -62 -82 -112.5t-85.5 -92t-70.5 -63.5t-73 -58q-12 -9 -12 -14t12 -14q86 -67 160 -142t151 -192q8 -15 3.5 -29t-15.5 -14h-4q-26 6 -57 37 q-101 98 -212.5 175.5t-207.5 121.5q-20 9 -31.5 37.5z" />
<glyph unicode="&#x203a;" horiz-adv-x="950" d="M204 802q0 17 11 17h4q7 -2 13.5 -5t13.5 -7.5t10.5 -7.5t11 -9.5t8.5 -7.5q101 -96 198.5 -166t264.5 -170q12 -7 1 -35.5t-31 -37.5q-96 -44 -207.5 -121.5t-212.5 -175.5q-37 -32 -58 -37h-4q-12 0 -16.5 14t4.5 29q77 117 151 192t160 142q12 9 12 14t-12 14 q-47 36 -73 58t-70.5 63.5t-85.5 92t-82 112.5q-11 15 -11 32z" />
<glyph unicode="&#x205f;" horiz-adv-x="438" />
<glyph unicode="&#x20ac;" horiz-adv-x="1361" d="M-55 535q0 16 14.5 34.5t34.5 18.5l110 2q0 8 -1 23t-1 22q0 38 7 92l-70 -2q-10 0 -19.5 8t-9.5 17q0 16 14.5 34.5t34.5 18.5l64 2q60 241 260.5 397t456.5 156q50 0 119.5 -8t97.5 -17q20 -7 80 -20t75 -17q23 -6 27 -61q14 -109 16 -223q2 -17 -3.5 -32.5 t-18.5 -14.5q-16 1 -22.5 13t-12.5 50q-11 89 -90 162q-14 14 -48 32t-109 37t-160 19q-125 0 -228 -65.5t-166 -170t-86 -233.5l721 20q11 0 21 -9t6 -19q-23 -62 -64 -62l-694 -10q0 -7 -1 -22.5t-1 -22.5q0 -44 6 -88l662 18q11 0 20.5 -9t5.5 -19q-11 -29 -25 -45.5 t-38 -16.5l-611 -8q45 -200 181 -332.5t325 -132.5q119 0 254 76q94 55 121 154q4 11 14 18.5t22 12.5t15 7q3 3 4 3q8 0 12 -20t1 -36q-6 -38 -33.5 -107t-50.5 -104q-4 -6 -11.5 -11t-15 -8.5t-25.5 -11.5t-32 -14q-87 -41 -344 -41q-239 0 -419 155t-222 388l-142 -2 q-10 0 -19 8t-9 17z" />
<glyph unicode="&#x2122;" horiz-adv-x="2072" d="M2.5 1235.5q-0.5 14.5 7.5 26.5q28 52 41 137q2 12 7 18.5t8 7t8 0.5t16 -7t16 -17q7 -12 36.5 -20.5t58.5 -8.5h444q29 0 58 9.5t38 21.5q4 5 8 8.5t8.5 4.5t7 1.5t7.5 0t6 -0.5q5 0 11.5 -7t5.5 -15q-1 -6 -7.5 -34.5t-9 -41t-5 -33t-1.5 -35.5q0 -12 -5 -21.5 t-15 -8.5q-7 1 -11.5 8t-8 17.5t-5.5 13.5q0 1 -4.5 9.5t-6 10t-7 8t-11.5 8.5t-15.5 5.5t-23.5 4.5t-32 1q-108 0 -158 -4q-23 -3 -23 -54v-534q0 -81 107 -97q43 -6 43 -28q0 -17 -39 -17h-350q-39 0 -39 17q0 9 11.5 17t33.5 11q102 15 102 97v534q0 50 -22 54 q-20 4 -49 4h-68q-87 0 -108 -39q-8 -14 -25.5 -30.5t-30.5 -16.5q-9 0 -9.5 14.5zM897 590q0 9 11.5 17t33.5 11q43 6 62.5 33t19.5 47v527q0 27 -3.5 38t-19.5 29q-7 7 -14 12.5t-11.5 8.5t-14 6.5t-12.5 4.5t-15.5 3.5t-15.5 3.5q-6 1 -12.5 11t-6.5 18t11.5 13t19.5 5 h209q7 0 15.5 -9t18 -27t16 -31t15.5 -34t10 -24l211 -432q15 -35 31 -4l242 483q4 6 13 22.5t13 22.5t11 16t12.5 13.5t11.5 3.5h197q7 0 20 -4.5t13 -13.5t-13 -19t-22 -12q-6 -2 -19 -5t-19.5 -5t-17 -5.5t-16 -7t-11.5 -8.5t-8.5 -11.5t-2.5 -14.5v-582q0 -36 22.5 -50 t77.5 -22q43 -6 43 -28q0 -17 -39 -17h-309q-39 0 -39 17q0 9 11.5 17t33.5 11q40 5 54 19t14 55v504q0 13 -3 17t-8 -0.5t-10 -16.5l-305 -645q-6 12 -55 120t-118.5 257t-123.5 256q-9 17 -13 3l-1 -13v-474q0 -29 20.5 -52t65.5 -30q43 -6 43 -28q0 -17 -39 -17h-246 q-39 0 -39 17z" />
<glyph unicode="&#xe000;" horiz-adv-x="829" d="M0 0v829h829v-829h-829z" />
</font>
</defs>
</svg>
